<?xml version="1.0" encoding="UTF-8"?>
<svg version="1.1" xmlns="http://www.w3.org/2000/svg" width="512" height="512">
<path d="M0 0 C10.36052975 10.69347683 14.32479105 24.21341178 14.24023438 38.72998047 C13.86234565 54.86517735 9.14376179 71.28067074 -1.12109375 84.0078125 C-0.07953125 84.20375 0.96203125 84.3996875 2.03515625 84.6015625 C20.83447759 88.4074244 36.9599678 96.22653148 47.87890625 112.5703125 C56.12585626 126.73660619 57.23624534 140.75457313 57.19458008 156.81884766 C57.19138599 159.39918006 57.215082 161.97839946 57.24023438 164.55859375 C57.24250483 166.21614441 57.24321205 167.87369811 57.2421875 169.53125 C57.25139725 170.29384125 57.26060699 171.0564325 57.27009583 171.84213257 C57.22878856 176.62756455 56.61434657 180.04140538 53.87890625 184.0078125 C49.82251129 186.15470593 46.28426601 186.25907238 41.74353027 186.26177979 C41.03633142 186.26489977 40.32913257 186.26801975 39.60050344 186.27123427 C37.23683875 186.27919533 34.87343212 186.27289809 32.50976562 186.26660156 C30.81272735 186.26931227 29.11569026 186.27287365 27.4186554 186.27722168 C22.81336138 186.28633849 18.20815699 186.28280433 13.6028614 186.27646351 C8.78321211 186.27139988 3.96357049 186.27609598 -0.8560791 186.27923584 C-8.94980243 186.28287442 -17.04348925 186.27807921 -25.13720703 186.26855469 C-34.49451895 186.25767035 -43.85174371 186.261196 -53.20905352 186.2722075 C-61.24314384 186.28128344 -69.27720792 186.28256414 -77.31130171 186.27733016 C-82.10967405 186.27421216 -86.90800542 186.27379648 -91.70637512 186.28040314 C-96.21748243 186.28618042 -100.72847736 186.28217266 -105.23957253 186.27061462 C-106.89518357 186.26797009 -108.55080408 186.26872961 -110.20641136 186.27313995 C-112.46630785 186.27860502 -114.72584423 186.27174977 -116.98571777 186.26177979 C-118.25037621 186.26102573 -119.51503464 186.26027168 -120.81801605 186.25949478 C-124.88555469 185.94956341 -127.80465696 185.14283919 -130.90869141 182.46655273 C-132.80339036 178.62412158 -132.54873418 174.89568673 -132.51953125 170.66796875 C-132.52240143 169.75003036 -132.52527161 168.83209198 -132.52822876 167.88633728 C-132.53026978 165.94041326 -132.52473729 163.99446874 -132.51220703 162.04858398 C-132.49631919 159.11198167 -132.51196796 156.17679074 -132.53125 153.24023438 C-132.55452467 133.3551009 -129.23415728 117.21901783 -114.83984375 102.6328125 C-104.04306393 92.20833543 -89.40787389 85.0078125 -74.12109375 85.0078125 C-74.56839844 84.35296875 -75.01570313 83.698125 -75.4765625 83.0234375 C-87.42686716 64.98331874 -92.12187698 44.60169036 -88.46484375 23.16015625 C-84.69060284 9.51106951 -76.24486398 -1.4456466 -64.24609375 -8.8046875 C-42.51524267 -20.78941567 -17.91652329 -16.82767381 0 0 Z " fill="#000101" transform="translate(289.12109375,170.9921875)"/>
<path d="M0 0 C12.267755 10.77573075 20.74882701 25.6882924 22.28198242 42.09936523 C23.15890643 60.00001325 20.27434202 77.6520604 8.07177734 91.54907227 C5.80235539 94.02108015 3.44610037 96.38755584 1.0625 98.75 C0.50046875 99.34554687 -0.0615625 99.94109375 -0.640625 100.5546875 C-11.56966843 111.19612453 -28.16831022 115.61163244 -42.9375 116.125 C-62.06292443 115.46021252 -79.05151364 108.07994992 -92.33203125 94.2578125 C-104.53772352 80.29109996 -109.83695599 62.59920075 -108.72265625 44.203125 C-106.60776892 26.07551932 -98.11224208 9.85212455 -83.92578125 -1.703125 C-58.24815543 -20.90054339 -25.06808967 -19.25621413 0 0 Z " fill="#89C8FD" transform="translate(466.9375,41.25)"/>
<path d="M0 0 C8.42833715 5.75681962 15.55492387 14.41006027 22.74609375 21.61328125 C24.16701411 23.03352715 25.58808282 24.45362465 27.0092926 25.87358093 C29.97193302 28.83475395 32.93277415 31.79771107 35.89233398 34.76196289 C39.6909941 38.56635112 43.49416837 42.36619014 47.29867458 46.16473103 C50.22660231 49.08905389 53.15215493 52.01574346 56.0769825 54.94316673 C57.47932549 56.34617758 58.88241385 57.74844383 60.28625298 59.14995766 C62.23940272 61.10057877 64.18933703 63.05435739 66.13842773 65.0090332 C66.72071136 65.5892926 67.302995 66.169552 67.90292358 66.76739502 C72.78867589 71.67922429 72.78867589 71.67922429 73.5 76.125 C71.75651906 89.63697727 47.93164847 106.4649543 38.56762695 115.89233398 C35.55654002 118.9258021 32.55554572 121.96875579 29.56274414 125.02026367 C25.93265469 128.72137974 22.28571237 132.4050663 18.62609673 136.0769825 C17.23943299 137.47403873 15.85878383 138.87709228 14.48442268 140.28625298 C12.56308052 142.2537602 10.62082038 144.19806663 8.67211914 146.13842773 C8.1134314 146.72071136 7.55474365 147.302995 6.97912598 147.90292358 C2.82056748 151.97615163 -0.13692667 153.03730728 -6 153 C-8.00390625 152.07919312 -8.00390625 152.07919312 -9.5625 150.47412109 C-10.22636719 149.82030457 -10.89023438 149.16648804 -11.57421875 148.49285889 C-12.37472656 147.67021545 -13.17523438 146.84757202 -14 146 C-15.06546161 144.96599615 -16.13479034 143.93596875 -17.20703125 142.90899658 C-24.91358318 135.51243668 -32.49377348 127.9842465 -40.08189392 120.46654701 C-43.93138134 116.65296383 -47.78928154 112.84883058 -51.66845703 109.06542969 C-55.43881605 105.38783201 -59.18668269 101.68866244 -62.91967773 97.97315598 C-64.34093144 96.56598253 -65.76993249 95.16658841 -67.20678711 93.77534866 C-69.21290249 91.82993437 -71.18884063 89.85802606 -73.16015625 87.87744141 C-73.75538589 87.3129982 -74.35061554 86.74855499 -74.96388245 86.16700745 C-77.91741358 83.13724827 -79.42300578 80.82174271 -79.77035522 76.54037476 C-79.3646218 71.00014325 -76.3881363 68.17004064 -72.51416016 64.4765625 C-71.82486923 63.78435104 -71.13557831 63.09213959 -70.42539978 62.37895203 C-68.15079186 60.10551199 -65.84591222 57.86567846 -63.5390625 55.625 C-61.95012938 54.05032284 -60.36310803 52.47371445 -58.77792358 50.89526367 C-54.60626227 46.7522477 -50.4078485 42.6373879 -46.20367432 38.52740479 C-41.9228197 34.33166267 -37.67032575 30.10737657 -33.4140625 25.88671875 C-27.20425048 19.74033441 -20.98826812 13.60031779 -14.74462891 7.48828125 C-14.08791702 6.84211349 -13.43120514 6.19594574 -12.7545929 5.53019714 C-11.8543615 4.6515374 -11.8543615 4.6515374 -10.9359436 3.75512695 C-10.41420877 3.2441597 -9.89247395 2.73319244 -9.35492897 2.20674133 C-6.35615162 -0.46406183 -3.90424775 -0.57840707 0 0 Z " fill="#FDDF76" transform="translate(92,13)"/>
<path d="M0 0 C0.8621814 -0.00860046 1.72436279 -0.01720093 2.6126709 -0.02606201 C3.56075119 -0.03032196 4.50883148 -0.03458191 5.48564148 -0.03897095 C6.48251984 -0.04714844 7.47939819 -0.05532593 8.50648499 -0.06375122 C11.81553033 -0.08862636 15.12453274 -0.10512596 18.43363953 -0.11953735 C20.12605805 -0.12752287 20.12605805 -0.12752287 21.85266685 -0.13566971 C27.82357988 -0.16240944 33.79447192 -0.18178246 39.76542664 -0.19619751 C45.93960543 -0.21285483 52.11325143 -0.25763991 58.28722858 -0.30856895 C63.02869293 -0.34218677 67.77002992 -0.35376895 72.5116024 -0.35942459 C74.78782922 -0.36615127 77.06404724 -0.38140982 79.34015846 -0.4053154 C82.52451429 -0.43685393 85.70742116 -0.43702037 88.89189148 -0.42959595 C89.83389908 -0.44600128 90.77590668 -0.46240662 91.74645996 -0.47930908 C95.98788828 -0.43878463 98.30382443 -0.20534897 101.96784973 2.06791687 C104.6889959 6.45296862 104.57710749 10.0426267 104.51396179 15.11312866 C104.5211171 16.11205139 104.5282724 17.11097412 104.53564453 18.14016724 C104.55253722 21.43818044 104.533126 24.73483561 104.51176453 28.0328064 C104.5125931 30.3253643 104.51505204 32.61792215 104.51907349 34.91047668 C104.52193181 39.71307271 104.50722505 44.51520245 104.4797821 49.31771851 C104.44568066 55.47735606 104.45172393 61.6361608 104.47044468 67.79583836 C104.4810061 72.52874204 104.47208486 77.26145147 104.45705986 81.99433708 C104.45187261 84.26576091 104.4523664 86.53720499 104.45860481 88.80862617 C104.46404721 91.9808844 104.44371273 95.15194441 104.41630554 98.32406616 C104.42283142 99.2649559 104.4293573 100.20584564 104.43608093 101.17524719 C104.34245568 107.53931884 104.34245568 107.53931884 101.97451782 110.70576477 C99.01393393 112.75548949 97.38744213 113.27954335 93.83491516 113.28761292 C92.98811691 113.2918779 92.14131866 113.29614288 91.26885986 113.30053711 C89.87243507 113.29985733 89.87243507 113.29985733 88.44779968 113.29916382 C87.46882217 113.30252243 86.48984467 113.30588104 85.48120117 113.30934143 C82.2322616 113.31887084 78.98337347 113.32079558 75.73442078 113.3218689 C73.48241657 113.32508023 71.23041257 113.3284442 68.97840881 113.33195496 C64.25221778 113.3379513 59.52604504 113.33979435 54.79985046 113.33920288 C48.73786992 113.33910126 42.6760065 113.35275119 36.61405373 113.36997509 C31.96098795 113.38108331 27.30795058 113.38312245 22.65487289 113.38259315 C20.41972322 113.38377514 18.18457285 113.38820909 15.94943619 113.39592552 C12.82510891 113.40570103 9.70103715 113.40285688 6.57670593 113.39682007 C5.64980453 113.40243958 4.72290314 113.40805908 3.76791382 113.41384888 C2.91547592 113.40965439 2.06303802 113.4054599 1.18476868 113.40113831 C0.07698279 113.40195546 0.07698279 113.40195546 -1.0531826 113.40278912 C-3.52488709 113.1047309 -5.04171665 112.53430467 -7.11714172 111.15390015 C-8.96153682 108.37709274 -9.36862803 106.16805057 -9.37783813 102.87217712 C-9.38492294 102.02407471 -9.39200775 101.17597229 -9.39930725 100.3021698 C-9.39682983 99.37998154 -9.39435242 98.45779327 -9.39179993 97.50765991 C-9.39691086 96.52999664 -9.40202179 95.55233337 -9.4072876 94.54504395 C-9.42119307 91.31173591 -9.42022612 88.07864079 -9.41792297 84.8453064 C-9.4218093 82.59855571 -9.42614384 80.35180576 -9.4309082 78.10505676 C-9.43837242 73.39499531 -9.43807759 68.68500881 -9.43281555 63.97494507 C-9.42701991 57.93771179 -9.44395345 51.9007852 -9.46716022 45.86360264 C-9.48188833 41.22335515 -9.48277052 36.58318168 -9.4796505 31.94291496 C-9.48016415 29.71696299 -9.48541003 27.49100692 -9.49546242 25.26507759 C-9.50779172 22.15302697 -9.50105597 19.04157586 -9.48945618 15.92953491 C-9.49709991 15.00937088 -9.50474365 14.08920685 -9.51261902 13.14115906 C-9.47305667 8.34176057 -9.29404728 5.02459144 -6.11714172 1.15390015 C-3.83153802 0.0110983 -2.54087165 0.01884735 0 0 Z " fill="#F9626D" transform="translate(45.11714172363281,385.8460998535156)"/>
<path d="M0 0 C1.63562143 -0.00202699 3.27124197 -0.0049436 4.90686035 -0.00869751 C8.31576235 -0.0130915 11.72442667 -0.00678514 15.13330078 0.00732422 C19.47024717 0.02441443 23.80663629 0.01455739 28.14356232 -0.00339317 C31.51536139 -0.01431075 34.88703157 -0.01074843 38.25883484 -0.0030098 C39.85658334 -0.00102974 41.45434412 -0.00338848 43.05207825 -0.01044846 C59.73346897 -0.0680099 74.42711826 2.68881316 87.0625 14.41796875 C94.94140654 23.17806879 98.27892929 33.10469297 98.3203125 44.6640625 C98.34368179 46.09779205 98.34368179 46.09779205 98.36752319 47.56048584 C98.41473137 50.58979554 98.44270795 53.61887845 98.46875 56.6484375 C98.50531652 59.69211894 98.5459613 62.73567399 98.59140015 65.77923584 C98.61849561 67.66673343 98.63990321 69.55432338 98.65493774 71.44195557 C98.66519989 72.296745 98.67546204 73.15153442 98.68603516 74.03222656 C98.69253082 74.78086975 98.69902649 75.52951294 98.70571899 76.30084229 C98.85056151 78.50194898 99.0628596 80.33007272 99.84375 82.3984375 C102.83990946 83.7030031 102.83990946 83.7030031 105.84375 84.3984375 C105.84375 84.7284375 105.84375 85.0584375 105.84375 85.3984375 C49.08375 85.3984375 -7.67625 85.3984375 -66.15625 85.3984375 C-64.67125 84.4084375 -64.67125 84.4084375 -63.15625 83.3984375 C-60.41286349 81.32833355 -58.44017764 79.74461504 -57.70968628 76.28115845 C-57.5473252 73.64818917 -57.54295824 71.05554701 -57.58984375 68.41796875 C-57.58420914 67.4499382 -57.57857452 66.48190765 -57.57276917 65.48454285 C-57.55633052 62.39284802 -57.57183028 59.30258219 -57.59375 56.2109375 C-57.61041663 53.13727365 -57.61931617 50.06457054 -57.60401917 46.9908905 C-57.59483986 45.08196164 -57.60356131 43.17282814 -57.63365173 41.26411438 C-57.59042448 30.59014398 -53.42175185 22.09300442 -46.15625 14.3984375 C-32.60895304 2.06942264 -17.75326733 -0.07844707 0 0 Z " fill="#89C7FC" transform="translate(231.15625,271.6015625)"/>
<path d="M0 0 C4.66653418 4.8711377 7.70557376 10.49186097 10.9375 16.375 C12.09358849 18.45003486 13.25118856 20.52422814 14.41015625 22.59765625 C15.00328613 23.66000488 15.59641602 24.72235352 16.20751953 25.81689453 C19.0407788 30.84822582 21.95498168 35.83117085 24.875 40.8125 C33.76343229 55.99932509 42.57176806 71.23211111 51.29296875 86.515625 C51.65074402 87.14249207 52.00851929 87.76935913 52.37713623 88.41522217 C54.10207714 91.43819651 55.82551428 94.46201245 57.54638672 97.48730469 C58.17174316 98.58461914 58.79709961 99.68193359 59.44140625 100.8125 C60.03800049 101.86034668 60.63459473 102.90819336 61.24926758 103.98779297 C63.37450995 107.64435974 65.60525447 111.22935072 67.88183594 114.79345703 C69.42713925 117.84290056 69.68050278 120.61083522 69.69921875 123.9921875 C68.62177245 127.08608359 66.67336874 128.19083529 64 130 C61.25914764 130.50336456 61.25914764 130.50336456 58.23132324 130.50793457 C57.07893661 130.51921387 55.92654999 130.53049316 54.73924255 130.54211426 C52.85641319 130.52996887 52.85641319 130.52996887 50.93554688 130.51757812 C49.59317771 130.52300143 48.2508145 130.53012526 46.90846252 130.53881836 C43.26996029 130.55703037 39.6319125 130.5499933 35.99340248 130.53730202 C32.18272314 130.5271632 28.37208227 130.53657014 24.56140137 130.54284668 C18.16244533 130.55012054 11.76367407 130.54054235 5.36474609 130.52148438 C-2.02955002 130.49971598 -9.42340495 130.50676754 -16.81769037 130.52879 C-23.17029673 130.54695155 -29.52277041 130.54949868 -35.87539434 130.53903532 C-39.66778131 130.53280448 -43.45996101 130.5319533 -47.25233459 130.54518127 C-50.81807635 130.55675034 -54.38325023 130.54869566 -57.94893074 130.52560425 C-59.87902677 130.51780647 -61.80917093 130.52966413 -63.73924255 130.54211426 C-64.89162918 130.53083496 -66.04401581 130.51955566 -67.23132324 130.50793457 C-68.23050529 130.50642647 -69.22968735 130.50491837 -70.25914764 130.50336456 C-73.77739775 129.85722891 -75.46157254 128.47557363 -78 126 C-79.25820674 122.36462795 -79.20548668 120.57936858 -77.91796875 116.94921875 C-77.06138672 115.33466797 -77.06138672 115.33466797 -76.1875 113.6875 C-75.86910156 113.08196289 -75.55070312 112.47642578 -75.22265625 111.85253906 C-71.97707929 105.76708226 -68.45107236 99.83939322 -64.91796875 93.91796875 C-61.49130689 88.16636982 -58.15296583 82.36445224 -54.8125 76.5625 C-54.17505859 75.45616211 -53.53761719 74.34982422 -52.88085938 73.20996094 C-51.57220371 70.93844323 -50.26377451 68.66679503 -48.95556641 66.39501953 C-45.18986796 59.85746615 -41.41895325 53.32291747 -37.64599609 46.78955078 C-34.7424968 41.76042488 -31.84262756 36.72932884 -28.95724487 31.68978882 C-27.94122816 29.91567455 -26.92393072 28.14230081 -25.90625 26.36914062 C-24.63417708 24.15184686 -23.36447715 21.93318925 -22.09765625 19.71289062 C-8.95422287 -3.17128727 -8.95422287 -3.17128727 0 0 Z " fill="#000000" transform="translate(430,369)"/>
<path d="M0 0 C8.42833715 5.75681962 15.55492387 14.41006027 22.74609375 21.61328125 C24.16701411 23.03352715 25.58808282 24.45362465 27.0092926 25.87358093 C29.97193302 28.83475395 32.93277415 31.79771107 35.89233398 34.76196289 C39.6909941 38.56635112 43.49416837 42.36619014 47.29867458 46.16473103 C50.22660231 49.08905389 53.15215493 52.01574346 56.0769825 54.94316673 C57.47932549 56.34617758 58.88241385 57.74844383 60.28625298 59.14995766 C62.23940272 61.10057877 64.18933703 63.05435739 66.13842773 65.0090332 C66.72071136 65.5892926 67.302995 66.169552 67.90292358 66.76739502 C72.78867589 71.67922429 72.78867589 71.67922429 73.5 76.125 C71.75651906 89.63697727 47.93164847 106.4649543 38.56762695 115.89233398 C35.55654002 118.9258021 32.55554572 121.96875579 29.56274414 125.02026367 C25.93265469 128.72137974 22.28571237 132.4050663 18.62609673 136.0769825 C17.23943299 137.47403873 15.85878383 138.87709228 14.48442268 140.28625298 C12.56308052 142.2537602 10.62082038 144.19806663 8.67211914 146.13842773 C8.1134314 146.72071136 7.55474365 147.302995 6.97912598 147.90292358 C2.82056748 151.97615163 -0.13692667 153.03730728 -6 153 C-8.00390625 152.07919312 -8.00390625 152.07919312 -9.5625 150.47412109 C-10.22636719 149.82030457 -10.89023438 149.16648804 -11.57421875 148.49285889 C-12.37472656 147.67021545 -13.17523438 146.84757202 -14 146 C-15.06546161 144.96599615 -16.13479034 143.93596875 -17.20703125 142.90899658 C-24.91358318 135.51243668 -32.49377348 127.9842465 -40.08189392 120.46654701 C-43.93138134 116.65296383 -47.78928154 112.84883058 -51.66845703 109.06542969 C-55.43881605 105.38783201 -59.18668269 101.68866244 -62.91967773 97.97315598 C-64.34093144 96.56598253 -65.76993249 95.16658841 -67.20678711 93.77534866 C-69.21290249 91.82993437 -71.18884063 89.85802606 -73.16015625 87.87744141 C-73.75538589 87.3129982 -74.35061554 86.74855499 -74.96388245 86.16700745 C-77.91741358 83.13724827 -79.42300578 80.82174271 -79.77035522 76.54037476 C-79.3646218 71.00014325 -76.3881363 68.17004064 -72.51416016 64.4765625 C-71.82486923 63.78435104 -71.13557831 63.09213959 -70.42539978 62.37895203 C-68.15079186 60.10551199 -65.84591222 57.86567846 -63.5390625 55.625 C-61.95012938 54.05032284 -60.36310803 52.47371445 -58.77792358 50.89526367 C-54.60626227 46.7522477 -50.4078485 42.6373879 -46.20367432 38.52740479 C-41.9228197 34.33166267 -37.67032575 30.10737657 -33.4140625 25.88671875 C-27.20425048 19.74033441 -20.98826812 13.60031779 -14.74462891 7.48828125 C-14.08791702 6.84211349 -13.43120514 6.19594574 -12.7545929 5.53019714 C-11.8543615 4.6515374 -11.8543615 4.6515374 -10.9359436 3.75512695 C-10.41420877 3.2441597 -9.89247395 2.73319244 -9.35492897 2.20674133 C-6.35615162 -0.46406183 -3.90424775 -0.57840707 0 0 Z M-7.80267334 23.55383301 C-8.57734955 24.33929504 -8.57734955 24.33929504 -9.36767578 25.140625 C-9.91416779 25.68682495 -10.46065979 26.2330249 -11.02371216 26.79577637 C-12.83569058 28.60915233 -14.64047542 30.42951843 -16.4453125 32.25 C-17.69755223 33.50596835 -18.95023316 34.76149696 -20.20333862 36.01660156 C-23.50559049 39.32650178 -26.80179342 42.64236353 -30.09680176 45.95947266 C-33.45805977 49.34116323 -36.82496327 52.71722238 -40.19140625 56.09375 C-46.79983056 62.72364541 -53.40188273 69.359848 -60 76 C-54.5664118 82.61072987 -48.53553957 88.59214196 -42.4765625 94.62109375 C-41.36390615 95.73188169 -40.25147284 96.8428931 -39.13925171 97.95411682 C-36.2316873 100.85788934 -33.32113095 103.75864436 -30.40991211 106.65875244 C-27.43159571 109.62678263 -24.45615894 112.59769662 -21.48046875 115.56835938 C-15.65643877 121.38171083 -9.8292405 127.19187334 -4 133 C2.61072987 127.5664118 8.59214196 121.53553957 14.62109375 115.4765625 C15.73188169 114.36390615 16.8428931 113.25147284 17.95411682 112.13925171 C20.85788934 109.2316873 23.75864436 106.32113095 26.65875244 103.40991211 C29.62678263 100.43159571 32.59769662 97.45615894 35.56835938 94.48046875 C41.38171083 88.65643877 47.19187334 82.8292405 53 77 C51.4038371 73.10705528 48.89094188 70.63719689 45.93945312 67.68066406 C45.42543442 67.16314072 44.91141571 66.64561737 44.38182068 66.1124115 C42.68661724 64.40842684 40.98422842 62.71183668 39.28125 61.015625 C38.10033367 59.8333614 36.91971437 58.65080104 35.73937988 57.46795654 C33.2678068 54.99343744 30.79265826 52.52256614 28.31494141 50.05419922 C25.13358613 46.8842631 21.96132623 43.70540018 18.79166412 40.52377701 C16.35725911 38.08216064 13.9181301 35.64530855 11.4775238 33.20989227 C10.30542515 32.03913083 9.13481874 30.86687351 7.9657135 29.69312286 C6.33543655 28.0577899 4.69892678 26.42896706 3.06054688 24.80175781 C2.1294812 23.87228333 1.19841553 22.94280884 0.23913574 21.98516846 C-3.55252123 18.62356885 -4.56862338 20.33854371 -7.80267334 23.55383301 Z " fill="#010100" transform="translate(92,13)"/>
<path d="M0 0 C0.8621814 -0.00860046 1.72436279 -0.01720093 2.6126709 -0.02606201 C3.56075119 -0.03032196 4.50883148 -0.03458191 5.48564148 -0.03897095 C6.48251984 -0.04714844 7.47939819 -0.05532593 8.50648499 -0.06375122 C11.81553033 -0.08862636 15.12453274 -0.10512596 18.43363953 -0.11953735 C20.12605805 -0.12752287 20.12605805 -0.12752287 21.85266685 -0.13566971 C27.82357988 -0.16240944 33.79447192 -0.18178246 39.76542664 -0.19619751 C45.93960543 -0.21285483 52.11325143 -0.25763991 58.28722858 -0.30856895 C63.02869293 -0.34218677 67.77002992 -0.35376895 72.5116024 -0.35942459 C74.78782922 -0.36615127 77.06404724 -0.38140982 79.34015846 -0.4053154 C82.52451429 -0.43685393 85.70742116 -0.43702037 88.89189148 -0.42959595 C89.83389908 -0.44600128 90.77590668 -0.46240662 91.74645996 -0.47930908 C95.98788828 -0.43878463 98.30382443 -0.20534897 101.96784973 2.06791687 C104.6889959 6.45296862 104.57710749 10.0426267 104.51396179 15.11312866 C104.5211171 16.11205139 104.5282724 17.11097412 104.53564453 18.14016724 C104.55253722 21.43818044 104.533126 24.73483561 104.51176453 28.0328064 C104.5125931 30.3253643 104.51505204 32.61792215 104.51907349 34.91047668 C104.52193181 39.71307271 104.50722505 44.51520245 104.4797821 49.31771851 C104.44568066 55.47735606 104.45172393 61.6361608 104.47044468 67.79583836 C104.4810061 72.52874204 104.47208486 77.26145147 104.45705986 81.99433708 C104.45187261 84.26576091 104.4523664 86.53720499 104.45860481 88.80862617 C104.46404721 91.9808844 104.44371273 95.15194441 104.41630554 98.32406616 C104.42283142 99.2649559 104.4293573 100.20584564 104.43608093 101.17524719 C104.34245568 107.53931884 104.34245568 107.53931884 101.97451782 110.70576477 C99.01393393 112.75548949 97.38744213 113.27954335 93.83491516 113.28761292 C92.98811691 113.2918779 92.14131866 113.29614288 91.26885986 113.30053711 C89.87243507 113.29985733 89.87243507 113.29985733 88.44779968 113.29916382 C87.46882217 113.30252243 86.48984467 113.30588104 85.48120117 113.30934143 C82.2322616 113.31887084 78.98337347 113.32079558 75.73442078 113.3218689 C73.48241657 113.32508023 71.23041257 113.3284442 68.97840881 113.33195496 C64.25221778 113.3379513 59.52604504 113.33979435 54.79985046 113.33920288 C48.73786992 113.33910126 42.6760065 113.35275119 36.61405373 113.36997509 C31.96098795 113.38108331 27.30795058 113.38312245 22.65487289 113.38259315 C20.41972322 113.38377514 18.18457285 113.38820909 15.94943619 113.39592552 C12.82510891 113.40570103 9.70103715 113.40285688 6.57670593 113.39682007 C5.64980453 113.40243958 4.72290314 113.40805908 3.76791382 113.41384888 C2.91547592 113.40965439 2.06303802 113.4054599 1.18476868 113.40113831 C0.07698279 113.40195546 0.07698279 113.40195546 -1.0531826 113.40278912 C-3.52488709 113.1047309 -5.04171665 112.53430467 -7.11714172 111.15390015 C-8.96153682 108.37709274 -9.36862803 106.16805057 -9.37783813 102.87217712 C-9.38492294 102.02407471 -9.39200775 101.17597229 -9.39930725 100.3021698 C-9.39682983 99.37998154 -9.39435242 98.45779327 -9.39179993 97.50765991 C-9.39691086 96.52999664 -9.40202179 95.55233337 -9.4072876 94.54504395 C-9.42119307 91.31173591 -9.42022612 88.07864079 -9.41792297 84.8453064 C-9.4218093 82.59855571 -9.42614384 80.35180576 -9.4309082 78.10505676 C-9.43837242 73.39499531 -9.43807759 68.68500881 -9.43281555 63.97494507 C-9.42701991 57.93771179 -9.44395345 51.9007852 -9.46716022 45.86360264 C-9.48188833 41.22335515 -9.48277052 36.58318168 -9.4796505 31.94291496 C-9.48016415 29.71696299 -9.48541003 27.49100692 -9.49546242 25.26507759 C-9.50779172 22.15302697 -9.50105597 19.04157586 -9.48945618 15.92953491 C-9.49709991 15.00937088 -9.50474365 14.08920685 -9.51261902 13.14115906 C-9.47305667 8.34176057 -9.29404728 5.02459144 -6.11714172 1.15390015 C-3.83153802 0.0110983 -2.54087165 0.01884735 0 0 Z M6.88285828 16.15390015 C6.86223328 29.33327515 6.84160828 42.51265015 6.82035828 56.09140015 C6.81125427 60.25885864 6.80215027 64.42631714 6.79277039 68.72006226 C6.78942677 72.44296986 6.78942677 72.44296986 6.78741455 76.1658783 C6.78587501 77.8291704 6.78234987 79.49246136 6.77728271 81.15574646 C6.77000519 83.66939241 6.76895086 86.18296992 6.76933289 88.69662476 C6.76573478 89.44249564 6.76213667 90.18836653 6.75842953 90.95683956 C6.46337861 94.3415711 6.46337861 94.3415711 7.88285828 97.15390015 C10.34191049 97.25421895 12.77289255 97.29008195 15.23246765 97.28329468 C16.00153946 97.285047 16.77061127 97.28679932 17.56298828 97.28860474 C20.11755091 97.29302354 22.67204489 97.29008517 25.22660828 97.28671265 C26.99398309 97.28738568 28.76135781 97.2883557 30.5287323 97.28961182 C34.23776631 97.29108883 37.94677628 97.28893413 41.6558075 97.28427124 C46.4210832 97.27857395 51.18630259 97.28185294 55.95157623 97.2878437 C59.60256885 97.29144923 63.25354801 97.29031077 66.90454102 97.28771591 C68.66209927 97.28704662 70.41965873 97.28787515 72.17721558 97.29019547 C74.62925982 97.29272185 77.08121158 97.28888161 79.5332489 97.28329468 C80.63356194 97.28633102 80.63356194 97.28633102 81.75610352 97.28942871 C85.10423211 97.56965372 85.10423211 97.56965372 87.88285828 96.15390015 C87.97788397 93.65893605 88.00842086 91.19187752 87.99638367 88.69662476 C87.9965042 87.90352937 87.99662474 87.11043398 87.99674892 86.2933054 C87.99599978 83.71425682 87.98837149 81.13527962 87.98051453 78.5562439 C87.97904511 76.96871984 87.9780244 75.38119529 87.97746277 73.79367065 C87.97220982 67.89290645 87.95824874 61.99215261 87.94535828 56.09140015 C87.91442078 36.32233765 87.91442078 36.32233765 87.88285828 16.15390015 C61.15285828 16.15390015 34.42285828 16.15390015 6.88285828 16.15390015 Z " fill="#000000" transform="translate(45.11714172363281,385.8460998535156)"/>
<path d="M0 0 C12.267755 10.77573075 20.74882701 25.6882924 22.28198242 42.09936523 C23.15890643 60.00001325 20.27434202 77.6520604 8.07177734 91.54907227 C5.80235539 94.02108015 3.44610037 96.38755584 1.0625 98.75 C0.50046875 99.34554687 -0.0615625 99.94109375 -0.640625 100.5546875 C-11.56966843 111.19612453 -28.16831022 115.61163244 -42.9375 116.125 C-62.06292443 115.46021252 -79.05151364 108.07994992 -92.33203125 94.2578125 C-104.53772352 80.29109996 -109.83695599 62.59920075 -108.72265625 44.203125 C-106.60776892 26.07551932 -98.11224208 9.85212455 -83.92578125 -1.703125 C-58.24815543 -20.90054339 -25.06808967 -19.25621413 0 0 Z M-75.9375 13.75 C-76.55109375 14.26046875 -77.1646875 14.7709375 -77.796875 15.296875 C-86.34995015 22.94165899 -91.40809337 34.03578917 -92.18359375 45.3359375 C-92.82286202 60.6951497 -88.40330918 73.83268728 -78.0625 85.375 C-66.81335394 96.18187195 -53.13464864 99.34053473 -38.07421875 99.08984375 C-25.23841996 98.52338568 -14.28115407 91.59428985 -5.625 82.4375 C3.04415772 72.09044078 6.79123027 59.46915568 6.40625 46.04296875 C5.05025769 33.05317874 -1.1143448 21.54241912 -10.5703125 12.6015625 C-30.13718398 -2.70321817 -57.3460797 -3.08475067 -75.9375 13.75 Z " fill="#000101" transform="translate(466.9375,41.25)"/>
<path d="M0 0 C9.10406481 6.102909 13.47637621 14.48490089 16 25 C17.86407797 37.90356197 13.72639516 54.51616659 6.3125 65.125 C-1.15560921 74.35251338 -8.08259477 79.12028831 -19.9375 80.4375 C-27.3837902 80.09081038 -34.98615101 77.02985467 -40.37890625 71.8828125 C-51.20327817 59.31089138 -55.63869633 43.59174737 -55.30859375 27.203125 C-54.42907559 18.07394914 -50.41566036 10.47880662 -44 4 C-41.15374899 1.66054548 -38.23042276 -0.23486532 -35 -2 C-34.39800781 -2.3403125 -33.79601562 -2.680625 -33.17578125 -3.03125 C-22.5444538 -8.01252273 -9.80060062 -5.61723716 0 0 Z " fill="#F4DACB" transform="translate(271,177)"/>
<path d="M0 0 C2.79563775 2.49384792 4.43253404 5.25215081 6.265625 8.50390625 C6.90056885 9.62361816 7.5355127 10.74333008 8.18969727 11.89697266 C8.52494415 12.4934259 8.86019104 13.08987915 9.20559692 13.70440674 C10.62992079 16.23841553 12.06489886 18.76633761 13.4990387 21.2947998 C14.24053345 22.60249586 14.98144351 23.91052361 15.7217865 25.21887207 C19.3001283 31.54129522 22.92615012 37.83577638 26.5625 44.125 C27.78778174 46.24608143 29.01304206 48.36717524 30.23828125 50.48828125 C31.15407959 52.07310303 31.15407959 52.07310303 32.08837891 53.68994141 C34.11685142 57.20233353 36.14276619 60.71619071 38.16796875 64.23046875 C38.85798299 65.42757654 39.54800568 66.62467946 40.23803711 67.82177734 C41.54780755 70.09402972 42.85715172 72.3665259 44.16625977 74.63916016 C44.75592529 75.66187012 45.34559082 76.68458008 45.953125 77.73828125 C46.47036133 78.63587158 46.98759766 79.53346191 47.52050781 80.45825195 C48.54826225 82.2239205 49.60740082 83.97154305 50.69042969 85.70385742 C52 88 52 88 52 90 C18.01 90 -15.98 90 -51 90 C-49.57181199 85.71543596 -48.48701477 82.8089992 -46.26953125 79.078125 C-45.72176025 78.14887207 -45.17398926 77.21961914 -44.60961914 76.26220703 C-44.01656982 75.26817871 -43.42352051 74.27415039 -42.8125 73.25 C-41.53580222 71.08632451 -40.25978329 68.92224834 -38.984375 66.7578125 C-38.32501953 65.64180664 -37.66566406 64.52580078 -36.98632812 63.37597656 C-33.81074569 57.97873542 -30.68634628 52.5522968 -27.5625 47.125 C-26.94818115 46.05942871 -26.3338623 44.99385742 -25.70092773 43.89599609 C-22.77315278 38.81742823 -19.8483801 33.73714338 -16.92692566 28.65493774 C-15.90350745 26.8749866 -14.87946987 25.09539331 -13.85522461 23.31591797 C-12.57221373 21.08650663 -11.29039912 18.85640624 -10.01000977 16.62548828 C-6.77819012 11.01164661 -3.47438493 5.46723968 0 0 Z " fill="#6AF1BF" transform="translate(425,393)"/>
<path d="M0 0 C2.875 2.0625 2.875 2.0625 5 5 C5.72064029 11.22727203 3.80198522 15.67951187 1.375 21.25 C-5.37111902 37.47181238 -10.07888751 53.67415152 -13 71 C-13.226875 72.28003906 -13.45375 73.56007813 -13.6875 74.87890625 C-19.99961064 117.61715539 -12.50857566 164.22507092 7.56201172 202.46069336 C9.77488923 206.82234739 10.53380023 210.12462457 10 215 C7.54999553 218.38677089 6.13607554 219.78698584 2 220.5625 C-1.86524668 219.83776625 -3.17259497 218.76410492 -6 216 C-7.89117276 212.95340356 -9.38393562 209.75770599 -10.875 206.5 C-11.30772217 205.57018311 -11.74044434 204.64036621 -12.1862793 203.68237305 C-16.44940671 194.33382516 -19.92221918 184.79605601 -23 175 C-23.23557617 174.26249512 -23.47115234 173.52499023 -23.71386719 172.76513672 C-40.25366038 120.20823326 -35.56064664 61.60026687 -14.4375 11.125 C-14.03446655 10.13391235 -14.03446655 10.13391235 -13.62329102 9.12280273 C-10.89669636 2.8811316 -7.1554105 -1.34163947 0 0 Z " fill="#000000" transform="translate(49,151)"/>
<path d="M0 0 C4.56539357 4.33080813 6.05020287 10.04591494 7.9375 15.875 C8.45799927 17.47142334 8.45799927 17.47142334 8.98901367 19.10009766 C27.57073326 77.60594435 23.09570057 141.93243827 -3.96289062 197.10302734 C-5.75855924 200.3874777 -7.60989748 203.30494874 -11 205 C-14.61726636 205.40191848 -16.59782296 205.20108852 -19.875 203.5625 C-22.5853228 200.29416957 -22.42564503 198.55575528 -22.32080078 194.44165039 C-21.77928278 190.32009671 -19.95223135 187.05940291 -18 183.4375 C5.381292 136.91170033 8.73355002 78.60225822 -6.91064453 29.11962891 C-8.1524955 25.38405604 -9.41115731 21.65868008 -10.76464844 17.96191406 C-12.48982596 13.14252247 -13.47968501 9.20324991 -13 4 C-9.89369864 -1.62092626 -5.85907194 -1.4390703 0 0 Z " fill="#000000" transform="translate(467,164)"/>
<path d="M0 0 C0.89759033 0.31614258 1.79518066 0.63228516 2.7199707 0.95800781 C16.71251479 6.11252958 16.71251479 6.11252958 19.125 10.9375 C19.69318182 17.07386364 19.69318182 17.07386364 17.5625 20.3125 C14.44618614 22.39004257 11.82219503 23.08526891 8.125 22.9375 C4.46751566 21.90208566 1.04511919 20.38735255 -2.4375 18.875 C-55.00730315 -2.70553731 -113.12892225 -1.44654419 -165.875 18.9375 C-166.60025879 19.30085449 -167.32551758 19.66420898 -168.07275391 20.03857422 C-171.49846345 21.74725243 -175.16465927 21.59106461 -178.875 20.9375 C-182.18004612 18.27734093 -182.75772732 16.59422698 -183.5 12.4375 C-182.80161032 8.52651781 -181.77336035 7.52833849 -178.71679688 5.14208984 C-175.46340494 3.01427492 -171.97032344 1.7674421 -168.3125 0.5 C-167.07173706 0.05950317 -167.07173706 0.05950317 -165.8059082 -0.38989258 C-111.20973387 -19.41482342 -54.56963842 -19.36061351 0 0 Z " fill="#000000" transform="translate(334.875,35.0625)"/>
<path d="M0 0 C3.63525215 2.60789828 4.83397068 4.0702358 5.625 8.5 C5.00524398 11.97063374 4.38545467 13.35613216 1.8515625 15.72851562 C-2.38743885 18.63947541 -7.45591042 19.95098566 -12.3125 21.5 C-13.50713867 21.88873291 -14.70177734 22.27746582 -15.93261719 22.67797852 C-27.463927 26.32702114 -39.09047567 28.94369582 -51 31 C-51.69416016 31.12455566 -52.38832031 31.24911133 -53.10351562 31.37744141 C-89.55185324 37.76441646 -138.27490048 35.55595794 -172 19 C-174.64440782 16.23280044 -175.86834962 14.78990227 -176.5 11 C-175.84823663 7.08941981 -175.06862356 5.54471222 -172 3 C-164.62579149 2.37395663 -158.72766033 4.004702 -151.75 6.25 C-104.93332392 20.49590197 -54.50267738 19.01981426 -8.875 0.8828125 C-5.71548035 -0.08736609 -3.28633092 -0.30666319 0 0 Z " fill="#000000" transform="translate(340,458)"/>
<path d="M0 0 C3.5194892 2.70023643 4.85557909 4.19429483 5.64697266 8.609375 C5.6797152 9.98920666 5.68395375 11.36992325 5.6640625 12.75 C5.66884613 13.48573242 5.67362976 14.22146484 5.67855835 14.97949219 C5.6819488 16.52931873 5.67280592 18.07921761 5.65185547 19.62890625 C5.62507002 21.99381786 5.65162417 24.35398502 5.68359375 26.71875 C5.68028949 28.22917708 5.6738829 29.73960123 5.6640625 31.25 C5.67418365 31.9522168 5.68430481 32.65443359 5.69473267 33.37792969 C5.60359115 37.21880227 5.06818589 38.91247396 2.68115234 41.9765625 C0 44 0 44 -3.5625 44.125 C-7.69924759 42.77115534 -8.70454945 41.64852901 -11 38 C-11.50170898 34.57421875 -11.50170898 34.57421875 -11.49609375 30.6875 C-11.49754898 29.99615967 -11.49900421 29.30481934 -11.50050354 28.5925293 C-11.49885009 27.13683846 -11.48735082 25.68112913 -11.46655273 24.22558594 C-11.43758355 22.00640067 -11.44595574 19.7896059 -11.45898438 17.5703125 C-11.4058785 5.48774579 -11.4058785 5.48774579 -8 1 C-5.11138291 -0.44430855 -3.20352299 -0.37688506 0 0 Z " fill="#020405" transform="translate(303,312)"/>
<path d="M0 0 C2.64990234 1.5234375 2.64990234 1.5234375 5 4 C5.50885528 6.90642777 5.70303052 9.22097095 5.6640625 12.125 C5.66884613 12.90891113 5.67362976 13.69282227 5.67855835 14.50048828 C5.68195442 16.15464286 5.67277214 17.80886481 5.65185547 19.46289062 C5.62508034 21.9924101 5.6516074 24.51749324 5.68359375 27.046875 C5.68028959 28.65625978 5.67388322 30.2656418 5.6640625 31.875 C5.67418365 32.6292627 5.68430481 33.38352539 5.69473267 34.16064453 C5.60992467 37.96784604 5.30244524 39.67184596 2.68505859 42.51171875 C-0.98014996 44.54328006 -3.02219374 44.10494618 -7 43 C-8.68383789 41.94311523 -8.68383789 41.94311523 -10 40 C-10.31047759 37.24772402 -10.44423763 34.72613491 -10.43359375 31.97265625 C-10.4388356 31.18733017 -10.44407745 30.40200409 -10.44947815 29.59288025 C-10.45589822 27.9327818 -10.4545615 26.27263785 -10.44604492 24.61254883 C-10.43754141 22.07485725 -10.46628235 19.53942186 -10.49804688 17.00195312 C-10.49965919 15.38802151 -10.49908077 13.77408591 -10.49609375 12.16015625 C-10.50732773 11.4027565 -10.51856171 10.64535675 -10.53013611 9.86500549 C-10.48385802 6.35867614 -10.27496471 4.36893309 -8.15258789 1.52124023 C-5.19169324 -0.57123278 -3.55573222 -0.58052771 0 0 Z " fill="#000101" transform="translate(205,312)"/>
</svg>
