<svg id="svg" version="1.1" xmlns="http://www.w3.org/2000/svg" xmlns:xlink="http://www.w3.org/1999/xlink" width="400" height="400" viewBox="0, 0, 400,400"><g id="svgg"><path id="path0" d="M76.400 196.013 C 76.400 196.226,75.828 196.400,75.128 196.400 C 73.940 196.400,71.248 197.145,70.800 197.598 C 70.312 198.091,68.000 199.217,68.000 198.961 C 68.000 198.805,67.664 199.065,67.253 199.539 C 66.842 200.012,66.347 200.402,66.153 200.404 C 65.959 200.406,65.170 201.152,64.400 202.061 C 63.630 202.970,62.603 204.138,62.118 204.657 C 61.633 205.176,61.323 205.600,61.428 205.600 C 61.739 205.600,60.331 208.172,59.844 208.494 C 59.600 208.656,59.540 208.791,59.710 208.794 C 59.881 208.797,59.756 209.312,59.432 209.939 C 59.108 210.565,58.914 211.640,59.001 212.328 C 59.088 213.015,58.988 213.684,58.780 213.813 C 58.296 214.112,58.261 342.400,58.745 342.400 C 58.934 342.400,59.007 342.827,58.908 343.349 C 58.808 343.870,59.018 344.860,59.373 345.549 C 59.729 346.237,59.890 346.800,59.730 346.800 C 59.571 346.800,59.656 347.016,59.920 347.280 C 60.184 347.544,60.400 348.084,60.400 348.480 C 60.400 348.876,60.580 349.200,60.800 349.200 C 61.020 349.200,61.200 349.481,61.200 349.824 C 61.200 350.167,61.350 350.355,61.532 350.242 C 61.715 350.129,62.092 350.613,62.369 351.318 C 62.646 352.023,63.416 353.050,64.080 353.600 C 64.744 354.150,65.673 354.980,66.144 355.444 C 66.615 355.909,67.405 356.416,67.900 356.571 C 68.395 356.727,68.800 357.016,68.800 357.214 C 68.800 357.413,69.070 357.471,69.400 357.345 C 69.730 357.218,70.000 357.314,70.000 357.557 C 70.000 357.801,70.349 358.000,70.776 358.000 C 71.203 358.000,71.664 358.180,71.800 358.400 C 71.936 358.620,72.566 358.800,73.200 358.800 C 73.834 358.800,74.464 358.980,74.600 359.200 C 74.762 359.462,86.729 359.600,109.197 359.600 C 143.277 359.600,143.548 359.606,143.802 360.406 C 143.943 360.849,144.194 361.127,144.361 361.024 C 144.528 360.921,144.906 361.450,145.200 362.200 C 145.494 362.950,145.885 363.471,146.068 363.358 C 146.250 363.245,146.400 363.352,146.400 363.595 C 146.400 363.838,146.836 364.472,147.369 365.005 C 147.902 365.538,148.454 366.340,148.596 366.787 C 148.738 367.234,149.022 367.600,149.227 367.600 C 149.432 367.600,149.600 367.864,149.600 368.186 C 149.600 368.508,149.960 368.965,150.400 369.200 C 150.840 369.435,151.200 369.892,151.200 370.214 C 151.200 370.536,151.358 370.800,151.551 370.800 C 151.745 370.800,152.126 371.338,152.398 371.995 C 152.670 372.652,153.025 373.108,153.186 373.009 C 153.347 372.909,153.730 373.316,154.037 373.914 C 154.344 374.511,154.911 375.291,155.297 375.647 C 155.684 376.003,156.001 376.453,156.002 376.647 C 156.003 376.841,156.543 377.575,157.202 378.278 C 157.861 378.981,158.400 379.754,158.400 379.995 C 158.400 380.433,158.685 380.835,160.200 382.537 C 160.640 383.032,161.060 383.698,161.132 384.018 C 161.205 384.338,161.514 384.741,161.820 384.913 C 162.125 385.085,162.674 385.856,163.040 386.627 C 163.405 387.398,163.800 387.933,163.917 387.816 C 164.034 387.699,164.735 388.503,165.476 389.602 C 166.216 390.701,166.996 391.600,167.211 391.600 C 167.425 391.600,167.600 391.920,167.600 392.312 C 167.600 392.703,167.960 393.283,168.400 393.600 C 168.840 393.917,169.200 394.507,169.200 394.912 C 169.200 395.316,169.380 395.536,169.600 395.400 C 169.820 395.264,170.000 395.414,170.000 395.734 C 170.000 396.053,170.261 396.414,170.579 396.537 C 170.898 396.659,171.463 397.353,171.835 398.079 C 172.841 400.043,174.918 400.801,175.455 399.400 C 175.582 399.070,175.947 398.800,176.266 398.800 C 176.586 398.800,176.743 398.632,176.616 398.426 C 176.489 398.220,176.838 397.598,177.392 397.044 C 177.947 396.490,178.400 395.838,178.400 395.595 C 178.400 395.352,178.608 395.281,178.862 395.438 C 179.138 395.609,179.215 395.549,179.054 395.288 C 178.906 395.048,179.238 394.398,179.792 393.844 C 180.347 393.290,180.800 392.684,180.800 392.499 C 180.800 392.313,181.509 391.424,182.375 390.522 C 183.241 389.621,183.862 388.795,183.754 388.687 C 183.646 388.579,183.987 388.154,184.511 387.742 C 185.035 387.329,185.381 386.744,185.280 386.440 C 185.169 386.106,185.275 385.999,185.549 386.168 C 185.818 386.335,186.161 386.029,186.395 385.414 C 186.611 384.845,187.048 384.280,187.366 384.158 C 187.684 384.036,188.127 383.410,188.351 382.768 C 188.575 382.126,188.978 381.600,189.246 381.600 C 189.514 381.600,189.621 381.488,189.484 381.350 C 189.346 381.213,189.579 380.808,190.000 380.450 C 190.421 380.093,190.819 379.532,190.883 379.204 C 190.947 378.876,191.495 378.129,192.100 377.543 C 192.705 376.958,193.200 376.263,193.200 376.000 C 193.200 375.737,193.740 375.017,194.400 374.400 C 195.060 373.783,195.600 373.170,195.600 373.036 C 195.600 372.902,196.140 372.228,196.800 371.537 C 197.460 370.846,198.000 370.048,198.000 369.763 C 198.000 369.478,198.400 368.965,198.889 368.623 C 199.378 368.280,199.603 367.995,199.389 367.988 C 199.175 367.981,199.315 367.792,199.700 367.568 C 200.085 367.344,200.400 366.979,200.400 366.758 C 200.400 366.537,200.939 365.781,201.598 365.078 C 202.257 364.375,202.797 363.607,202.798 363.372 C 202.799 363.137,203.250 362.553,203.800 362.075 C 204.350 361.597,204.800 361.024,204.800 360.803 C 204.800 360.536,216.635 360.400,239.967 360.400 C 262.851 360.400,275.180 360.261,275.267 360.003 C 275.340 359.785,275.895 359.566,276.500 359.516 C 277.105 359.466,277.600 359.285,277.600 359.113 C 277.600 358.941,277.836 358.800,278.125 358.800 C 278.738 358.800,281.853 357.339,282.679 356.664 C 284.550 355.135,286.789 352.706,286.604 352.406 C 286.484 352.213,286.790 351.772,287.282 351.427 C 287.775 351.082,288.035 350.800,287.860 350.800 C 287.686 350.800,287.803 350.540,288.121 350.222 C 288.439 349.904,288.941 348.824,289.237 347.822 C 289.533 346.820,289.891 346.000,290.033 346.000 C 290.175 346.000,290.264 345.595,290.232 345.100 C 290.199 344.605,290.404 343.406,290.686 342.436 C 291.095 341.034,291.200 327.952,291.200 278.603 C 291.200 215.319,291.127 212.000,289.732 212.000 C 289.426 212.000,289.074 211.685,288.951 211.300 C 286.771 204.480,282.581 200.060,276.354 198.016 C 273.903 197.212,273.133 197.200,222.167 197.200 C 170.176 197.200,169.200 197.181,169.200 196.151 C 169.200 195.670,162.442 195.591,122.800 195.606 C 93.146 195.618,76.400 195.765,76.400 196.013 M117.600 256.619 C 118.590 256.764,119.571 257.044,119.780 257.241 C 119.989 257.438,120.574 257.600,121.080 257.600 C 121.586 257.600,122.000 257.780,122.000 258.000 C 122.000 258.220,122.360 258.400,122.800 258.400 C 123.240 258.400,123.600 258.580,123.600 258.800 C 123.600 259.020,123.960 259.200,124.400 259.200 C 124.840 259.200,125.208 259.335,125.219 259.500 C 125.229 259.665,126.084 260.406,127.119 261.147 C 143.439 272.836,134.554 299.386,114.019 300.292 C 109.397 300.496,107.741 300.122,102.424 297.671 C 99.053 296.117,94.644 290.765,92.479 285.600 C 90.858 281.730,91.091 273.707,92.932 270.016 C 93.299 269.280,93.600 268.435,93.600 268.139 C 93.600 267.842,93.736 267.600,93.902 267.600 C 94.069 267.600,94.429 267.092,94.704 266.472 C 96.077 263.370,103.450 257.600,106.041 257.600 C 106.458 257.600,106.800 257.420,106.800 257.200 C 106.800 256.980,107.475 256.797,108.300 256.794 C 109.125 256.791,110.070 256.606,110.400 256.383 C 110.984 255.989,113.954 256.086,117.600 256.619 M179.503 256.618 C 180.439 256.765,181.305 257.045,181.426 257.242 C 181.548 257.439,181.980 257.600,182.386 257.600 C 183.057 257.600,186.319 259.092,186.800 259.619 C 186.910 259.740,187.630 260.273,188.400 260.804 C 190.301 262.114,193.200 265.235,193.200 265.971 C 193.200 266.170,193.335 266.393,193.500 266.467 C 194.028 266.701,196.129 271.346,196.636 273.400 C 197.020 274.953,197.020 281.847,196.636 283.400 C 196.086 285.628,194.948 288.112,193.430 290.400 C 184.597 303.714,165.370 303.714,156.566 290.400 C 153.800 286.217,153.068 283.706,153.068 278.400 C 153.068 273.601,153.211 272.968,155.342 268.400 C 157.572 263.620,164.398 257.600,167.589 257.600 C 168.009 257.600,168.464 257.420,168.600 257.200 C 168.736 256.980,169.422 256.797,170.124 256.794 C 170.826 256.791,171.670 256.606,172.000 256.383 C 172.591 255.985,176.168 256.097,179.503 256.618 M240.303 256.618 C 241.239 256.765,242.105 257.045,242.226 257.242 C 242.348 257.439,242.778 257.600,243.183 257.600 C 246.309 257.600,252.995 263.355,255.209 267.953 C 255.910 269.409,256.645 270.913,256.842 271.295 C 257.039 271.677,257.200 272.496,257.200 273.115 C 257.200 273.734,257.394 274.434,257.631 274.671 C 258.321 275.361,257.739 283.117,256.825 285.400 C 247.750 308.087,215.923 303.947,213.774 279.800 C 213.068 271.861,219.271 260.525,225.008 259.271 C 225.334 259.200,225.600 258.975,225.600 258.771 C 225.600 258.567,225.960 258.400,226.400 258.400 C 226.840 258.400,227.200 258.220,227.200 258.000 C 227.200 257.780,227.639 257.600,228.176 257.600 C 228.713 257.600,229.264 257.420,229.400 257.200 C 229.536 256.980,230.222 256.797,230.924 256.794 C 231.626 256.791,232.470 256.606,232.800 256.383 C 233.391 255.985,236.968 256.097,240.303 256.618 " stroke="none" fill="#64c4bb" fill-rule="evenodd"></path><path id="path1" d="M231.455 48.600 C 231.254 49.124,228.338 49.200,208.559 49.200 C 184.434 49.200,184.449 49.199,180.166 51.246 C 176.455 53.020,171.200 58.357,171.200 60.351 C 171.200 60.568,170.816 60.868,170.347 61.017 C 169.733 61.212,169.636 61.375,170.001 61.601 C 170.409 61.853,170.403 62.178,169.970 63.257 C 169.555 64.294,169.400 68.781,169.291 82.940 L 169.149 101.280 168.274 101.068 L 167.400 100.857 168.300 101.477 L 169.200 102.098 169.200 132.625 C 169.200 152.545,169.061 163.239,168.800 163.400 C 167.860 163.981,168.301 195.220,169.261 196.053 C 170.093 196.774,171.930 196.800,222.202 196.800 C 258.601 196.800,274.690 196.931,275.640 197.235 C 282.063 199.289,287.591 204.801,289.168 210.723 C 289.444 211.760,289.570 211.804,292.528 211.917 C 294.217 211.981,295.600 212.178,295.600 212.354 C 295.600 212.530,296.455 213.108,297.500 213.637 C 298.545 214.167,299.460 214.735,299.533 214.900 C 299.607 215.065,300.012 215.200,300.433 215.200 C 300.855 215.200,301.200 215.380,301.200 215.600 C 301.200 215.820,301.434 216.000,301.720 216.000 C 302.456 216.000,304.393 216.941,304.397 217.300 C 304.399 217.465,304.760 217.600,305.200 217.600 C 305.640 217.600,306.000 217.780,306.000 218.000 C 306.000 218.220,306.345 218.400,306.767 218.400 C 307.188 218.400,307.593 218.535,307.667 218.700 C 307.740 218.865,308.700 219.448,309.800 219.995 C 310.900 220.542,311.890 221.082,312.000 221.195 C 312.426 221.632,319.827 225.207,320.300 225.204 C 320.575 225.202,320.800 225.380,320.800 225.600 C 320.800 225.820,321.160 226.000,321.600 226.000 C 322.040 226.000,322.400 226.180,322.400 226.400 C 322.400 226.620,322.760 226.800,323.200 226.800 C 323.640 226.800,324.000 226.980,324.000 227.200 C 324.000 227.420,324.360 227.600,324.800 227.600 C 325.240 227.600,325.600 227.780,325.600 228.000 C 325.600 228.220,325.870 228.400,326.200 228.400 C 326.530 228.400,326.800 228.580,326.800 228.800 C 326.800 229.020,327.160 229.200,327.600 229.200 C 328.040 229.200,328.400 229.380,328.400 229.600 C 328.400 229.820,328.760 230.000,329.200 230.000 C 329.640 230.000,330.001 230.135,330.003 230.300 C 330.006 230.611,331.903 231.600,332.496 231.600 C 332.682 231.600,333.220 231.960,333.692 232.400 C 334.164 232.840,334.787 233.200,335.075 233.200 C 335.364 233.200,335.600 233.380,335.600 233.600 C 335.600 233.820,335.960 234.000,336.400 234.000 C 336.840 234.000,337.200 234.180,337.200 234.400 C 337.200 234.620,337.434 234.800,337.720 234.800 C 338.456 234.800,340.393 235.741,340.397 236.100 C 340.399 236.265,340.745 236.400,341.167 236.400 C 341.588 236.400,341.993 236.535,342.067 236.700 C 342.262 237.138,351.186 241.600,351.868 241.600 C 352.187 241.600,352.336 241.780,352.200 242.000 C 352.064 242.220,352.198 242.400,352.497 242.400 C 353.251 242.400,355.193 243.335,355.197 243.700 C 355.199 243.865,355.560 244.000,356.000 244.000 C 356.440 244.000,356.800 244.180,356.800 244.400 C 356.800 244.620,357.160 244.800,357.600 244.800 C 358.040 244.800,358.400 244.946,358.400 245.125 C 358.400 245.304,359.030 245.698,359.800 246.000 C 360.570 246.302,361.200 246.696,361.200 246.875 C 361.200 247.054,361.560 247.200,362.000 247.200 C 362.440 247.200,362.800 247.380,362.800 247.600 C 362.800 247.820,363.160 248.000,363.600 248.000 C 364.040 248.000,364.400 248.180,364.400 248.400 C 364.400 248.620,364.760 248.800,365.200 248.800 C 365.640 248.800,366.000 248.980,366.000 249.200 C 366.000 249.420,366.360 249.600,366.800 249.600 C 367.240 249.600,367.600 249.780,367.600 250.000 C 367.600 250.220,367.960 250.400,368.400 250.400 C 368.840 250.400,369.200 250.580,369.200 250.800 C 369.200 251.020,369.470 251.200,369.800 251.200 C 370.130 251.200,370.400 251.380,370.400 251.600 C 370.400 251.820,370.760 252.000,371.200 252.000 C 371.640 252.000,372.000 252.180,372.000 252.400 C 372.000 252.620,372.270 252.800,372.600 252.800 C 372.930 252.800,373.200 252.980,373.200 253.200 C 373.200 253.902,374.190 253.431,374.460 252.600 C 374.603 252.160,374.738 242.845,374.760 231.900 L 374.800 212.000 380.200 212.000 C 383.533 212.000,385.600 211.847,385.600 211.600 C 385.600 211.380,386.140 211.200,386.800 211.200 C 387.460 211.200,388.000 211.020,388.000 210.800 C 388.000 210.580,388.360 210.400,388.800 210.400 C 389.240 210.400,389.600 210.264,389.600 210.098 C 389.600 209.931,390.173 209.542,390.872 209.232 C 392.898 208.335,397.200 204.327,397.200 203.336 C 397.200 203.041,397.335 202.799,397.500 202.797 C 397.851 202.793,398.800 200.863,398.800 200.154 C 398.800 199.886,399.025 199.592,399.300 199.500 C 400.119 199.227,400.023 62.686,399.202 60.900 C 398.874 60.185,398.469 59.600,398.302 59.600 C 398.136 59.600,398.000 59.330,398.000 59.000 C 398.000 58.670,397.820 58.400,397.600 58.400 C 397.380 58.400,397.200 58.127,397.200 57.793 C 397.200 57.051,392.608 52.419,391.093 51.632 C 390.492 51.320,390.000 50.915,390.000 50.732 C 390.000 50.550,389.550 50.400,389.000 50.400 C 388.450 50.400,388.000 50.220,388.000 50.000 C 388.000 49.780,387.651 49.600,387.224 49.600 C 386.797 49.600,386.336 49.420,386.200 49.200 C 386.064 48.980,384.894 48.800,383.600 48.800 C 382.306 48.800,381.136 48.620,381.000 48.400 C 380.547 47.667,231.737 47.866,231.455 48.600 M38.400 66.600 C 37.428 67.590,36.723 68.400,36.833 68.400 C 36.943 68.400,37.828 67.590,38.800 66.600 C 39.772 65.610,40.477 64.800,40.367 64.800 C 40.257 64.800,39.372 65.610,38.400 66.600 M69.400 66.400 C 70.259 67.280,71.052 68.000,71.162 68.000 C 71.272 68.000,70.659 67.280,69.800 66.400 C 68.941 65.520,68.148 64.800,68.038 64.800 C 67.928 64.800,68.541 65.520,69.400 66.400 M100.378 66.300 L 99.000 67.800 100.500 66.422 C 101.896 65.138,102.184 64.800,101.878 64.800 C 101.812 64.800,101.137 65.475,100.378 66.300 M131.000 66.400 C 131.859 67.280,132.652 68.000,132.762 68.000 C 132.872 68.000,132.259 67.280,131.400 66.400 C 130.541 65.520,129.748 64.800,129.638 64.800 C 129.528 64.800,130.141 65.520,131.000 66.400 M75.737 81.800 C 75.739 83.560,75.809 84.230,75.893 83.289 C 75.978 82.349,75.977 80.909,75.891 80.089 C 75.805 79.270,75.736 80.040,75.737 81.800 M32.531 81.800 C 32.533 83.340,32.605 83.921,32.692 83.091 C 32.779 82.261,32.777 81.001,32.689 80.291 C 32.600 79.581,32.529 80.260,32.531 81.800 M94.124 81.800 C 94.126 83.120,94.201 83.612,94.290 82.893 C 94.379 82.174,94.377 81.094,94.286 80.493 C 94.195 79.892,94.122 80.480,94.124 81.800 M155.720 81.600 C 155.720 82.810,155.795 83.305,155.887 82.700 C 155.978 82.095,155.978 81.105,155.887 80.500 C 155.795 79.895,155.720 80.390,155.720 81.600 M69.200 97.000 C 68.228 97.990,67.523 98.800,67.633 98.800 C 67.743 98.800,68.628 97.990,69.600 97.000 C 70.572 96.010,71.277 95.200,71.167 95.200 C 71.057 95.200,70.172 96.010,69.200 97.000 M162.000 97.000 C 162.746 97.770,163.447 98.400,163.557 98.400 C 163.667 98.400,163.146 97.770,162.400 97.000 C 161.654 96.230,160.953 95.600,160.843 95.600 C 160.733 95.600,161.254 96.230,162.000 97.000 M226.880 109.645 C 244.444 113.333,250.056 135.911,236.285 147.481 C 223.886 157.899,204.461 150.938,201.201 134.907 C 198.192 120.114,212.009 106.522,226.880 109.645 M289.342 109.834 C 311.036 115.431,311.053 146.177,289.366 151.826 C 276.199 155.255,262.336 144.543,262.416 131.000 C 262.499 116.965,275.962 106.382,289.342 109.834 M351.683 110.046 C 369.238 114.783,373.074 138.849,357.855 148.764 C 343.229 158.294,324.305 148.161,324.305 130.800 C 324.305 116.435,337.708 106.276,351.683 110.046 " stroke="none" fill="#fbd45c" fill-rule="evenodd"></path><path id="path2" d="M48.945 60.793 C 34.296 64.633,27.994 81.479,36.524 93.998 C 46.728 108.972,70.328 104.772,75.019 87.148 C 79.179 71.517,64.527 56.707,48.945 60.793 M111.200 60.625 C 89.144 65.388,88.785 96.794,110.720 102.636 C 126.580 106.859,142.262 89.820,136.310 74.830 C 131.980 63.924,122.018 58.289,111.200 60.625 M168.209 62.124 C 156.704 69.058,152.925 80.018,158.204 91.141 C 160.230 95.410,166.320 101.200,168.784 101.200 C 169.065 101.200,169.201 95.792,169.202 84.500 C 169.204 69.473,169.395 65.399,170.233 62.500 C 170.531 61.468,169.588 61.293,168.209 62.124 M217.400 109.766 C 201.085 113.823,195.360 134.163,207.201 146.000 C 220.903 159.698,244.000 150.158,244.000 130.800 C 244.000 116.914,230.759 106.443,217.400 109.766 M278.329 110.019 C 263.287 114.312,257.674 131.749,267.291 144.304 C 276.137 155.850,294.375 154.906,302.343 142.489 C 312.953 125.954,297.188 104.637,278.329 110.019 M340.200 109.961 C 315.433 117.225,321.329 153.689,347.048 152.313 C 368.066 151.188,374.998 123.935,357.193 112.427 C 352.592 109.453,345.460 108.418,340.200 109.961 M109.200 257.178 C 92.037 260.391,85.929 282.651,99.012 294.307 C 109.574 303.717,126.400 300.637,132.372 288.200 C 134.470 283.832,134.601 283.234,134.576 278.200 C 134.507 264.549,122.585 254.672,109.200 257.178 M171.000 257.162 C 152.162 260.885,147.182 285.841,163.200 296.254 C 178.758 306.369,198.781 293.708,196.181 275.400 C 194.461 263.294,182.781 254.834,171.000 257.162 M232.400 257.057 C 208.478 261.895,208.416 294.776,232.320 299.575 C 246.861 302.493,260.201 288.108,256.768 273.211 C 254.398 262.923,242.476 255.020,232.400 257.057 " stroke="none" fill="#fbfbfa" fill-rule="evenodd"></path><path id="path3" d="M13.100 0.287 C 12.495 0.378,12.000 0.621,12.000 0.827 C 12.000 1.032,11.685 1.204,11.300 1.209 C 10.915 1.214,10.150 1.570,9.600 2.000 C 9.050 2.430,8.462 2.786,8.293 2.791 C 7.891 2.803,2.803 7.891,2.791 8.293 C 2.786 8.462,2.430 9.050,2.000 9.600 C 1.570 10.150,1.214 10.900,1.209 11.267 C 1.204 11.633,0.975 12.008,0.700 12.100 C -0.035 12.345,-0.035 150.855,0.700 151.100 C 0.975 151.192,1.200 151.702,1.200 152.233 C 1.200 152.765,1.380 153.200,1.600 153.200 C 1.820 153.200,2.000 153.470,2.000 153.800 C 2.000 154.130,2.180 154.400,2.400 154.400 C 2.620 154.400,2.800 154.644,2.800 154.941 C 2.800 155.239,3.295 155.959,3.900 156.541 C 7.213 159.729,8.031 160.400,8.610 160.400 C 8.961 160.400,9.136 160.580,9.000 160.800 C 8.864 161.020,9.033 161.200,9.376 161.200 C 9.719 161.200,10.000 161.380,10.000 161.600 C 10.000 161.820,10.360 162.000,10.800 162.000 C 11.240 162.000,11.600 162.180,11.600 162.400 C 11.600 162.620,12.140 162.800,12.800 162.800 C 13.460 162.800,14.000 162.980,14.000 163.200 C 14.000 163.426,15.133 163.600,16.600 163.600 C 18.067 163.600,19.200 163.774,19.200 164.000 C 19.200 164.235,20.600 164.400,22.600 164.400 L 26.000 164.400 26.000 184.557 C 26.000 204.874,26.137 206.843,27.411 204.783 C 27.541 204.572,27.997 204.400,28.424 204.400 C 28.851 204.400,29.201 204.265,29.203 204.100 C 29.207 203.741,31.144 202.800,31.880 202.800 C 32.166 202.800,32.400 202.620,32.400 202.400 C 32.400 202.180,32.678 202.000,33.017 202.000 C 33.356 202.000,34.020 201.640,34.492 201.200 C 34.964 200.760,35.632 200.396,35.975 200.391 C 36.319 200.386,37.050 200.030,37.600 199.600 C 38.150 199.170,38.825 198.814,39.100 198.809 C 39.375 198.804,39.600 198.620,39.600 198.400 C 39.600 198.180,39.971 198.000,40.424 198.000 C 40.877 198.000,41.136 197.820,41.000 197.600 C 40.864 197.380,41.123 197.200,41.576 197.200 C 42.029 197.200,42.400 197.020,42.400 196.800 C 42.400 196.580,42.760 196.400,43.200 196.400 C 43.640 196.400,44.000 196.220,44.000 196.000 C 44.000 195.780,44.360 195.600,44.800 195.600 C 45.240 195.600,45.600 195.420,45.600 195.200 C 45.600 194.980,45.960 194.800,46.400 194.800 C 46.840 194.800,47.201 194.665,47.203 194.500 C 47.207 194.141,49.144 193.200,49.880 193.200 C 50.166 193.200,50.401 193.065,50.403 192.900 C 50.407 192.549,52.337 191.600,53.046 191.600 C 53.314 191.600,53.593 191.465,53.667 191.300 C 53.740 191.135,54.880 190.480,56.200 189.845 C 57.520 189.209,58.690 188.579,58.800 188.445 C 59.187 187.972,60.796 187.200,61.395 187.200 C 61.728 187.200,62.000 187.020,62.000 186.800 C 62.000 186.580,62.360 186.400,62.800 186.400 C 63.240 186.400,63.600 186.220,63.600 186.000 C 63.600 185.780,63.960 185.600,64.400 185.600 C 64.840 185.600,65.200 185.420,65.200 185.200 C 65.200 184.980,65.560 184.800,66.000 184.800 C 66.440 184.800,66.801 184.665,66.803 184.500 C 66.807 184.141,68.744 183.200,69.480 183.200 C 69.766 183.200,70.000 183.020,70.000 182.800 C 70.000 182.580,70.270 182.400,70.600 182.400 C 70.930 182.400,71.201 182.265,71.203 182.100 C 71.207 181.741,73.144 180.800,73.880 180.800 C 74.166 180.800,74.400 180.620,74.400 180.400 C 74.400 180.180,74.678 180.000,75.017 180.000 C 75.356 180.000,76.020 179.640,76.492 179.200 C 76.964 178.760,77.587 178.400,77.875 178.400 C 78.164 178.400,78.400 178.220,78.400 178.000 C 78.400 177.780,78.760 177.600,79.200 177.600 C 79.640 177.600,80.000 177.420,80.000 177.200 C 80.000 176.980,80.360 176.800,80.800 176.800 C 81.240 176.800,81.600 176.620,81.600 176.400 C 81.600 176.180,81.960 176.000,82.400 176.000 C 82.840 176.000,83.200 175.820,83.200 175.600 C 83.200 175.380,83.560 175.200,84.000 175.200 C 84.440 175.200,84.800 174.990,84.800 174.733 C 84.800 174.477,84.908 174.374,85.039 174.506 C 85.171 174.638,87.376 173.648,89.939 172.307 C 92.503 170.966,95.004 169.674,95.497 169.435 C 95.990 169.196,96.395 168.865,96.397 168.700 C 96.399 168.535,96.760 168.400,97.200 168.400 C 97.640 168.400,98.000 168.220,98.000 168.000 C 98.000 167.780,98.360 167.600,98.800 167.600 C 99.240 167.600,99.600 167.420,99.600 167.200 C 99.600 166.980,99.960 166.800,100.400 166.800 C 100.840 166.800,101.200 166.620,101.200 166.400 C 101.200 166.180,101.560 166.000,102.000 166.000 C 102.440 166.000,102.800 165.820,102.800 165.600 C 102.800 165.380,103.160 165.200,103.600 165.200 C 104.040 165.200,104.400 165.020,104.400 164.800 C 104.400 164.537,115.285 164.400,136.256 164.400 C 166.126 164.400,168.145 164.356,168.643 163.700 C 169.074 163.132,169.177 157.228,169.187 132.503 L 169.200 102.007 166.900 100.710 C 151.142 91.822,152.423 69.030,169.100 61.594 C 170.255 61.079,171.200 60.500,171.200 60.307 C 171.200 57.545,178.432 51.385,183.600 49.745 C 184.150 49.570,195.130 49.331,208.000 49.214 L 231.400 49.000 231.504 32.500 C 231.574 21.577,231.472 16.000,231.204 16.000 C 230.982 16.000,230.800 15.280,230.800 14.400 C 230.800 13.520,230.620 12.800,230.400 12.800 C 230.180 12.800,230.000 12.438,230.000 11.995 C 230.000 11.104,229.369 9.860,228.300 8.645 C 227.915 8.207,227.600 7.711,227.600 7.543 C 227.600 7.005,223.443 2.800,222.912 2.800 C 222.630 2.800,222.400 2.620,222.400 2.400 C 222.400 2.180,222.119 2.000,221.776 2.000 C 221.433 2.000,221.264 1.820,221.400 1.600 C 221.541 1.372,221.196 1.200,220.600 1.200 C 220.024 1.200,219.649 1.044,219.767 0.853 C 220.244 0.081,18.113 -0.473,13.100 0.287 M60.785 60.968 C 84.204 68.891,78.877 103.233,54.229 103.233 C 29.434 103.233,24.094 69.175,47.600 60.956 C 51.364 59.640,56.874 59.645,60.785 60.968 M122.003 60.832 C 145.753 68.629,140.853 103.221,116.002 103.196 C 92.463 103.171,85.569 71.724,106.936 61.839 C 111.373 59.786,117.557 59.373,122.003 60.832 " stroke="none" fill="#f4745c" fill-rule="evenodd"></path><path id="path4" d="M169.738 196.894 C 169.992 197.056,193.525 197.191,222.034 197.194 C 273.125 197.200,273.904 197.212,276.354 198.016 C 281.193 199.605,285.222 202.990,287.192 207.122 C 287.685 208.155,288.248 209.313,288.444 209.695 C 288.640 210.077,288.800 210.651,288.800 210.971 C 288.800 211.291,288.968 211.657,289.174 211.784 C 289.728 212.126,289.031 209.951,287.742 207.318 C 285.469 202.671,280.482 198.585,275.400 197.207 C 273.564 196.709,168.960 196.399,169.738 196.894 M110.400 256.383 C 110.070 256.606,109.125 256.791,108.300 256.794 C 107.475 256.797,106.800 256.980,106.800 257.200 C 106.800 257.420,106.458 257.600,106.041 257.600 C 103.450 257.600,96.077 263.370,94.704 266.472 C 94.429 267.092,94.069 267.600,93.902 267.600 C 93.736 267.600,93.600 267.842,93.600 268.139 C 93.600 268.435,93.299 269.280,92.932 270.016 C 91.091 273.707,90.858 281.730,92.479 285.600 C 94.644 290.765,99.053 296.117,102.424 297.671 C 107.741 300.122,109.397 300.496,114.019 300.292 C 134.554 299.386,143.439 272.836,127.119 261.147 C 126.084 260.406,125.229 259.665,125.219 259.500 C 125.208 259.335,124.840 259.200,124.400 259.200 C 123.960 259.200,123.600 259.020,123.600 258.800 C 123.600 258.580,123.240 258.400,122.800 258.400 C 122.360 258.400,122.000 258.220,122.000 258.000 C 122.000 257.780,121.586 257.600,121.080 257.600 C 120.574 257.600,119.989 257.438,119.780 257.241 C 118.982 256.487,111.289 255.783,110.400 256.383 M172.000 256.383 C 171.670 256.606,170.826 256.791,170.124 256.794 C 169.422 256.797,168.736 256.980,168.600 257.200 C 168.464 257.420,168.009 257.600,167.589 257.600 C 164.398 257.600,157.572 263.620,155.342 268.400 C 153.211 272.968,153.068 273.601,153.068 278.400 C 153.068 283.706,153.800 286.217,156.566 290.400 C 163.058 300.217,175.470 303.232,185.882 297.521 C 190.770 294.840,195.270 288.931,196.636 283.400 C 197.020 281.847,197.020 274.953,196.636 273.400 C 196.129 271.346,194.028 266.701,193.500 266.467 C 193.335 266.393,193.200 266.170,193.200 265.971 C 193.200 265.235,190.301 262.114,188.400 260.804 C 187.630 260.273,186.910 259.740,186.800 259.619 C 186.319 259.092,183.057 257.600,182.386 257.600 C 181.980 257.600,181.548 257.439,181.426 257.242 C 180.957 256.483,172.936 255.752,172.000 256.383 M232.800 256.383 C 232.470 256.606,231.626 256.791,230.924 256.794 C 230.222 256.797,229.536 256.980,229.400 257.200 C 229.264 257.420,228.713 257.600,228.176 257.600 C 227.639 257.600,227.200 257.780,227.200 258.000 C 227.200 258.220,226.840 258.400,226.400 258.400 C 225.960 258.400,225.600 258.567,225.600 258.771 C 225.600 258.975,225.334 259.200,225.008 259.271 C 219.271 260.525,213.068 271.861,213.774 279.800 C 215.923 303.947,247.750 308.087,256.825 285.400 C 257.739 283.117,258.321 275.361,257.631 274.671 C 257.394 274.434,257.200 273.734,257.200 273.115 C 257.200 272.496,257.039 271.677,256.842 271.295 C 256.645 270.913,255.910 269.409,255.209 267.953 C 252.995 263.355,246.309 257.600,243.183 257.600 C 242.778 257.600,242.348 257.439,242.226 257.242 C 241.757 256.483,233.736 255.752,232.800 256.383 M120.043 257.915 C 129.112 260.907,134.527 268.465,134.576 278.200 C 134.601 283.234,134.470 283.832,132.372 288.200 C 125.453 302.610,104.330 303.817,95.511 290.307 C 84.372 273.241,100.790 251.563,120.043 257.915 M181.529 257.805 C 191.834 261.448,197.791 271.228,196.136 281.786 C 192.373 305.804,157.715 305.606,153.820 281.544 C 151.326 266.142,167.038 252.681,181.529 257.805 M242.329 257.805 C 265.085 265.850,260.089 299.782,236.120 299.986 C 209.889 300.208,206.602 262.275,232.400 257.057 C 234.182 256.697,240.552 257.177,242.329 257.805 " stroke="none" fill="#8bd4ca" fill-rule="evenodd"></path></g></svg>