<?xml version="1.0" encoding="UTF-8"?>
<svg version="1.1" xmlns="http://www.w3.org/2000/svg" width="512" height="512">
<path d="M0 0 C10.79391866 9.80933824 16.08232501 24.07693035 16.83984375 38.42578125 C17.53604002 60.61407746 10.38794281 79.82513763 -4.484375 96.265625 C-6.4375 98.1015625 -6.4375 98.1015625 -8.4375 98.1015625 C-7.89041273 100.63900565 -7.89041273 100.63900565 -6.4375 103.1015625 C-5.591875 103.2253125 -4.74625 103.3490625 -3.875 103.4765625 C0.66764282 104.30249756 3.99614692 106.33702492 7.9375 108.6640625 C9.04158203 109.30118164 9.04158203 109.30118164 10.16796875 109.95117188 C11.97089699 110.99312391 13.76737053 112.04623104 15.5625 113.1015625 C15.5625 114.0915625 15.5625 115.0815625 15.5625 116.1015625 C16.52285156 116.21371094 17.48320312 116.32585937 18.47265625 116.44140625 C34.41141595 118.74122729 55.92876566 125.30169709 66.5625 138.1015625 C73.63028979 148.70324718 73.71644319 161.8986052 73.73046875 174.19140625 C73.73379715 175.21714249 73.73712555 176.24287872 73.74055481 177.29969788 C73.74558617 179.45020096 73.74796432 181.60071174 73.74780273 183.7512207 C73.75000977 187.0536754 73.76826092 190.35580648 73.78710938 193.65820312 C73.79003992 195.75260303 73.79202698 197.84700451 73.79296875 199.94140625 C73.80015427 200.93091782 73.80733978 201.92042938 73.81474304 202.93992615 C73.81166641 203.8517012 73.80858978 204.76347626 73.80541992 205.70288086 C73.80684494 206.50624374 73.80826996 207.30960663 73.80973816 208.13731384 C73.5625 210.1015625 73.5625 210.1015625 71.5625 212.1015625 C68.78391237 212.29934698 66.10488442 212.37076936 63.32507324 212.35552979 C62.03218234 212.36020976 62.03218234 212.36020976 60.71317244 212.36498427 C57.80806221 212.37299891 54.90315887 212.3666272 51.99804688 212.36035156 C49.92220436 212.36305989 47.8463628 212.36661992 45.77052307 212.37097168 C40.11983716 212.38011681 34.469224 212.3765427 28.81853676 212.37021351 C22.91641666 212.36516448 17.01430295 212.36984189 11.11218262 212.37298584 C1.19896318 212.3766287 -8.71422649 212.37181802 -18.62744141 212.36230469 C-30.10295576 212.35141954 -41.57839906 212.35494489 -53.05391169 212.3659575 C-62.89085071 212.37502129 -72.72776829 212.37632011 -82.56471014 212.37108016 C-88.44676218 212.36795545 -94.32878077 212.36756481 -100.21083069 212.37415314 C-105.73964339 212.37991279 -111.26836411 212.37595512 -116.79716682 212.36436462 C-118.8313742 212.36171062 -120.86558926 212.36249566 -122.89979362 212.36688995 C-125.66665951 212.37231776 -128.43322664 212.36554514 -131.20007324 212.35552979 C-132.01387341 212.35999123 -132.82767358 212.36445267 -133.66613436 212.36904931 C-139.20919993 212.32986257 -139.20919993 212.32986257 -141.4375 210.1015625 C-141.69146729 208.17095947 -141.69146729 208.17095947 -141.69628906 205.78222656 C-141.70259338 204.88658997 -141.70889771 203.99095337 -141.71539307 203.06817627 C-141.7113446 202.09434998 -141.70729614 201.12052368 -141.703125 200.1171875 C-141.70503845 199.11000671 -141.7069519 198.10282593 -141.70892334 197.06512451 C-141.71028743 194.92313387 -141.70657547 192.78113502 -141.69824219 190.63916016 C-141.68767911 187.40637823 -141.69805994 184.17416923 -141.7109375 180.94140625 C-141.73591718 146.07366159 -141.73591718 146.07366159 -131.25 134.72265625 C-121.75934916 126.23425087 -108.87144666 122.42215773 -96.9375 118.7890625 C-96.06432129 118.52222656 -95.19114258 118.25539063 -94.29150391 117.98046875 C-93.46312012 117.73554688 -92.63473633 117.490625 -91.78125 117.23828125 C-91.04068359 117.01873779 -90.30011719 116.79919434 -89.53710938 116.57299805 C-87.4375 116.1015625 -87.4375 116.1015625 -83.4375 116.1015625 C-83.34758789 115.48949951 -83.25767578 114.87743652 -83.16503906 114.24682617 C-82.23613232 111.50779814 -81.33022123 111.08966547 -78.796875 109.77734375 C-78.05566406 109.38869141 -77.31445312 109.00003906 -76.55078125 108.59960938 C-75.77089844 108.20837891 -74.99101562 107.81714844 -74.1875 107.4140625 C-73.42308594 107.01123047 -72.65867187 106.60839844 -71.87109375 106.19335938 C-68.09794834 104.24813674 -64.71007319 102.60572614 -60.4375 102.1015625 C-59.9425 100.1215625 -59.9425 100.1215625 -59.4375 98.1015625 C-60.30761719 97.7303125 -60.30761719 97.7303125 -61.1953125 97.3515625 C-72.94355017 90.80202233 -78.79032251 75.17165554 -82.4375 63.1015625 C-87.07118188 46.4635234 -85.45215918 27.61128982 -77.75 12.1640625 C-70.9110122 0.84494374 -61.18432544 -5.61035181 -48.84375 -9.7734375 C-31.95685914 -13.82629131 -13.70522817 -10.67426425 0 0 Z " fill="#020202" transform="translate(288.4375,293.8984375)"/>
<path d="M0 0 C1.03511719 0.350625 2.07023437 0.70125 3.13671875 1.0625 C25.13041802 9.3424809 42.58126777 26.45743878 52.23828125 47.734375 C61.62659097 69.81852903 62.33624152 95.05685188 53.64453125 117.5 C52.21678051 120.74593197 50.66445703 123.86952486 49 127 C48.52175781 127.92425781 48.04351562 128.84851563 47.55078125 129.80078125 C39.11033502 145.17217325 27.5122493 158.84790608 16.38085938 172.31933594 C14.51780455 174.5868871 12.69562664 176.88581347 10.875 179.1875 C7.38307167 183.56895112 3.77242657 187.84205052 0.140625 192.10742188 C-2.82772317 195.59790331 -5.74224431 199.12556103 -8.625 202.6875 C-21.63361709 218.64942475 -21.63361709 218.64942475 -26.3203125 219.34375 C-31.35446658 219.62420427 -35.03156834 219.64697059 -39 216.3125 C-40.37791609 214.91767697 -41.70598846 213.47299632 -43 212 C-43.86496094 211.01902344 -44.72992188 210.03804687 -45.62109375 209.02734375 C-48.47354756 205.73320678 -51.24249714 202.37369318 -54 199 C-54.72960937 198.113125 -55.45921875 197.22625 -56.2109375 196.3125 C-57.64689448 194.56159335 -59.07901795 192.80753754 -60.5078125 191.05078125 C-62.38893438 188.7480286 -64.27946029 186.45486358 -66.1796875 184.16796875 C-121.66945024 117.31964233 -121.66945024 117.31964233 -118 71 C-115.72615541 54.16229926 -108.2258106 38.6433264 -97 26 C-96.45988281 25.31808594 -95.91976562 24.63617188 -95.36328125 23.93359375 C-73.63255344 -2.95357794 -31.67069971 -11.20825694 0 0 Z " fill="#FD3737" transform="translate(284,10)"/>
<path d="M0 0 C17.65160598 15.58480401 30.03356325 36.30184064 31.60888672 60.31591797 C32.73324763 86.54541199 25.34559707 108.77457483 8.28515625 128.734375 C-5.99506729 143.87927262 -27.50794149 155.26244018 -48.53125 156.1796875 C-49.63082031 156.24285156 -50.73039062 156.30601562 -51.86328125 156.37109375 C-77.10712885 157.15131237 -99.69784662 148.79319139 -118.23388672 131.51757812 C-134.7515425 115.50639844 -144.27212279 93.7130135 -144.82348633 70.72290039 C-145.03003655 46.71081524 -137.1766267 24.31443345 -120.27734375 6.9296875 C-118.91802734 5.5684375 -118.91802734 5.5684375 -117.53125 4.1796875 C-116.80035156 3.4371875 -116.06945312 2.6946875 -115.31640625 1.9296875 C-84.28247765 -27.65945858 -32.22922055 -27.02766913 0 0 Z " fill="#070605" transform="translate(151.53125,199.8203125)"/>
<path d="M0 0 C1.04837036 -0.00287018 1.04837036 -0.00287018 2.11791992 -0.00579834 C3.59391643 -0.00715783 5.06992498 -0.00347782 6.54589844 0.00488281 C8.80430984 0.01558618 11.06192582 0.0049801 13.3203125 -0.0078125 C14.75521009 -0.00649086 16.19010718 -0.00392838 17.625 0 C18.93082031 0.00225586 20.23664063 0.00451172 21.58203125 0.00683594 C24.8125 0.265625 24.8125 0.265625 27.8125 2.265625 C28.22582742 4.14626475 28.62804528 6.03110537 28.93725586 7.93164062 C29.76357655 12.79601905 30.48171309 16.94641015 34.05859375 20.4921875 C37.28093972 22.01683886 39.24064117 22.50020805 42.8125 22.265625 C46.59372419 20.48900886 49.5291496 18.57237413 52.8671875 16.05859375 C55.8125 14.265625 55.8125 14.265625 58.18115234 14.36914062 C61.59778875 15.53316817 63.3134854 17.26494842 65.859375 19.81640625 C66.78621094 20.74259766 67.71304688 21.66878906 68.66796875 22.62304688 C69.14282715 23.10829834 69.61768555 23.5935498 70.10693359 24.09350586 C71.55964165 25.5752096 73.03014797 27.03731113 74.50390625 28.49804688 C82.48322785 36.54990776 82.48322785 36.54990776 82.8125 40.265625 C81.921875 42.484375 81.921875 42.484375 80.5625 44.765625 C80.12421875 45.5184375 79.6859375 46.27125 79.234375 47.046875 C77.8125 49.265625 77.8125 49.265625 76.0625 51.26171875 C74.55488108 53.19818198 74.55488108 53.19818198 75.140625 55.51953125 C75.44484375 56.28136719 75.7490625 57.04320312 76.0625 57.828125 C76.35640625 58.59253906 76.6503125 59.35695312 76.953125 60.14453125 C77.23671875 60.84449219 77.5203125 61.54445312 77.8125 62.265625 C78.1425 63.255625 78.4725 64.245625 78.8125 65.265625 C81.47962579 66.06901173 84.03100808 66.71101645 86.75 67.265625 C94.54463687 68.8638303 94.54463687 68.8638303 96.8125 72.265625 C97.2010346 76.83548266 97.14165727 81.41465452 97.12817383 85.99902344 C97.12501117 88.25765098 97.14848804 90.51497164 97.17382812 92.7734375 C97.17610094 94.20833168 97.1768047 95.64322938 97.17578125 97.078125 C97.17876221 98.38394531 97.18174316 99.68976563 97.18481445 101.03515625 C96.8125 104.265625 96.8125 104.265625 95.49072266 106.1730957 C92.8198006 107.91187606 90.00148753 108.01679463 86.875 108.453125 C81.95927816 109.28178762 81.95927816 109.28178762 78.0390625 112.05859375 C76.99548961 114.14966273 76.32569936 115.98752054 75.8125 118.265625 C75.42384766 119.47412109 75.42384766 119.47412109 75.02734375 120.70703125 C74.72814143 124.27025884 76.01709908 125.55292857 78.1875 128.328125 C82.67819263 134.13382124 82.67819263 134.13382124 82.8125 137.265625 C79.73580106 143.0970853 75.14392086 147.41675522 70.5625 152.078125 C69.72847656 152.96177734 68.89445313 153.84542969 68.03515625 154.75585938 C61.84446723 161.04859272 61.84446723 161.04859272 57.0234375 162.0625 C53.45973702 161.17807798 51.51275806 160.02419714 48.6875 157.703125 C45.46699639 154.90797649 45.46699639 154.90797649 41.4453125 154.36328125 C40.57648438 154.66105469 39.70765625 154.95882812 38.8125 155.265625 C37.60078125 155.6265625 36.3890625 155.9875 35.140625 156.359375 C31.5155855 157.98756948 31.5155855 157.98756948 30.359375 161.734375 C30.06391025 163.07188062 29.79893 164.41643207 29.5625 165.765625 C27.90632082 174.12614488 27.90632082 174.12614488 24.8125 176.265625 C21.58203125 176.65380859 21.58203125 176.65380859 17.625 176.6640625 C16.92608643 176.66693268 16.22717285 176.66980286 15.50708008 176.67276001 C14.03107899 176.67479925 12.55505079 176.66927903 11.07910156 176.65673828 C8.82034862 176.6406808 6.56338482 176.6565897 4.3046875 176.67578125 C2.86978772 176.67379879 1.43488905 176.66995506 0 176.6640625 C-1.30582031 176.66067871 -2.61164063 176.65729492 -3.95703125 176.65380859 C-7.1875 176.265625 -7.1875 176.265625 -9.08349609 174.95532227 C-10.53464229 172.73431766 -10.92082861 170.44770511 -11.41601562 167.86914062 C-12.5745285 161.47408379 -12.5745285 161.47408379 -16.3046875 156.35546875 C-19.39852077 154.94042042 -21.78455663 154.0940028 -25.19921875 154.51171875 C-28.43013006 155.73679907 -30.94647133 157.90577368 -33.67578125 159.98828125 C-37.09571338 161.72750023 -39.38052919 161.63708002 -43.1875 161.265625 C-45.89404297 159.40136719 -45.89404297 159.40136719 -48.4296875 156.8125 C-49.81027344 155.41837891 -49.81027344 155.41837891 -51.21875 153.99609375 C-51.68539063 153.5067334 -52.15203125 153.01737305 -52.6328125 152.51318359 C-54.06183318 151.01632347 -55.51596494 149.54803115 -56.9765625 148.08203125 C-64.80487514 140.06575065 -64.80487514 140.06575065 -65.1875 136.265625 C-64.55078125 134.30078125 -64.55078125 134.30078125 -63.5 132.328125 C-63.13390625 131.62558594 -62.7678125 130.92304688 -62.390625 130.19921875 C-61.1875 128.265625 -61.1875 128.265625 -58.75 125.890625 C-56.90658077 123.41919317 -56.90658077 123.41919317 -57.53515625 120.84375 C-58.67445438 116.88196958 -59.89103364 113.71032454 -62.1875 110.265625 C-64.89305355 109.45424768 -67.49625372 108.78449802 -70.25 108.203125 C-72.92907887 107.62655574 -75.54059377 106.98964033 -78.1875 106.265625 C-80.43328046 101.77406408 -79.37334432 95.60704592 -79.37280273 90.60766602 C-79.3749881 88.34046634 -79.39314493 86.07375411 -79.41210938 83.80664062 C-79.41504362 82.36718917 -79.41702821 80.92773539 -79.41796875 79.48828125 C-79.42207764 78.17609619 -79.42618652 76.86391113 -79.43041992 75.51196289 C-79.1875 72.265625 -79.1875 72.265625 -77.1875 69.265625 C-75.3078899 68.83393433 -73.42385839 68.41345815 -71.52294922 68.08813477 C-64.59649726 66.99451518 -64.59649726 66.99451518 -59.171875 62.9609375 C-57.57186209 59.16372377 -56.75733925 56.68879364 -57.97265625 52.66796875 C-59.39469671 49.85589516 -61.11390787 47.56593083 -63.06640625 45.109375 C-64.48207196 42.78117216 -64.97884107 40.98244947 -65.1875 38.265625 C-64.28125 36.5546875 -64.28125 36.5546875 -62.6875 34.890625 C-61.73230469 33.88708984 -61.73230469 33.88708984 -60.7578125 32.86328125 C-59.90960938 32.00605469 -59.06140625 31.14882812 -58.1875 30.265625 C-56.97591243 28.9941087 -55.7650359 27.72191467 -54.5546875 26.44921875 C-53.22557958 25.07395215 -51.89483041 23.70026995 -50.5625 22.328125 C-49.91732422 21.65281738 -49.27214844 20.97750977 -48.60742188 20.28173828 C-47.66866211 19.33210205 -47.66866211 19.33210205 -46.7109375 18.36328125 C-46.15325684 17.79101807 -45.59557617 17.21875488 -45.02099609 16.62915039 C-42.72401136 14.92094004 -41.03004953 14.48982926 -38.1875 14.265625 C-35.2421875 16.05859375 -35.2421875 16.05859375 -32.0625 18.453125 C-28.79194087 20.65629128 -26.05973772 22.20834049 -22.03515625 22.47265625 C-18.51639969 21.61776372 -16.77300532 20.82864766 -14.1875 18.265625 C-12.36773205 14.29622181 -11.66546124 10.10258601 -10.96875 5.8203125 C-9.56296655 -0.5760022 -5.74679915 0.00992784 0 0 Z " fill="#7784BC" transform="translate(408.1875,179.734375)"/>
<path d="M0 0 C-0.03255208 2.01822917 -0.06510417 4.03645833 -0.09765625 6.0546875 C-0.12649242 8.08185404 -0.12649242 8.08185404 1 10 C2.98 10 4.96 10 7 10 C8.14352916 7.71294169 8.10334439 6.40735238 8.0625 3.875 C8.041875 2.59625 8.02125 1.3175 8 0 C19.6106775 -0.64503764 29.31656187 3.78127827 39 10 C40.71352213 11.61845527 42.3952514 13.2736346 44 15 C43.030625 15.37125 42.06125 15.7425 41.0625 16.125 C37.72784137 17.71144368 37.72784137 17.71144368 37 21.0625 C37 22.031875 37 23.00125 37 24 C37.99 24.99 37.99 24.99 39 26 C41.80728006 25.78405538 43.48924242 25.41617284 45.6875 23.625 C47.18446965 21.82218647 47.18446965 21.82218647 49 19 C57.29864103 30.24023425 63.58427493 40.68526423 63 55 C62.36191406 54.98839844 61.72382813 54.97679687 61.06640625 54.96484375 C60.24011719 54.95582031 59.41382813 54.94679688 58.5625 54.9375 C57.73878906 54.92589844 56.91507812 54.91429687 56.06640625 54.90234375 C54.00836062 54.76732652 54.00836062 54.76732652 53 56 C52.95919217 57.99958364 52.95745644 60.00045254 53 62 C55.28705831 63.14352916 56.59264762 63.10334439 59.125 63.0625 C61.043125 63.0315625 61.043125 63.0315625 63 63 C64.06305619 74.42785405 58.55954444 85.9374715 52 95 C49.78125 96.8359375 49.78125 96.8359375 48 98 C47.62875 97.195625 47.2575 96.39125 46.875 95.5625 C45.19081197 92.72411507 45.19081197 92.72411507 41.9375 92.0625 C40.968125 92.041875 39.99875 92.02125 39 92 C38.34 92.66 37.68 93.32 37 94 C37.10165608 97.76127491 37.99079034 98.98989184 40.5625 101.8125 C41.366875 102.534375 42.17125 103.25625 43 104 C32.52071455 113.37036636 21.06189226 117.95328275 7 118 C7.33 117.34 7.66 116.68 8 116 C8.16669318 112.45828022 8.16669318 112.45828022 8 109 C6.88163776 107.65595225 6.88163776 107.65595225 4 107.875 C1.11836224 107.65595225 1.11836224 107.65595225 0 109 C-0.30523962 113.65088715 -0.30523962 113.65088715 1 118 C-11.253563 118.8169042 -22.10461316 114.06149671 -32 107 C-33.83984375 104.78125 -33.83984375 104.78125 -35 103 C-33.02 101.35 -31.04 99.7 -29 98 C-29.33 96.35 -29.66 94.7 -30 93 C-32.29294488 92.14025199 -32.29294488 92.14025199 -35 92 C-37.25 93.75 -37.25 93.75 -39 96 C-39.99 96.99 -39.99 96.99 -41 98 C-50.22416341 87.68421961 -55.23412327 75.81327282 -55 62 C-54.34 62.33 -53.68 62.66 -53 63 C-48.85496339 63.24787017 -48.85496339 63.24787017 -45 62 C-44.95745644 60.00045254 -44.95919217 57.99958364 -45 56 C-46.00836062 54.76732652 -46.00836062 54.76732652 -48.06640625 54.90234375 C-48.89011719 54.91394531 -49.71382812 54.92554688 -50.5625 54.9375 C-51.38878906 54.94652344 -52.21507812 54.95554687 -53.06640625 54.96484375 C-53.70449219 54.97644531 -54.34257813 54.98804688 -55 55 C-55.99256783 43.28769963 -50.75849604 32.38583978 -44 23 C-42.69497584 21.63894618 -41.36817347 20.29755806 -40 19 C-39.54625 19.78375 -39.0925 20.5675 -38.625 21.375 C-37.11571258 24.03698031 -37.11571258 24.03698031 -35 26 C-32.39719432 25.67958603 -32.39719432 25.67958603 -30 25 C-29.14025199 22.70705512 -29.14025199 22.70705512 -29 20 C-31.0976006 17.37799925 -33.19837848 15.86774768 -36 14 C-24.75976575 5.70135897 -14.31473577 -0.58427493 0 0 Z " fill="#F1F1FD" transform="translate(91,209)"/>
<path d="M0 0 C1.04837036 -0.00287018 1.04837036 -0.00287018 2.11791992 -0.00579834 C3.59391643 -0.00715783 5.06992498 -0.00347782 6.54589844 0.00488281 C8.80430984 0.01558618 11.06192582 0.0049801 13.3203125 -0.0078125 C14.75521009 -0.00649086 16.19010718 -0.00392838 17.625 0 C18.93082031 0.00225586 20.23664063 0.00451172 21.58203125 0.00683594 C24.8125 0.265625 24.8125 0.265625 27.8125 2.265625 C28.22582742 4.14626475 28.62804528 6.03110537 28.93725586 7.93164062 C29.76357655 12.79601905 30.48171309 16.94641015 34.05859375 20.4921875 C37.28093972 22.01683886 39.24064117 22.50020805 42.8125 22.265625 C46.59372419 20.48900886 49.5291496 18.57237413 52.8671875 16.05859375 C55.8125 14.265625 55.8125 14.265625 58.18115234 14.36914062 C61.59778875 15.53316817 63.3134854 17.26494842 65.859375 19.81640625 C66.78621094 20.74259766 67.71304688 21.66878906 68.66796875 22.62304688 C69.14282715 23.10829834 69.61768555 23.5935498 70.10693359 24.09350586 C71.55964165 25.5752096 73.03014797 27.03731113 74.50390625 28.49804688 C82.48322785 36.54990776 82.48322785 36.54990776 82.8125 40.265625 C81.921875 42.484375 81.921875 42.484375 80.5625 44.765625 C80.12421875 45.5184375 79.6859375 46.27125 79.234375 47.046875 C77.8125 49.265625 77.8125 49.265625 76.0625 51.26171875 C74.55488108 53.19818198 74.55488108 53.19818198 75.140625 55.51953125 C75.44484375 56.28136719 75.7490625 57.04320312 76.0625 57.828125 C76.35640625 58.59253906 76.6503125 59.35695312 76.953125 60.14453125 C77.23671875 60.84449219 77.5203125 61.54445312 77.8125 62.265625 C78.1425 63.255625 78.4725 64.245625 78.8125 65.265625 C81.47962579 66.06901173 84.03100808 66.71101645 86.75 67.265625 C94.54463687 68.8638303 94.54463687 68.8638303 96.8125 72.265625 C97.2010346 76.83548266 97.14165727 81.41465452 97.12817383 85.99902344 C97.12501117 88.25765098 97.14848804 90.51497164 97.17382812 92.7734375 C97.17610094 94.20833168 97.1768047 95.64322938 97.17578125 97.078125 C97.17876221 98.38394531 97.18174316 99.68976563 97.18481445 101.03515625 C96.8125 104.265625 96.8125 104.265625 95.49072266 106.1730957 C92.8198006 107.91187606 90.00148753 108.01679463 86.875 108.453125 C81.95927816 109.28178762 81.95927816 109.28178762 78.0390625 112.05859375 C76.99548961 114.14966273 76.32569936 115.98752054 75.8125 118.265625 C75.42384766 119.47412109 75.42384766 119.47412109 75.02734375 120.70703125 C74.72814143 124.27025884 76.01709908 125.55292857 78.1875 128.328125 C82.67819263 134.13382124 82.67819263 134.13382124 82.8125 137.265625 C79.73580106 143.0970853 75.14392086 147.41675522 70.5625 152.078125 C69.72847656 152.96177734 68.89445313 153.84542969 68.03515625 154.75585938 C61.84446723 161.04859272 61.84446723 161.04859272 57.0234375 162.0625 C53.45973702 161.17807798 51.51275806 160.02419714 48.6875 157.703125 C45.46699639 154.90797649 45.46699639 154.90797649 41.4453125 154.36328125 C40.57648438 154.66105469 39.70765625 154.95882812 38.8125 155.265625 C37.60078125 155.6265625 36.3890625 155.9875 35.140625 156.359375 C31.5155855 157.98756948 31.5155855 157.98756948 30.359375 161.734375 C30.06391025 163.07188062 29.79893 164.41643207 29.5625 165.765625 C27.90632082 174.12614488 27.90632082 174.12614488 24.8125 176.265625 C21.58203125 176.65380859 21.58203125 176.65380859 17.625 176.6640625 C16.92608643 176.66693268 16.22717285 176.66980286 15.50708008 176.67276001 C14.03107899 176.67479925 12.55505079 176.66927903 11.07910156 176.65673828 C8.82034862 176.6406808 6.56338482 176.6565897 4.3046875 176.67578125 C2.86978772 176.67379879 1.43488905 176.66995506 0 176.6640625 C-1.30582031 176.66067871 -2.61164063 176.65729492 -3.95703125 176.65380859 C-7.1875 176.265625 -7.1875 176.265625 -9.08349609 174.95532227 C-10.53464229 172.73431766 -10.92082861 170.44770511 -11.41601562 167.86914062 C-12.5745285 161.47408379 -12.5745285 161.47408379 -16.3046875 156.35546875 C-19.39852077 154.94042042 -21.78455663 154.0940028 -25.19921875 154.51171875 C-28.43013006 155.73679907 -30.94647133 157.90577368 -33.67578125 159.98828125 C-37.09571338 161.72750023 -39.38052919 161.63708002 -43.1875 161.265625 C-45.89404297 159.40136719 -45.89404297 159.40136719 -48.4296875 156.8125 C-49.81027344 155.41837891 -49.81027344 155.41837891 -51.21875 153.99609375 C-51.68539063 153.5067334 -52.15203125 153.01737305 -52.6328125 152.51318359 C-54.06183318 151.01632347 -55.51596494 149.54803115 -56.9765625 148.08203125 C-64.80487514 140.06575065 -64.80487514 140.06575065 -65.1875 136.265625 C-64.55078125 134.30078125 -64.55078125 134.30078125 -63.5 132.328125 C-63.13390625 131.62558594 -62.7678125 130.92304688 -62.390625 130.19921875 C-61.1875 128.265625 -61.1875 128.265625 -58.75 125.890625 C-56.90658077 123.41919317 -56.90658077 123.41919317 -57.53515625 120.84375 C-58.67445438 116.88196958 -59.89103364 113.71032454 -62.1875 110.265625 C-64.89305355 109.45424768 -67.49625372 108.78449802 -70.25 108.203125 C-72.92907887 107.62655574 -75.54059377 106.98964033 -78.1875 106.265625 C-80.43328046 101.77406408 -79.37334432 95.60704592 -79.37280273 90.60766602 C-79.3749881 88.34046634 -79.39314493 86.07375411 -79.41210938 83.80664062 C-79.41504362 82.36718917 -79.41702821 80.92773539 -79.41796875 79.48828125 C-79.42207764 78.17609619 -79.42618652 76.86391113 -79.43041992 75.51196289 C-79.1875 72.265625 -79.1875 72.265625 -77.1875 69.265625 C-75.3078899 68.83393433 -73.42385839 68.41345815 -71.52294922 68.08813477 C-64.59649726 66.99451518 -64.59649726 66.99451518 -59.171875 62.9609375 C-57.57186209 59.16372377 -56.75733925 56.68879364 -57.97265625 52.66796875 C-59.39469671 49.85589516 -61.11390787 47.56593083 -63.06640625 45.109375 C-64.48207196 42.78117216 -64.97884107 40.98244947 -65.1875 38.265625 C-64.28125 36.5546875 -64.28125 36.5546875 -62.6875 34.890625 C-61.73230469 33.88708984 -61.73230469 33.88708984 -60.7578125 32.86328125 C-59.90960938 32.00605469 -59.06140625 31.14882812 -58.1875 30.265625 C-56.97591243 28.9941087 -55.7650359 27.72191467 -54.5546875 26.44921875 C-53.22557958 25.07395215 -51.89483041 23.70026995 -50.5625 22.328125 C-49.91732422 21.65281738 -49.27214844 20.97750977 -48.60742188 20.28173828 C-47.66866211 19.33210205 -47.66866211 19.33210205 -46.7109375 18.36328125 C-46.15325684 17.79101807 -45.59557617 17.21875488 -45.02099609 16.62915039 C-42.72401136 14.92094004 -41.03004953 14.48982926 -38.1875 14.265625 C-35.2421875 16.05859375 -35.2421875 16.05859375 -32.0625 18.453125 C-28.79194087 20.65629128 -26.05973772 22.20834049 -22.03515625 22.47265625 C-18.51639969 21.61776372 -16.77300532 20.82864766 -14.1875 18.265625 C-12.36773205 14.29622181 -11.66546124 10.10258601 -10.96875 5.8203125 C-9.56296655 -0.5760022 -5.74679915 0.00992784 0 0 Z M-1.1875 10.265625 C-1.6 12.51375 -2.0125 14.761875 -2.4375 17.078125 C-3.65259 23.7003655 -3.65259 23.7003655 -5.83984375 26.01171875 C-8.99249458 27.69558051 -12.19436685 29.1658521 -15.5 30.515625 C-16.13873047 30.79664063 -16.77746094 31.07765625 -17.43554688 31.3671875 C-22.08438546 33.27005557 -25.33557231 33.51359679 -30.1875 32.265625 C-32.26171875 31.0390625 -32.26171875 31.0390625 -33.875 29.640625 C-36.14553203 27.65190132 -36.14553203 27.65190132 -39.03515625 27.26953125 C-42.28731851 28.77461542 -44.50340716 31.26945261 -46.9375 33.828125 C-47.44410156 34.34826172 -47.95070313 34.86839844 -48.47265625 35.40429688 C-49.71784405 36.68472584 -50.95361502 37.97430054 -52.1875 39.265625 C-51.04770256 42.33946787 -50.06753349 44.41644005 -48 47.015625 C-45.46753621 51.55659456 -45.81912269 54.33804866 -47.1875 59.265625 C-51.92976804 72.00789304 -51.92976804 72.00789304 -55.1875 75.265625 C-59.48055834 76.46856423 -63.82680091 77.32508206 -68.1875 78.265625 C-68.1875 84.535625 -68.1875 90.805625 -68.1875 97.265625 C-63.70213437 99.32355276 -63.70213437 99.32355276 -60.7578125 99.51953125 C-57.60689593 99.91717088 -55.84255942 100.4681003 -53.1875 102.265625 C-48.98660587 108.55615772 -45.15734534 117.64248052 -46.1875 125.265625 C-47.53515625 127.6796875 -47.53515625 127.6796875 -49.25 129.890625 C-51.56220708 132.72710872 -51.56220708 132.72710872 -52.203125 136.17578125 C-50.66821258 139.33415873 -48.33469783 141.63115523 -45.875 144.078125 C-45.38837891 144.59310547 -44.90175781 145.10808594 -44.40039062 145.63867188 C-42.80632822 147.30076778 -42.80632822 147.30076778 -40.1875 149.265625 C-36.37230288 149.23787811 -34.04412781 146.70240373 -31.26171875 144.32421875 C-26.95044379 142.12392588 -22.42751045 143.06619902 -17.92578125 144.26953125 C-6.66546717 147.98126904 -6.66546717 147.98126904 -4.02050781 152.06933594 C-2.19760982 156.48959391 -1.83373631 160.39731148 -1.1875 165.265625 C5.4125 165.265625 12.0125 165.265625 18.8125 165.265625 C19.039375 163.079375 19.26625 160.893125 19.5 158.640625 C20.45270455 154.03975913 20.93095663 151.92884773 24.73046875 149.0703125 C28.05542188 147.57502284 31.33675738 146.35968442 34.8125 145.265625 C35.70710938 144.89953125 36.60171875 144.5334375 37.5234375 144.15625 C40.93420967 142.82919189 43.16331861 142.77906748 46.8125 143.265625 C50.00747063 145.01852755 52.9162126 147.05892984 55.8125 149.265625 C59.62566478 147.67606216 62.185284 145.25801803 65.125 142.390625 C66.48044922 141.09511719 66.48044922 141.09511719 67.86328125 139.7734375 C70.03704424 137.52133194 70.03704424 137.52133194 69.765625 135.1875 C68.38882856 132.4113367 66.66933222 129.97745253 64.87109375 127.4609375 C62.81207179 123.19093625 63.63861237 119.417732 65.02734375 115.06640625 C69.3038607 103.42712065 69.3038607 103.42712065 73.0703125 100.52734375 C75.40095952 99.75704516 77.36760285 99.43110027 79.8125 99.265625 C82.7825 98.770625 82.7825 98.770625 85.8125 98.265625 C85.8125 91.665625 85.8125 85.065625 85.8125 78.265625 C83.729375 77.853125 81.64625 77.440625 79.5 77.015625 C73.37189921 75.80213969 73.37189921 75.80213969 71.09375 73.6171875 C69.37411883 70.46103517 67.95393069 67.22443631 66.625 63.890625 C66.21604492 62.91996094 66.21604492 62.91996094 65.79882812 61.9296875 C64.17857424 57.90138711 63.24069376 54.59675309 63.8125 50.265625 C65.16015625 48.0703125 65.16015625 48.0703125 66.875 46.140625 C69.22840035 43.61861546 69.22840035 43.61861546 69.828125 40.38671875 C68.30519687 37.20614192 65.9691201 34.90946829 63.5 32.453125 C63.01337891 31.93814453 62.52675781 31.42316406 62.02539062 30.89257812 C60.43132822 29.23048222 60.43132822 29.23048222 57.8125 27.265625 C54.56731173 27.28355422 52.61138629 29.00529176 50.0625 30.890625 C46.6764446 33.01776237 44.31780994 33.88770823 40.234375 33.0546875 C25.94647129 28.39959629 25.94647129 28.39959629 21.8125 24.265625 C20.60281736 19.63775654 19.75107443 14.95849713 18.8125 10.265625 C12.2125 10.265625 5.6125 10.265625 -1.1875 10.265625 Z " fill="#010102" transform="translate(408.1875,179.734375)"/>
<path d="M0 0 C0.96711914 0.01426025 1.93423828 0.02852051 2.93066406 0.04321289 C14.31014955 0.38021925 21.63622063 3.06090258 29.90234375 11.078125 C38.14415874 20.31849624 40.58467099 31.53117711 40.375 43.625 C40.37822266 44.56214844 40.38144531 45.49929688 40.38476562 46.46484375 C40.26411919 62.14888081 34.20336048 77.10468302 23.23828125 88.375 C15.93218138 94.94228078 7.76760242 98.98910536 -2.25 98.5 C-11.50134145 97.10662808 -20.29141408 91.90798507 -25.9375 84.5 C-37.57053902 67.83407124 -41.43518122 50.48736608 -38.63720703 30.33740234 C-36.38863623 19.26068476 -29.99013361 11.00214745 -20.9375 4.5 C-14.04604036 0.84983998 -7.7232708 -0.1572459 0 0 Z " fill="#FBD6AC" transform="translate(253.9375,293.5)"/>
<path d="M0 0 C1.03511719 0.350625 2.07023437 0.70125 3.13671875 1.0625 C25.13041802 9.3424809 42.58126777 26.45743878 52.23828125 47.734375 C61.62659097 69.81852903 62.33624152 95.05685188 53.64453125 117.5 C52.21678051 120.74593197 50.66445703 123.86952486 49 127 C48.52175781 127.92425781 48.04351562 128.84851563 47.55078125 129.80078125 C39.11033502 145.17217325 27.5122493 158.84790608 16.38085938 172.31933594 C14.51780455 174.5868871 12.69562664 176.88581347 10.875 179.1875 C7.38307167 183.56895112 3.77242657 187.84205052 0.140625 192.10742188 C-2.82772317 195.59790331 -5.74224431 199.12556103 -8.625 202.6875 C-21.63361709 218.64942475 -21.63361709 218.64942475 -26.3203125 219.34375 C-31.35446658 219.62420427 -35.03156834 219.64697059 -39 216.3125 C-40.37791609 214.91767697 -41.70598846 213.47299632 -43 212 C-43.86496094 211.01902344 -44.72992188 210.03804687 -45.62109375 209.02734375 C-48.47354756 205.73320678 -51.24249714 202.37369318 -54 199 C-54.72960937 198.113125 -55.45921875 197.22625 -56.2109375 196.3125 C-57.64689448 194.56159335 -59.07901795 192.80753754 -60.5078125 191.05078125 C-62.38893438 188.7480286 -64.27946029 186.45486358 -66.1796875 184.16796875 C-121.66945024 117.31964233 -121.66945024 117.31964233 -118 71 C-115.72615541 54.16229926 -108.2258106 38.6433264 -97 26 C-96.45988281 25.31808594 -95.91976562 24.63617188 -95.36328125 23.93359375 C-73.63255344 -2.95357794 -31.67069971 -11.20825694 0 0 Z M-89.8125 33.25 C-103.61723407 51.31013833 -109.73569217 71.23736668 -108 94 C-105.85636686 109.46552886 -99.09591623 123.46815478 -90 136 C-89.50467773 136.69222656 -89.00935547 137.38445312 -88.49902344 138.09765625 C-80.58431842 149.14319312 -72.25844948 159.76547486 -63.52636719 170.17382812 C-61.43151308 172.6801475 -59.3717584 175.21440069 -57.3125 177.75 C-53.6296862 182.25956791 -49.87604701 186.70521317 -46.10498047 191.14086914 C-42.26686815 195.66295449 -38.50978777 200.24559666 -34.77734375 204.85546875 C-33.02744291 207.03470231 -33.02744291 207.03470231 -31 209 C-28.14887872 208.84459297 -27.05547845 208.05155359 -24.95703125 206.1015625 C-24.24933594 205.28429687 -23.54164063 204.46703125 -22.8125 203.625 C-22.0184375 202.71105469 -21.224375 201.79710937 -20.40625 200.85546875 C-17.00805113 196.82286587 -13.66093387 192.75314298 -10.34423828 188.65332031 C-8.25597046 186.08489501 -6.14697519 183.53367032 -4.03955078 180.98095703 C-1.61836309 178.04712496 0.79671672 175.1082846 3.21240234 172.16992188 C4.91422888 170.1041155 6.62266867 168.04394597 8.33203125 165.984375 C16.3330052 156.29968226 23.83190011 146.31652605 31 136 C31.4439209 135.36288086 31.8878418 134.72576172 32.34521484 134.06933594 C46.20835709 113.97019673 52.03894565 92.55060202 47.9375 68.375 C44.97255034 55.43451877 39.37313435 44.28401563 31 34 C30.54367187 33.38125 30.08734375 32.7625 29.6171875 32.125 C18.39845931 17.61454916 -1.11108053 8.30812541 -19 6 C-45.90927328 3.69881402 -71.90300681 12.43709068 -89.8125 33.25 Z " fill="#020000" transform="translate(284,10)"/>
<path d="M0 0 C7.33637154 1.80402579 14.51419697 4.0798322 21.6875 6.4375 C23.02300903 6.86977905 23.02300903 6.86977905 24.38549805 7.31079102 C32.98169489 10.16766595 40.70286645 13.33957028 47 20 C51 31 51 31 51 77 C20.64 77 -9.72 77 -41 77 C-41 57.2 -41 37.4 -41 17 C-35.27544279 20.18030956 -30.30799698 23.06430592 -25.140625 26.86328125 C-22.50493133 28.2628923 -20.94265411 28.46488184 -18 28 C-16.46417842 26.67139335 -16.46417842 26.67139335 -15.375 24.625 C-14.88386719 23.82320313 -14.39273437 23.02140625 -13.88671875 22.1953125 C-13.26410156 21.14085937 -12.64148438 20.08640625 -12 19 C-10.57268856 16.65637038 -9.13809616 14.31727338 -7.70361328 11.97802734 C-6.69673508 10.33232465 -5.69376916 8.68422164 -4.69482422 7.03369141 C-4.23221191 6.26976074 -3.76959961 5.50583008 -3.29296875 4.71875 C-2.8755542 4.02716797 -2.45813965 3.33558594 -2.02807617 2.62304688 C-1 1 -1 1 0 0 Z " fill="#6FBFF7" transform="translate(300,419)"/>
<path d="M0 0 C2.1340332 2.37084961 2.1340332 2.37084961 4.05078125 5.65234375 C4.39505661 6.22706924 4.73933197 6.80179474 5.09403992 7.39393616 C6.18798257 9.23023319 7.25036014 11.08266106 8.3125 12.9375 C9.04546997 14.18285304 9.78047452 15.427011 10.51757812 16.66992188 C11.86256649 18.93955007 13.19209999 21.21574417 14.51293945 23.49975586 C15.77765251 25.8597445 15.77765251 25.8597445 17 27 C22.93912217 26.71154948 26.25391986 24.91095721 30.8125 21.4375 C36.78528073 17 36.78528073 17 39 17 C39 36.47 39 55.94 39 76 C8.97 76 -21.06 76 -52 76 C-52.0825 68.636875 -52.165 61.27375 -52.25 53.6875 C-52.28641602 51.38612061 -52.32283203 49.08474121 -52.36035156 46.71362305 C-52.37205257 44.85466438 -52.38224103 42.99569533 -52.390625 41.13671875 C-52.41108887 40.19977173 -52.43155273 39.26282471 -52.45263672 38.29748535 C-52.4564767 30.88919358 -51.26672838 23.05431713 -46.48199463 17.11601257 C-44.77048321 15.46626599 -43.01960905 14.25483062 -41 13 C-39.8553125 12.28457031 -39.8553125 12.28457031 -38.6875 11.5546875 C-31.83409145 7.74945194 -24.59024616 5.43330188 -17.125 3.125 C-15.62646484 2.65912476 -15.62646484 2.65912476 -14.09765625 2.18383789 C-13.13988281 1.89887451 -12.18210938 1.61391113 -11.1953125 1.3203125 C-10.33953613 1.06523926 -9.48375977 0.81016602 -8.60205078 0.54736328 C-5.4994169 -0.10530187 -3.15635622 -0.4697037 0 0 Z " fill="#4DB0FB" transform="translate(210,420)"/>
<path d="M0 0 C17.65160598 15.58480401 30.03356325 36.30184064 31.60888672 60.31591797 C32.73324763 86.54541199 25.34559707 108.77457483 8.28515625 128.734375 C-5.99506729 143.87927262 -27.50794149 155.26244018 -48.53125 156.1796875 C-49.63082031 156.24285156 -50.73039062 156.30601562 -51.86328125 156.37109375 C-77.10712885 157.15131237 -99.69784662 148.79319139 -118.23388672 131.51757812 C-134.7515425 115.50639844 -144.27212279 93.7130135 -144.82348633 70.72290039 C-145.03003655 46.71081524 -137.1766267 24.31443345 -120.27734375 6.9296875 C-118.91802734 5.5684375 -118.91802734 5.5684375 -117.53125 4.1796875 C-116.80035156 3.4371875 -116.06945312 2.6946875 -115.31640625 1.9296875 C-84.28247765 -27.65945858 -32.22922055 -27.02766913 0 0 Z M-116.65625 18.3671875 C-128.00383203 32.22929055 -133.90881543 48.74996229 -133.78125 66.4921875 C-133.78898437 67.55630859 -133.79671875 68.62042969 -133.8046875 69.71679688 C-133.77920441 80.15849487 -132.37936051 89.52340601 -128.03125 99.0546875 C-127.68231689 99.82425781 -127.33338379 100.59382813 -126.97387695 101.38671875 C-117.69271975 121.00588949 -101.16256582 134.72405409 -80.96875 142.1171875 C-61.47078666 148.76678193 -39.56950485 146.3598113 -21.21875 137.4921875 C-1.2146838 127.20686191 11.36533919 110.20856767 18.55859375 89.3359375 C24.30764297 69.39932046 20.93681754 47.44940872 11.3828125 29.3984375 C8.50870239 24.56524009 5.24120189 20.33996155 1.46875 16.1796875 C0.76878906 15.39851563 0.06882813 14.61734375 -0.65234375 13.8125 C-13.21153397 0.51453388 -31.57843614 -8.57352462 -49.96875 -9.21875 C-52.15624993 -9.22658115 -54.343861 -9.21869314 -56.53125 -9.1953125 C-57.61664063 -9.20691406 -58.70203125 -9.21851563 -59.8203125 -9.23046875 C-82.78734655 -9.14824786 -101.30995207 1.90102458 -116.65625 18.3671875 Z " fill="#030200" transform="translate(151.53125,199.8203125)"/>
<path d="M0 0 C11.57139032 6.25322608 18.45514661 14.76602876 23.1171875 26.91015625 C26.24551209 37.85929233 23.77806902 49.67178878 18.53515625 59.515625 C12.29337867 69.61682231 3.29667376 76.52484688 -8.24609375 79.5234375 C-20.11114813 81.57668095 -30.29172292 79.72821258 -40.56640625 73.42578125 C-49.93236853 66.62713858 -56.30433293 57.48971564 -58.58203125 46.0859375 C-60.14520202 34.5447701 -59.08839098 24.38904611 -52.1875 14.75 C-51.14540604 13.48293787 -50.08290658 12.23236342 -49 11 C-48.49855469 10.39414063 -47.99710938 9.78828125 -47.48046875 9.1640625 C-36.10854769 -3.50829723 -15.40857356 -7.26560853 0 0 Z " fill="#F1F1FD" transform="translate(272,56)"/>
<path d="M0 0 C10.51530163 6.06605261 16.53960806 13.49382419 20.375 25 C21.39650853 38.41094766 20.07159213 48.72618325 11.1875 59.4375 C6.80105065 63.99970024 2.21653495 66.67886028 -3.625 69 C-4.77548828 69.54333984 -4.77548828 69.54333984 -5.94921875 70.09765625 C-14.84637996 73.0980128 -25.575812 71.70089579 -33.875 67.6640625 C-44.20236482 61.41483322 -49.83277628 53.37667116 -53.625 42 C-54.22269143 32.73088374 -54.77375567 24.10617242 -49.625 16 C-49.026875 14.96875 -48.42875 13.9375 -47.8125 12.875 C-36.41504997 -2.10450576 -17.52064489 -8.35220341 0 0 Z " fill="#F1F1FD" transform="translate(433.625,234)"/>
<path d="M0 0 C1.11246094 -0.020625 2.22492188 -0.04125 3.37109375 -0.0625 C14.36625747 -0.11369983 24.118901 2.14288892 34 6.9375 C34.72509766 7.28562744 35.45019531 7.63375488 36.19726562 7.99243164 C42.27388689 11.01105706 47.40844936 14.60984789 52.375 19.25 C53.15230469 19.94867188 53.92960938 20.64734375 54.73046875 21.3671875 C60.40615848 26.71013161 64.52855013 32.49220211 68.375 39.25 C69.06916016 40.43529297 69.06916016 40.43529297 69.77734375 41.64453125 C75.9645617 52.9846298 77.73238611 64.20127728 77.8125 76.9375 C77.8225708 77.97011963 77.8326416 79.00273926 77.84301758 80.06665039 C77.61181153 100.6866224 68.32961612 118.92013685 54.1875 133.52734375 C38.19644694 149.00757151 17.85137127 154.93586963 -3.90185547 154.71850586 C-25.32777324 154.0669157 -43.6392183 143.8097366 -58.3125 128.5625 C-73.91037655 110.50914378 -77.67980304 89.57419161 -76.84716797 66.29150391 C-75.46642174 47.38893632 -63.5069772 29.54474569 -49.625 17.25 C-34.56140053 5.21951108 -19.02016283 0.08635715 0 0 Z M-54.45703125 33.42578125 C-67.62449212 50.57906812 -70.54028346 67.98797226 -68.625 89.25 C-65.82570547 106.70989398 -55.52009244 122.30345751 -41.74609375 133.078125 C-38.30073325 135.47564745 -34.8042996 137.61026823 -31.125 139.625 C-30.54484131 139.94678223 -29.96468262 140.26856445 -29.36694336 140.60009766 C-20.28366635 145.32995497 -11.02703101 146.79204131 -0.875 146.6875 C0.69761597 146.67505249 0.69761597 146.67505249 2.30200195 146.66235352 C21.56599669 146.24553804 37.85248014 138.62823071 51.55859375 125.09375 C64.73030218 110.95097043 70.93384324 93.28867709 70.625 74.12109375 C69.42547137 55.54714255 61.35249805 37.92582986 47.71484375 25.15234375 C38.41640425 17.59251064 28.89365314 12.59282591 17.375 9.25 C16.75085205 9.06598633 16.1267041 8.88197266 15.48364258 8.69238281 C-10.48555649 1.5341857 -37.47517747 13.79896617 -54.45703125 33.42578125 Z " fill="#F5C02C" transform="translate(94.625,190.75)"/>
<path d="M0 0 C1.12378052 0.00845947 1.12378052 0.00845947 2.27026367 0.01708984 C15.09173755 0.29435542 28.59723908 4.43685193 38.15625 13.36328125 C46.41839905 22.73330938 53.31857484 33.53697831 53.875 46.3125 C53.93816406 47.27929688 54.00132812 48.24609375 54.06640625 49.2421875 C54.59632898 63.4988183 49.82063887 75.75309684 40.625 86.5 C31.42630065 96.28971957 19.37821811 102.60319176 5.8671875 103.515625 C-10.34153831 103.75936524 -23.09557007 98.83856128 -34.90234375 87.66796875 C-44.90150182 77.07132145 -49.61609298 64.03952059 -49.30078125 49.6015625 C-48.60845342 36.6473395 -43.93273401 23.2927825 -34.125 14.3125 C-24.73757703 5.98460559 -12.64238489 -0.09989468 0 0 Z M-31.2734375 26.84765625 C-32.85418417 28.95198357 -34.10300424 30.89335745 -35.25 33.25 C-35.56195313 33.87777344 -35.87390625 34.50554687 -36.1953125 35.15234375 C-40.86137742 45.99408282 -40.10026194 57.30873312 -36.125 68.3125 C-31.6121032 78.4404532 -23.68698671 86.466448 -13.328125 90.55859375 C-12.60109375 90.80738281 -11.8740625 91.05617188 -11.125 91.3125 C-10.18398437 91.66699219 -9.24296875 92.02148438 -8.2734375 92.38671875 C1.49376788 95.25871338 11.80012987 93.57932521 20.875 89.3125 C31.78044727 83.13222501 38.6185261 75.08458891 42.875 63.3125 C43.79921045 59.92712786 43.79921045 59.92712786 43.875 56.3125 C43.936875 55.34570312 43.99875 54.37890625 44.0625 53.3828125 C44.49852993 41.80076754 41.51746134 33.00973204 33.875 24.3125 C33.37355469 23.70664063 32.87210937 23.10078125 32.35546875 22.4765625 C25.53170757 14.87246853 16.16420775 10.76682873 6.08984375 10.0390625 C-10.03847021 9.49447987 -20.68333023 14.35132967 -31.2734375 26.84765625 Z " fill="#050303" transform="translate(252.125,42.6875)"/>
<path d="M0 0 C10.08237767 7.38538084 17.88576559 17.37508246 20.51171875 29.83984375 C21.49081134 49.00746399 21.49081134 49.00746399 17.51171875 57.83984375 C17.10953125 58.73960937 16.70734375 59.639375 16.29296875 60.56640625 C9.8722171 73.51492208 -0.19610634 80.83145626 -13.48828125 85.83984375 C-26.41882528 88.83148633 -39.80387903 87.48484467 -51.17578125 80.65234375 C-59.36236634 75.08172879 -65.41889202 68.91994 -69.48828125 59.83984375 C-70.07802734 58.55013672 -70.07802734 58.55013672 -70.6796875 57.234375 C-75.0115746 46.29145463 -75.34368099 33.80586051 -71.36328125 22.71484375 C-69.0256434 17.49608363 -66.29646436 13.09337524 -62.48828125 8.83984375 C-61.93785156 8.1746875 -61.38742187 7.50953125 -60.8203125 6.82421875 C-45.55857099 -10.22727923 -18.76095433 -12.04588747 0 0 Z M-57.37890625 18.21484375 C-63.79460476 27.43351734 -64.68719935 36.88887478 -63.48828125 47.83984375 C-61.19575101 57.59979044 -55.32148963 65.75563689 -47.1171875 71.5 C-37.16368362 77.25725436 -26.31041935 78.71351869 -15.12890625 76.03515625 C-3.72970703 71.75307364 3.45202643 64.40698782 8.453125 53.44140625 C11.56771478 45.78710074 11.84514531 35.98700845 9.7578125 27.9296875 C8.81317413 25.76998486 7.77444221 23.82786857 6.51171875 21.83984375 C5.91359375 20.80859375 5.31546875 19.77734375 4.69921875 18.71484375 C-1.58246252 10.45891979 -8.98491964 4.07383582 -19.67871094 2.52197266 C-35.76031506 1.16762458 -47.09583746 5.29726973 -57.37890625 18.21484375 Z " fill="#040405" transform="translate(443.48828125,228.16015625)"/>
<path d="M0 0 C-2.3152911 1.5435274 -4.29391628 2.65431228 -6.80078125 3.76953125 C-7.53103516 4.10146484 -8.26128906 4.43339844 -9.01367188 4.77539062 C-10.53210361 5.46042652 -12.05291126 6.14022302 -13.57617188 6.81445312 C-20.41117701 9.94091289 -26.05932839 13.43148785 -29.11181641 20.58105469 C-33.22212804 31.77538333 -32.43016619 44.49705604 -32.625 56.25 C-32.66326262 58.17058902 -32.70231888 60.0911624 -32.7421875 62.01171875 C-32.83873978 66.67438915 -32.91901433 71.33693053 -33 76 C-39.27 76 -45.54 76 -52 76 C-52.09956624 69.6503547 -52.17179656 63.30117315 -52.21972656 56.95092773 C-52.23972691 54.79492263 -52.26693624 52.63897096 -52.30175781 50.4831543 C-52.35078853 47.36754088 -52.37308514 44.25265029 -52.390625 41.13671875 C-52.41127014 40.18729904 -52.43191528 39.23787933 -52.45318604 38.25968933 C-52.45561406 30.8651015 -51.25673933 23.04191979 -46.48199463 17.11601257 C-44.77048321 15.46626599 -43.01960905 14.25483062 -41 13 C-39.8553125 12.28457031 -39.8553125 12.28457031 -38.6875 11.5546875 C-31.83409145 7.74945194 -24.59024616 5.43330188 -17.125 3.125 C-15.62646484 2.65912476 -15.62646484 2.65912476 -14.09765625 2.18383789 C-9.29587286 0.75517808 -5.06848759 -0.42953285 0 0 Z " fill="#2A90F7" transform="translate(210,420)"/>
<path d="M0 0 C0.66 0.33 1.32 0.66 2 1 C1.14277344 1.7734375 0.28554687 2.546875 -0.59765625 3.34375 C-19.16294099 20.19560858 -31.6806004 38.85293534 -33.21875 64.671875 C-34.40005128 100.66603608 -12.30359288 127.85426801 9.58496094 154.28955078 C11.54793599 156.66232566 13.49194861 159.05043049 15.4375 161.4375 C16.95744456 163.2923953 18.47840188 165.14646089 20 167 C20.54333984 167.66209473 21.08667969 168.32418945 21.64648438 169.00634766 C23.49252567 171.25502553 25.33984728 173.50264605 27.1875 175.75 C27.77007568 176.45954834 28.35265137 177.16909668 28.95288086 177.90014648 C29.51885986 178.58794189 30.08483887 179.2757373 30.66796875 179.984375 C31.21759277 180.65533203 31.7672168 181.32628906 32.33349609 182.01757812 C33.45996661 183.35759286 34.61516842 184.67389133 35.79541016 185.96679688 C36.35405762 186.58103516 36.91270508 187.19527344 37.48828125 187.828125 C38.24878784 188.63878418 38.24878784 188.63878418 39.0246582 189.46582031 C39.346521 189.97209961 39.66838379 190.47837891 40 191 C39.67 191.99 39.34 192.98 39 194 C34.98328506 193.47647311 33.40895161 191.62345231 30.8125 188.625 C29.62720703 187.26181641 29.62720703 187.26181641 28.41796875 185.87109375 C25.3653459 182.24641234 22.35547555 178.59044895 19.375 174.90625 C17.28343207 172.34683134 15.15889954 169.82367784 13.01196289 167.31103516 C7.33151113 160.66167691 1.88105565 153.86085108 -3.47851562 146.95117188 C-5.12570888 144.83878926 -6.78852238 142.73931184 -8.453125 140.640625 C-33.8637914 108.49589039 -33.8637914 108.49589039 -39 89 C-39.20367187 88.29488281 -39.40734375 87.58976562 -39.6171875 86.86328125 C-44.35691883 67.74203636 -40.27857772 47.06046255 -31 30 C-28.56531179 26.11597873 -25.90467321 22.54242581 -23 19 C-22.44699219 18.28457031 -21.89398438 17.56914063 -21.32421875 16.83203125 C-15.63834187 9.81628341 -7.97267286 4.20402033 0 0 Z " fill="#E61616" transform="translate(217,25)"/>
<path d="M0 0 C3.0625 0.4375 3.0625 0.4375 4.7355957 2.57885742 C6.25759777 5.85781276 6.40867295 8.01313064 6.35546875 11.61328125 C6.34580078 12.77021484 6.33613281 13.92714844 6.32617188 15.11914062 C6.30103516 16.31732422 6.27589844 17.51550781 6.25 18.75 C6.23646484 19.96751953 6.22292969 21.18503906 6.20898438 22.43945312 C6.17369261 25.43925345 6.12438481 28.43814975 6.0625 31.4375 C6.92528564 31.42702637 7.78807129 31.41655273 8.67700195 31.40576172 C11.88060521 31.37166017 15.0841159 31.34659143 18.2878418 31.32763672 C19.67394048 31.3175843 21.06001799 31.3039403 22.44604492 31.28662109 C24.4391975 31.26234048 26.43250533 31.25207969 28.42578125 31.2421875 C30.22462769 31.22647705 30.22462769 31.22647705 32.05981445 31.21044922 C35.0625 31.4375 35.0625 31.4375 38.0625 33.4375 C38.9375 35.25 38.9375 35.25 39.0625 37.4375 C38.11743164 40.03930664 38.11743164 40.03930664 36.0625 42.4375 C32.95899412 42.91581671 30.40908092 43.06894144 27.30859375 42.99609375 C26.45193619 42.99376236 25.59527863 42.99143097 24.71266174 42.98902893 C22.90282221 42.97928925 21.09301329 42.9574968 19.28344727 42.92456055 C16.50686761 42.87512228 13.73205825 42.86307964 10.95507812 42.85742188 C9.19789774 42.8433372 7.44073278 42.82713327 5.68359375 42.80859375 C4.85025009 42.80323105 4.01690643 42.79786835 3.15830994 42.79234314 C-2.70422586 42.67077414 -2.70422586 42.67077414 -4.9375 40.4375 C-5.13740227 37.59209858 -5.21726976 34.84612216 -5.203125 32 C-5.20503845 31.16412354 -5.2069519 30.32824707 -5.20892334 29.46704102 C-5.21028536 27.69840189 -5.20658776 25.92975277 -5.19824219 24.16113281 C-5.18754275 21.44834006 -5.19813676 18.73620956 -5.2109375 16.0234375 C-5.20961591 14.3072902 -5.20705352 12.59114331 -5.203125 10.875 C-5.20717346 10.06039307 -5.21122192 9.24578613 -5.21539307 8.40649414 C-5.15153548 0.76724997 -5.15153548 0.76724997 0 0 Z " fill="#000000" transform="translate(94.9375,368.5625)"/>
<path d="M0 0 C0.85570084 -0.00902847 1.71140167 -0.01805695 2.59303284 -0.02735901 C4.40451549 -0.04187894 6.2160508 -0.05075257 8.02758789 -0.05444336 C10.80249103 -0.06634656 13.57517553 -0.11551763 16.34960938 -0.16601562 C18.10806204 -0.17547877 19.86652839 -0.18271433 21.625 -0.1875 C22.87197914 -0.21679848 22.87197914 -0.21679848 24.14414978 -0.24668884 C26.48999023 -0.22827148 26.48999023 -0.22827148 30.37890625 0.37109375 C32.46899414 2.73413086 32.46899414 2.73413086 33.37890625 5.37109375 C32.69140625 8.12109375 32.69140625 8.12109375 31.37890625 10.37109375 C28.50872184 11.80618596 26.04346902 11.48267881 22.83984375 11.46875 C21.53789063 11.46552734 20.2359375 11.46230469 18.89453125 11.45898438 C17.51432226 11.45062841 16.13411393 11.44216346 14.75390625 11.43359375 C13.36588699 11.42857876 11.97786603 11.42401585 10.58984375 11.41992188 C7.18615493 11.40810351 3.78255186 11.39162809 0.37890625 11.37109375 C0.40247192 12.51324341 0.40247192 12.51324341 0.42651367 13.6784668 C0.48899078 17.13843315 0.52793797 20.59828065 0.56640625 24.05859375 C0.59154297 25.25677734 0.61667969 26.45496094 0.64257812 27.68945312 C0.65708008 29.42485352 0.65708008 29.42485352 0.671875 31.1953125 C0.69544067 32.7899231 0.69544067 32.7899231 0.71948242 34.41674805 C0.3276886 37.81538389 -0.52176609 39.68421167 -2.62109375 42.37109375 C-5.68359375 42.80859375 -5.68359375 42.80859375 -8.62109375 42.37109375 C-11.22415267 39.76803483 -10.86934353 37.94830836 -10.89898682 34.40209961 C-10.89493835 33.58749268 -10.89088989 32.77288574 -10.88671875 31.93359375 C-10.8886322 31.09771729 -10.89054565 30.26184082 -10.89251709 29.40063477 C-10.89387911 27.63199564 -10.89018151 25.86334652 -10.88183594 24.09472656 C-10.8711365 21.38193381 -10.88173051 18.66980331 -10.89453125 15.95703125 C-10.89320966 14.24088395 -10.89064727 12.52473706 -10.88671875 10.80859375 C-10.89076721 9.99398682 -10.89481567 9.17937988 -10.89898682 8.34008789 C-10.82750176 -0.21162627 -7.60294466 0.04892618 0 0 Z " fill="#000000" transform="translate(100.62109375,88.62890625)"/>
<path d="M0 0 C2.9375 0.4375 2.9375 0.4375 4.9375 2.4375 C5.13740227 5.28290142 5.21726976 8.02887784 5.203125 10.875 C5.20599518 12.1288147 5.20599518 12.1288147 5.20892334 13.40795898 C5.21028536 15.17659811 5.20658776 16.94524723 5.19824219 18.71386719 C5.18754275 21.42665994 5.19813676 24.13879044 5.2109375 26.8515625 C5.20961591 28.5677098 5.20705352 30.28385669 5.203125 32 C5.20717346 32.81460693 5.21122192 33.62921387 5.21539307 34.46850586 C5.16741928 40.20758072 5.16741928 40.20758072 2.9375 42.4375 C0.02000865 42.63748324 -2.80051929 42.71724887 -5.71875 42.703125 C-6.57682251 42.70503845 -7.43489502 42.7069519 -8.31896973 42.70892334 C-10.13468722 42.71028544 -11.95041445 42.70658728 -13.76611328 42.69824219 C-16.5513285 42.68754291 -19.33589868 42.69813653 -22.12109375 42.7109375 C-23.88281393 42.70961591 -25.64453371 42.70705353 -27.40625 42.703125 C-28.24273071 42.70717346 -29.07921143 42.71122192 -29.94104004 42.71539307 C-35.83258166 42.66741834 -35.83258166 42.66741834 -38.0625 40.4375 C-38.375 36.9375 -38.375 36.9375 -38.0625 33.4375 C-34.42943942 31.01545962 -32.74430977 31.20447109 -28.42578125 31.2421875 C-27.12705078 31.24863281 -25.82832031 31.25507813 -24.49023438 31.26171875 C-23.11848693 31.2784294 -21.74674214 31.29535929 -20.375 31.3125 C-18.99154282 31.32253326 -17.60807873 31.33165851 -16.22460938 31.33984375 C-12.83706548 31.36345033 -9.44986928 31.39637963 -6.0625 31.4375 C-6.07821045 30.67606689 -6.0939209 29.91463379 -6.11010742 29.13012695 C-6.17258453 25.6701606 -6.21153172 22.2103131 -6.25 18.75 C-6.27513672 17.55181641 -6.30027344 16.35363281 -6.32617188 15.11914062 C-6.33583984 13.96220703 -6.34550781 12.80527344 -6.35546875 11.61328125 C-6.3711792 10.55020752 -6.38688965 9.48713379 -6.40307617 8.3918457 C-5.86973974 3.76539112 -4.83362485 0.69051784 0 0 Z " fill="#000000" transform="translate(417.0625,368.5625)"/>
<path d="M0 0 C1.25472107 0.00607269 1.25472107 0.00607269 2.53479004 0.01226807 C3.39286255 0.01035461 4.25093506 0.00844116 5.13500977 0.00646973 C6.95072726 0.00510763 8.76645449 0.00880579 10.58215332 0.01715088 C13.36736854 0.02785015 16.15193872 0.01725653 18.93713379 0.00445557 C20.69885397 0.00577716 22.46057374 0.00833954 24.22229004 0.01226807 C25.05877075 0.0082196 25.89525146 0.00417114 26.75708008 0 C32.6486217 0.04797473 32.6486217 0.04797473 34.87854004 2.27789307 C35.07844231 5.12329449 35.1583098 7.8692709 35.14416504 10.71539307 C35.14703522 11.96920776 35.14703522 11.96920776 35.14996338 13.24835205 C35.15132539 15.01699118 35.1476278 16.78564029 35.13928223 18.55426025 C35.12858279 21.267053 35.1391768 23.9791835 35.15197754 26.69195557 C35.15065595 28.40810287 35.14809356 30.12424975 35.14416504 31.84039307 C35.1482135 32.655 35.15226196 33.46960693 35.15643311 34.30889893 C35.10845932 40.04797379 35.10845932 40.04797379 32.87854004 42.27789307 C29.94104004 42.71539307 29.94104004 42.71539307 26.87854004 42.27789307 C23.97249951 38.5585174 23.51687664 35.75044943 23.58557129 31.10211182 C23.59523926 29.94517822 23.60490723 28.78824463 23.61486816 27.59625244 C23.64000488 26.39806885 23.6651416 25.19988525 23.69104004 23.96539307 C23.7045752 22.74787354 23.71811035 21.530354 23.73205566 20.27593994 C23.76734743 17.27613962 23.81665523 14.27724332 23.87854004 11.27789307 C23.01575439 11.2883667 22.15296875 11.29884033 21.26403809 11.30963135 C18.06043483 11.3437329 14.85692414 11.36880163 11.65319824 11.38775635 C10.26709956 11.39780877 8.88102205 11.41145276 7.49499512 11.42877197 C5.50184253 11.45305258 3.50853471 11.46331338 1.51525879 11.47320557 C-0.28358765 11.48891602 -0.28358765 11.48891602 -2.11877441 11.50494385 C-5.12145996 11.27789307 -5.12145996 11.27789307 -8.12145996 9.27789307 C-8.43395996 5.77789307 -8.43395996 5.77789307 -8.12145996 2.27789307 C-5.48960727 -0.35395963 -3.58277127 0.02917445 0 0 Z " fill="#000000" transform="translate(387.1214599609375,88.72210693359375)"/>
<path d="M0 0 C1.423125 0.4021875 1.423125 0.4021875 2.875 0.8125 C4.3724437 3.80738741 3.68749686 6.35014583 3.41796875 9.671875 C2.04207904 27.93648448 2.04207904 27.93648448 9.80078125 43.75 C14.33378654 48.54647652 19.46053717 52.72905744 24.7578125 56.65136719 C27.39933902 59.34772244 27.78324645 61.07736603 27.875 64.8125 C25.875 66.8125 25.875 66.8125 23.14208984 67.20947266 C19.04183592 66.71126515 16.6848888 65.02950535 13.6015625 62.4609375 C13.03164078 61.98669846 12.46171906 61.51245941 11.87452698 61.02384949 C10.04537276 59.44873181 8.26679847 57.83219087 6.5 56.1875 C5.90039459 55.63214569 5.30078918 55.07679138 4.68301392 54.50460815 C-3.54117609 46.58997352 -7.52010933 39.64333191 -8.05401611 28.13470459 C-8.33049017 5.99647405 -8.33049017 5.99647405 -4.74487305 0.82006836 C-3.125 -0.1875 -3.125 -0.1875 0 0 Z " fill="#040404" transform="translate(96.125,229.1875)"/>
<path d="M0 0 C0.66 0.33 1.32 0.66 2 1 C1.23171875 1.8353125 0.4634375 2.670625 -0.328125 3.53125 C-3.1019638 6.86455135 -4.50929737 10.37820268 -5.75 14.5 C-6.06130859 15.45712891 -6.06130859 15.45712891 -6.37890625 16.43359375 C-12.71173551 36.41264866 -9.60577 61.05072792 -0.1875 79.5625 C1 82 1 82 0 85 C-12.96965286 72.26615901 -18.20851861 56.9170622 -18.4375 39.0625 C-18.37345815 26.96773909 -16.73748828 16.05377745 -8 7 C-5.41293552 4.56236885 -2.75892652 2.2407525 0 0 Z " fill="#EDC093" transform="translate(233,298)"/>
<path d="M0 0 C2.13466109 0.45699787 4.25796158 0.96729619 6.375 1.5 C15.05619245 3.43602968 22.67353996 3.37559191 31 0 C32.625 2.25 32.625 2.25 34 5 C32.89316414 8.06499696 31.29899026 9.88798762 28.84765625 11.98046875 C28.23599609 12.50447266 27.62433594 13.02847656 26.99414062 13.56835938 C26.35669922 14.10267578 25.71925781 14.63699219 25.0625 15.1875 C24.42892578 15.73341797 23.79535156 16.27933594 23.14257812 16.84179688 C18.39920281 20.8669324 18.39920281 20.8669324 15 22 C12.55084735 20.3483843 10.33233387 18.68411741 8.0625 16.8125 C7.44181641 16.31685547 6.82113281 15.82121094 6.18164062 15.31054688 C2.9396664 12.69694252 -0.12340743 10.02078267 -3 7 C-1.125 1.125 -1.125 1.125 0 0 Z " fill="#ECBF92" transform="translate(239,398)"/>
<path d="M0 0 C2.20737276 1.69973406 4.29125227 3.41111663 6.375 5.25 C7.48680753 6.21373971 8.59878588 7.1772824 9.7109375 8.140625 C10.25202148 8.61306641 10.79310547 9.08550781 11.35058594 9.57226562 C13.86945259 11.75259898 16.4337847 13.87570093 19 16 C14.57557408 19.71080883 9.82596069 22.84577733 5 26 C0.74006238 22.28776864 -1.86861137 17.66218899 -4.75 12.875 C-5.25660156 12.05128906 -5.76320312 11.22757812 -6.28515625 10.37890625 C-10 4.26092908 -10 4.26092908 -10 2 C-3.92317449 -1.45274177 -3.92317449 -1.45274177 0 0 Z " fill="#ECECF8" transform="translate(227,410)"/>
<path d="M0 0 C2.26071988 0.81154047 4.33878225 1.7090457 6.4375 2.875 C4.67432143 8.0385944 1.77708674 12.50241693 -1.0625 17.125 C-1.56136719 17.95257813 -2.06023437 18.78015625 -2.57421875 19.6328125 C-3.05503906 20.41914063 -3.53585937 21.20546875 -4.03125 22.015625 C-4.46888672 22.73266602 -4.90652344 23.44970703 -5.35742188 24.18847656 C-6.5625 25.875 -6.5625 25.875 -8.5625 26.875 C-11.01919355 25.46402133 -13.34164624 24.01456406 -15.6875 22.4375 C-16.34621094 22.00373047 -17.00492187 21.56996094 -17.68359375 21.12304688 C-19.31462943 20.04750886 -20.93918453 18.96215514 -22.5625 17.875 C-19.31298708 14.58486817 -16.00230207 11.40294717 -12.5625 8.3125 C-11.7375 7.56871094 -10.9125 6.82492187 -10.0625 6.05859375 C-2.96065695 -0.14442229 -2.96065695 -0.14442229 0 0 Z " fill="#ECECF8" transform="translate(285.5625,409.125)"/>
<path d="M0 0 C1.04450317 0.00326294 1.04450317 0.00326294 2.11010742 0.0065918 C4.23278268 0.00974873 6.35405999 -0.01369198 8.4765625 -0.0390625 C9.82486803 -0.04133583 11.17317731 -0.04203883 12.52148438 -0.04101562 C14.36407837 -0.04548706 14.36407837 -0.04548706 16.24389648 -0.05004883 C19.30664062 0.32226562 19.30664062 0.32226562 21.24243164 1.6496582 C22.30664062 3.32226562 22.30664062 3.32226562 22.11914062 6.44726562 C21.85101563 7.39601563 21.58289063 8.34476562 21.30664062 9.32226562 C16.99991121 11.47563033 11.23339058 10.50812041 6.44824219 10.50756836 C4.31490197 10.50975715 2.18207697 10.52792482 0.04882812 10.546875 C-1.3027326 10.54980856 -2.65429579 10.55179361 -4.00585938 10.55273438 C-5.23949219 10.55684326 -6.473125 10.56095215 -7.74414062 10.56518555 C-10.69335938 10.32226562 -10.69335938 10.32226562 -12.69335938 8.32226562 C-12.94335938 5.32226562 -12.94335938 5.32226562 -12.69335938 2.32226562 C-9.30670722 -1.06438653 -4.57181389 0.01892366 0 0 Z " fill="#010304" transform="translate(304.693359375,455.677734375)"/>
<path d="M0 0 C5.25312629 2.19162688 7.24626674 6.21794147 10 11 C10.49371094 11.84433594 10.98742187 12.68867187 11.49609375 13.55859375 C16.62341792 23.79871709 16.53934713 35.67270764 14.21875 46.71875 C11.36932864 55.10419 6.13553674 62.64607974 0 69 C-0.99 69 -1.98 69 -3 69 C-2.55269531 68.47792969 -2.10539062 67.95585937 -1.64453125 67.41796875 C8.99442304 54.46521203 12.15363603 41.62034791 10.7578125 25.140625 C9.43221692 15.780297 4.85615185 7.97278661 0 0 Z " fill="#E21717" transform="translate(294,61)"/>
<path d="M0 0 C1.84765625 0.33984375 1.84765625 0.33984375 4.0625 0.9375 C5.16271484 1.22947266 5.16271484 1.22947266 6.28515625 1.52734375 C7.13400391 1.76130859 7.13400391 1.76130859 8 2 C7.01 2.33 6.02 2.66 5 3 C4.28293018 4.98248715 3.61709587 6.98415349 3 9 C2.34 9.66 1.68 10.32 1 11 C-0.32 9.68 -1.64 8.36 -3 7 C-1.125 1.125 -1.125 1.125 0 0 Z " fill="#D8A775" transform="translate(239,398)"/>
</svg>
