<svg id="svg" version="1.1" xmlns="http://www.w3.org/2000/svg" xmlns:xlink="http://www.w3.org/1999/xlink" width="400" height="400" viewBox="0, 0, 400,400"><g id="svgg"><path id="path0" d="M186.500 0.272 C 185.125 0.364,184.000 0.610,184.000 0.819 C 184.000 1.029,183.100 1.200,182.000 1.200 C 180.900 1.200,180.000 1.380,180.000 1.600 C 180.000 1.820,179.381 2.000,178.624 2.000 C 177.867 2.000,177.136 2.180,177.000 2.400 C 176.864 2.620,176.313 2.800,175.776 2.800 C 175.239 2.800,174.800 2.980,174.800 3.200 C 174.800 3.420,174.260 3.600,173.600 3.600 C 172.940 3.600,172.400 3.780,172.400 4.000 C 172.400 4.220,171.860 4.400,171.200 4.400 C 170.540 4.400,170.000 4.580,170.000 4.800 C 170.000 5.020,169.561 5.200,169.024 5.200 C 168.487 5.200,167.936 5.380,167.800 5.600 C 167.664 5.820,167.203 6.000,166.776 6.000 C 166.349 6.000,166.000 6.180,166.000 6.400 C 166.000 6.620,165.640 6.800,165.200 6.800 C 164.760 6.800,164.400 6.980,164.400 7.200 C 164.400 7.420,164.040 7.600,163.600 7.600 C 163.160 7.600,162.800 7.780,162.800 8.000 C 162.800 8.220,162.502 8.400,162.138 8.400 C 161.391 8.400,156.272 11.154,156.067 11.667 C 155.993 11.850,155.628 12.000,155.255 12.000 C 154.882 12.000,154.317 12.360,154.000 12.800 C 153.683 13.240,153.143 13.600,152.800 13.600 C 152.457 13.600,151.917 13.960,151.600 14.400 C 151.283 14.840,150.831 15.200,150.596 15.200 C 150.360 15.200,149.372 15.920,148.400 16.800 C 147.428 17.680,146.445 18.410,146.216 18.422 C 145.987 18.434,144.990 19.339,144.000 20.434 C 141.956 22.694,140.840 23.817,137.300 27.181 C 135.925 28.487,134.800 29.708,134.800 29.894 C 134.800 30.080,134.080 31.028,133.200 32.000 C 132.320 32.972,131.600 33.960,131.600 34.196 C 131.600 34.431,131.240 34.883,130.800 35.200 C 130.360 35.517,130.000 36.057,130.000 36.400 C 130.000 36.743,129.640 37.283,129.200 37.600 C 128.760 37.917,128.400 38.482,128.400 38.855 C 128.400 39.228,128.245 39.593,128.056 39.667 C 127.576 39.853,124.800 45.090,124.800 45.810 C 124.800 46.135,124.620 46.400,124.400 46.400 C 124.180 46.400,124.000 46.760,124.000 47.200 C 124.000 47.640,123.820 48.000,123.600 48.000 C 123.380 48.000,123.200 48.360,123.200 48.800 C 123.200 49.240,123.020 49.600,122.800 49.600 C 122.580 49.600,122.400 50.140,122.400 50.800 C 122.400 51.460,122.220 52.000,122.000 52.000 C 121.780 52.000,121.600 52.360,121.600 52.800 C 121.600 53.240,121.420 53.600,121.200 53.600 C 120.980 53.600,120.800 54.140,120.800 54.800 C 120.800 55.460,120.620 56.000,120.400 56.000 C 120.180 56.000,120.000 56.540,120.000 57.200 C 120.000 57.860,119.820 58.400,119.600 58.400 C 119.380 58.400,119.200 58.940,119.200 59.600 C 119.200 60.260,119.020 60.800,118.800 60.800 C 118.580 60.800,118.400 61.419,118.400 62.176 C 118.400 62.933,118.220 63.664,118.000 63.800 C 117.780 63.936,117.600 64.847,117.600 65.824 C 117.600 66.801,117.420 67.600,117.200 67.600 C 116.975 67.600,116.800 68.725,116.800 70.176 C 116.800 71.593,116.620 72.864,116.400 73.000 C 116.180 73.136,116.000 74.587,116.000 76.224 C 116.000 77.941,116.169 79.200,116.400 79.200 C 116.620 79.200,116.800 79.478,116.800 79.818 C 116.800 80.578,118.565 82.400,119.302 82.400 C 119.598 82.400,120.052 82.612,120.312 82.872 C 120.668 83.228,121.007 83.232,121.692 82.889 C 122.191 82.638,123.329 82.249,124.219 82.023 C 127.377 81.223,128.240 79.568,129.238 72.400 C 134.254 36.382,169.072 8.895,205.772 11.980 C 211.345 12.448,212.023 12.556,217.329 13.808 C 243.755 20.044,264.630 41.216,270.762 68.000 C 272.086 73.784,272.191 74.976,272.181 84.000 C 272.168 94.810,271.766 97.512,268.783 106.800 C 267.784 109.908,267.804 109.861,265.216 115.315 C 264.090 117.688,261.347 122.458,259.121 125.915 C 254.025 133.829,249.534 140.824,243.015 151.000 C 240.196 155.400,236.140 161.700,234.001 165.000 C 219.774 186.956,220.800 184.935,220.800 191.004 C 220.800 195.200,220.727 195.640,219.863 196.645 C 218.293 198.470,217.611 197.764,217.812 194.521 C 217.904 193.024,218.170 188.470,218.402 184.400 C 218.634 180.330,218.994 174.210,219.202 170.800 C 219.410 167.390,219.771 161.180,220.005 157.000 C 220.239 152.820,220.604 147.060,220.816 144.200 C 221.029 141.340,221.202 137.965,221.201 136.700 L 221.200 134.400 225.100 134.386 C 237.371 134.342,244.726 128.062,245.136 117.280 C 245.729 101.671,228.225 93.051,216.641 103.248 C 212.628 106.780,211.300 109.871,210.646 117.200 L 210.200 122.200 200.000 122.200 L 189.800 122.200 189.340 117.200 C 188.670 109.922,187.474 107.027,183.717 103.594 C 169.460 90.564,147.914 107.121,156.511 124.501 C 159.832 131.216,165.648 134.352,174.838 134.386 L 178.677 134.400 178.946 139.300 C 179.094 141.995,179.392 147.170,179.609 150.800 C 179.825 154.430,180.181 160.505,180.401 164.300 C 180.620 168.095,180.991 174.395,181.225 178.300 C 182.400 197.905,182.386 198.432,180.772 196.456 C 180.110 195.646,180.000 194.862,180.000 190.943 C 180.000 185.281,180.270 185.910,172.988 174.600 C 169.730 169.540,165.689 163.240,164.008 160.600 C 159.733 153.886,154.183 145.253,149.607 138.200 C 138.038 120.369,136.330 117.459,133.171 110.200 C 132.860 109.485,131.080 103.854,129.922 99.924 C 129.258 97.667,127.356 96.058,124.985 95.749 C 123.893 95.606,122.746 95.289,122.435 95.045 C 122.014 94.713,121.827 94.728,121.702 95.100 C 121.609 95.375,121.270 95.600,120.948 95.600 C 120.186 95.600,118.400 97.393,118.400 98.158 C 118.400 98.485,118.220 98.864,118.000 99.000 C 117.780 99.136,117.600 100.216,117.600 101.400 C 117.600 102.584,117.780 103.664,118.000 103.800 C 118.220 103.936,118.400 104.667,118.400 105.424 C 118.400 106.181,118.580 106.800,118.800 106.800 C 119.020 106.800,119.200 107.430,119.200 108.200 C 119.200 108.970,119.380 109.600,119.600 109.600 C 119.820 109.600,120.000 110.140,120.000 110.800 C 120.000 111.460,120.180 112.000,120.400 112.000 C 120.620 112.000,120.800 112.439,120.800 112.976 C 120.800 113.513,120.980 114.064,121.200 114.200 C 121.420 114.336,121.600 114.797,121.600 115.224 C 121.600 115.651,121.780 116.000,122.000 116.000 C 122.220 116.000,122.400 116.349,122.400 116.776 C 122.400 117.203,122.580 117.664,122.800 117.800 C 123.020 117.936,123.200 118.487,123.200 119.024 C 123.200 119.561,123.380 120.000,123.600 120.000 C 123.820 120.000,124.000 120.360,124.000 120.800 C 124.000 121.240,124.180 121.600,124.400 121.600 C 124.620 121.600,124.800 121.847,124.800 122.150 C 124.800 122.806,126.822 126.543,127.280 126.733 C 127.456 126.807,127.600 127.212,127.600 127.633 C 127.600 128.055,127.758 128.400,127.951 128.400 C 128.145 128.400,128.527 128.940,128.800 129.600 C 129.073 130.260,129.433 130.800,129.600 130.800 C 129.767 130.800,130.127 131.340,130.400 132.000 C 130.673 132.660,131.055 133.200,131.249 133.200 C 131.442 133.200,131.600 133.425,131.600 133.700 C 131.601 134.312,133.129 136.043,134.189 136.633 C 134.892 137.024,138.352 142.222,149.881 160.200 C 153.422 165.721,159.639 175.394,165.695 184.800 L 168.141 188.600 168.430 193.600 C 168.826 200.483,170.223 203.425,174.600 206.595 C 177.233 208.503,177.200 208.394,177.205 214.976 C 177.213 225.213,179.982 230.851,186.834 234.580 C 193.111 237.996,208.441 237.792,214.600 234.209 C 220.988 230.494,223.600 224.928,223.600 215.034 C 223.600 208.387,223.564 208.505,226.200 206.595 C 230.575 203.426,231.972 200.484,232.374 193.600 L 232.665 188.600 235.986 183.400 C 237.812 180.540,241.055 175.500,243.191 172.200 C 245.328 168.900,248.949 163.274,251.238 159.697 C 261.903 143.033,265.911 137.021,266.620 136.627 C 267.520 136.127,269.199 134.341,269.200 133.883 C 269.200 133.709,269.560 133.180,270.000 132.708 C 270.440 132.236,270.800 131.613,270.800 131.325 C 270.800 131.036,270.958 130.800,271.151 130.800 C 271.345 130.800,271.727 130.260,272.000 129.600 C 272.273 128.940,272.655 128.400,272.849 128.400 C 273.042 128.400,273.200 128.040,273.200 127.600 C 273.200 127.160,273.362 126.800,273.560 126.800 C 273.759 126.800,274.254 125.991,274.660 125.001 C 275.067 124.012,275.535 123.202,275.700 123.201 C 275.865 123.201,276.000 122.840,276.000 122.400 C 276.000 121.960,276.180 121.600,276.400 121.600 C 276.620 121.600,276.800 121.240,276.800 120.800 C 276.800 120.360,276.980 120.000,277.200 120.000 C 277.420 120.000,277.600 119.651,277.600 119.224 C 277.600 118.797,277.780 118.336,278.000 118.200 C 278.220 118.064,278.400 117.513,278.400 116.976 C 278.400 116.439,278.580 116.000,278.800 116.000 C 279.020 116.000,279.200 115.651,279.200 115.224 C 279.200 114.797,279.380 114.336,279.600 114.200 C 279.820 114.064,280.000 113.513,280.000 112.976 C 280.000 112.439,280.180 112.000,280.400 112.000 C 280.620 112.000,280.800 111.460,280.800 110.800 C 280.800 110.140,280.980 109.600,281.200 109.600 C 281.420 109.600,281.600 108.970,281.600 108.200 C 281.600 107.430,281.780 106.800,282.000 106.800 C 282.220 106.800,282.400 106.181,282.400 105.424 C 282.400 104.667,282.580 103.936,282.800 103.800 C 283.020 103.664,283.200 102.854,283.200 102.000 C 283.200 101.146,283.380 100.336,283.600 100.200 C 283.820 100.064,284.000 98.894,284.000 97.600 C 284.000 96.306,284.180 95.136,284.400 95.000 C 284.651 94.845,284.800 90.737,284.800 84.000 C 284.800 77.263,284.651 73.155,284.400 73.000 C 284.180 72.864,284.000 71.593,284.000 70.176 C 284.000 68.725,283.825 67.600,283.600 67.600 C 283.380 67.600,283.200 66.891,283.200 66.024 C 283.200 65.157,283.020 64.336,282.800 64.200 C 282.580 64.064,282.400 63.333,282.400 62.576 C 282.400 61.819,282.220 61.200,282.000 61.200 C 281.780 61.200,281.600 60.570,281.600 59.800 C 281.600 59.030,281.420 58.400,281.200 58.400 C 280.980 58.400,280.800 57.860,280.800 57.200 C 280.800 56.540,280.620 56.000,280.400 56.000 C 280.180 56.000,280.000 55.460,280.000 54.800 C 280.000 54.140,279.820 53.600,279.600 53.600 C 279.380 53.600,279.200 53.240,279.200 52.800 C 279.200 52.360,279.020 52.000,278.800 52.000 C 278.580 52.000,278.400 51.460,278.400 50.800 C 278.400 50.140,278.220 49.600,278.000 49.600 C 277.780 49.600,277.600 49.240,277.600 48.800 C 277.600 48.360,277.420 48.000,277.200 48.000 C 276.980 48.000,276.800 47.640,276.800 47.200 C 276.800 46.760,276.620 46.400,276.400 46.400 C 276.180 46.400,276.000 46.040,276.000 45.600 C 276.000 45.160,275.820 44.800,275.600 44.800 C 275.380 44.800,275.200 44.545,275.200 44.232 C 275.200 43.519,273.902 41.206,273.500 41.203 C 273.335 41.201,273.200 40.840,273.200 40.400 C 273.200 39.960,273.020 39.600,272.800 39.600 C 272.580 39.600,272.400 39.364,272.400 39.075 C 272.400 38.787,272.040 38.164,271.600 37.692 C 271.160 37.220,270.800 36.691,270.799 36.517 C 270.799 36.343,270.259 35.570,269.600 34.800 C 268.941 34.030,268.401 33.247,268.401 33.060 C 268.400 32.874,267.860 32.217,267.200 31.600 C 266.540 30.983,266.000 30.299,266.000 30.080 C 266.000 29.699,264.667 28.304,259.937 23.736 C 258.762 22.600,257.350 21.152,256.800 20.518 C 256.250 19.884,255.170 18.925,254.400 18.387 C 253.630 17.849,252.478 16.912,251.841 16.304 C 251.203 15.697,250.478 15.200,250.229 15.200 C 249.980 15.200,249.517 14.840,249.200 14.400 C 248.883 13.960,248.343 13.600,248.000 13.600 C 247.657 13.600,247.117 13.240,246.800 12.800 C 246.483 12.360,245.918 12.000,245.545 12.000 C 245.172 12.000,244.807 11.851,244.733 11.668 C 244.538 11.180,239.330 8.400,238.613 8.400 C 238.276 8.400,238.000 8.220,238.000 8.000 C 238.000 7.780,237.640 7.600,237.200 7.600 C 236.760 7.600,236.400 7.420,236.400 7.200 C 236.400 6.980,236.040 6.800,235.600 6.800 C 235.160 6.800,234.800 6.620,234.800 6.400 C 234.800 6.180,234.361 6.000,233.824 6.000 C 233.287 6.000,232.736 5.820,232.600 5.600 C 232.464 5.380,232.003 5.200,231.576 5.200 C 231.149 5.200,230.800 5.020,230.800 4.800 C 230.800 4.580,230.260 4.400,229.600 4.400 C 228.940 4.400,228.400 4.220,228.400 4.000 C 228.400 3.780,227.860 3.600,227.200 3.600 C 226.540 3.600,226.000 3.420,226.000 3.200 C 226.000 2.980,225.460 2.800,224.800 2.800 C 224.140 2.800,223.600 2.620,223.600 2.400 C 223.600 2.180,222.970 2.000,222.200 2.000 C 221.430 2.000,220.800 1.820,220.800 1.600 C 220.800 1.380,219.915 1.200,218.833 1.200 C 217.649 1.200,216.802 1.007,216.705 0.715 C 216.543 0.230,192.468 -0.123,186.500 0.272 M82.400 21.200 C 82.400 21.420,82.124 21.600,81.787 21.600 C 79.927 21.600,78.400 24.244,78.400 27.464 L 78.400 30.554 82.460 34.477 C 84.693 36.635,86.658 38.400,86.827 38.400 C 87.108 38.400,88.377 39.501,91.889 42.792 C 92.597 43.457,93.362 44.000,93.589 44.000 C 93.815 44.000,94.000 44.180,94.000 44.400 C 94.000 44.635,95.404 44.800,97.413 44.800 C 100.970 44.800,103.600 43.360,103.600 41.413 C 103.600 41.076,103.780 40.800,104.000 40.800 C 104.220 40.800,104.400 39.810,104.400 38.600 C 104.400 37.390,104.220 36.400,104.000 36.400 C 103.780 36.400,103.600 36.122,103.600 35.783 C 103.600 35.187,97.456 28.800,96.883 28.800 C 96.727 28.800,95.855 28.125,94.946 27.300 C 94.036 26.475,92.443 25.080,91.404 24.200 C 90.366 23.320,89.278 22.375,88.987 22.100 C 88.695 21.825,88.174 21.600,87.829 21.600 C 87.483 21.600,87.200 21.420,87.200 21.200 C 87.200 20.978,86.133 20.800,84.800 20.800 C 83.467 20.800,82.400 20.978,82.400 21.200 M313.600 21.200 C 313.600 21.420,313.317 21.600,312.971 21.600 C 312.626 21.600,312.105 21.825,311.813 22.100 C 311.522 22.375,310.431 23.320,309.389 24.200 C 308.346 25.080,306.783 26.475,305.914 27.300 C 305.045 28.125,304.177 28.800,303.985 28.800 C 303.364 28.800,297.200 35.144,297.200 35.783 C 297.200 36.122,297.020 36.400,296.800 36.400 C 295.277 36.400,296.587 41.313,298.687 43.475 C 300.000 44.827,306.800 45.603,306.800 44.400 C 306.800 44.180,306.985 44.000,307.211 44.000 C 307.438 44.000,308.203 43.457,308.911 42.792 C 312.423 39.501,313.692 38.400,313.973 38.400 C 314.142 38.400,316.107 36.635,318.340 34.477 L 322.400 30.554 322.400 27.464 C 322.400 24.244,320.873 21.600,319.013 21.600 C 318.676 21.600,318.400 21.420,318.400 21.200 C 318.400 20.978,317.333 20.800,316.000 20.800 C 314.667 20.800,313.600 20.978,313.600 21.200 M93.263 70.400 C 92.572 71.060,91.911 71.600,91.793 71.600 C 91.675 71.600,90.802 72.365,89.852 73.300 C 87.791 75.330,86.569 76.362,85.130 77.289 C 84.542 77.668,82.787 79.235,81.230 80.770 L 78.400 83.561 78.400 86.736 L 78.400 89.911 80.292 91.556 C 83.897 94.689,87.590 93.874,92.803 88.797 C 93.931 87.699,95.018 86.800,95.219 86.800 C 95.421 86.800,96.737 85.648,98.144 84.241 C 99.552 82.833,101.141 81.395,101.675 81.045 C 103.671 79.737,105.608 73.200,104.000 73.200 C 103.780 73.200,103.600 72.924,103.600 72.587 C 103.600 69.410,95.985 67.799,93.263 70.400 M298.500 70.616 C 297.785 71.365,297.200 72.252,297.200 72.589 C 297.200 72.925,297.020 73.200,296.800 73.200 C 295.192 73.200,297.129 79.737,299.125 81.045 C 299.659 81.395,301.248 82.833,302.656 84.241 C 304.063 85.648,305.384 86.800,305.590 86.800 C 305.796 86.800,306.938 87.765,308.126 88.944 C 309.315 90.124,310.853 91.422,311.544 91.830 C 312.235 92.239,312.800 92.714,312.800 92.886 C 312.800 93.639,318.631 93.217,319.508 92.400 C 319.980 91.960,320.480 91.600,320.619 91.600 C 321.655 91.600,322.374 89.620,322.387 86.731 L 322.400 83.661 319.634 80.862 C 318.113 79.323,316.358 77.734,315.734 77.331 C 314.230 76.361,313.031 75.351,310.948 73.300 C 309.998 72.365,309.076 71.600,308.899 71.600 C 308.722 71.600,308.317 71.240,308.000 70.800 C 307.683 70.360,307.193 70.000,306.912 70.000 C 306.630 70.000,306.400 69.820,306.400 69.600 C 306.400 68.385,299.823 69.231,298.500 70.616 M174.760 111.380 C 176.807 112.438,177.979 116.102,177.997 121.500 C 178.005 123.879,169.016 122.451,167.300 119.801 C 164.031 114.752,169.450 108.634,174.760 111.380 M231.244 111.632 C 234.694 114.088,234.284 120.000,230.540 121.796 C 228.316 122.862,221.999 122.643,222.003 121.500 C 222.012 118.853,222.848 113.898,223.438 112.998 C 224.920 110.737,228.988 110.025,231.244 111.632 M62.800 131.671 C 62.030 132.118,61.340 132.645,61.267 132.842 C 61.193 133.039,60.960 133.200,60.748 133.200 C 60.132 133.200,58.400 135.105,58.400 135.782 C 58.400 136.122,58.220 136.400,58.000 136.400 C 57.780 136.400,57.600 136.760,57.600 137.200 C 57.600 137.640,57.420 138.000,57.200 138.000 C 56.980 138.000,56.800 138.360,56.800 138.800 C 56.800 139.240,56.620 139.600,56.400 139.600 C 56.174 139.600,56.000 140.733,56.000 142.200 L 56.000 144.800 43.624 144.800 C 35.804 144.800,31.156 144.947,31.000 145.200 C 30.864 145.420,30.077 145.600,29.252 145.600 C 26.445 145.600,20.000 150.180,20.000 152.174 C 20.000 152.518,19.820 152.800,19.600 152.800 C 19.380 152.800,19.200 153.160,19.200 153.600 C 19.200 154.040,19.020 154.400,18.800 154.400 C 18.534 154.400,18.400 190.867,18.400 263.000 C 18.400 335.133,18.534 371.600,18.800 371.600 C 19.020 371.600,19.200 372.230,19.200 373.000 C 19.200 373.770,19.380 374.400,19.600 374.400 C 19.820 374.400,20.000 374.940,20.000 375.600 C 20.000 376.260,20.180 376.800,20.400 376.800 C 20.620 376.800,20.800 377.340,20.800 378.000 C 20.800 378.660,20.980 379.200,21.200 379.200 C 21.420 379.200,21.600 379.560,21.600 380.000 C 21.600 380.440,21.780 380.800,22.000 380.800 C 22.220 380.800,22.400 381.120,22.400 381.512 C 22.400 381.903,22.760 382.483,23.200 382.800 C 23.640 383.117,24.000 383.697,24.000 384.088 C 24.000 384.480,24.159 384.800,24.354 384.800 C 24.549 384.800,24.989 385.390,25.331 386.111 C 26.039 387.603,31.697 393.200,32.497 393.200 C 32.787 393.200,33.283 393.560,33.600 394.000 C 33.917 394.440,34.457 394.800,34.800 394.800 C 35.143 394.800,35.683 395.160,36.000 395.600 C 36.317 396.040,36.897 396.400,37.288 396.400 C 37.680 396.400,38.000 396.580,38.000 396.800 C 38.000 397.020,38.360 397.200,38.800 397.200 C 39.240 397.200,39.600 397.380,39.600 397.600 C 39.600 397.820,40.140 398.000,40.800 398.000 C 41.460 398.000,42.000 398.180,42.000 398.400 C 42.000 398.620,42.435 398.800,42.967 398.800 C 43.498 398.800,44.008 399.025,44.100 399.300 C 44.345 400.036,355.655 400.036,355.900 399.300 C 355.992 399.025,356.502 398.800,357.033 398.800 C 357.565 398.800,358.000 398.620,358.000 398.400 C 358.000 398.180,358.540 398.000,359.200 398.000 C 359.860 398.000,360.400 397.820,360.400 397.600 C 360.400 397.380,360.760 397.200,361.200 397.200 C 361.640 397.200,362.000 397.020,362.000 396.800 C 362.000 396.580,362.320 396.400,362.712 396.400 C 363.103 396.400,363.683 396.040,364.000 395.600 C 364.317 395.160,364.857 394.800,365.200 394.800 C 365.543 394.800,366.083 394.440,366.400 394.000 C 366.717 393.560,367.213 393.200,367.503 393.200 C 368.303 393.200,373.961 387.603,374.669 386.111 C 375.011 385.390,375.451 384.800,375.646 384.800 C 375.841 384.800,376.000 384.480,376.000 384.088 C 376.000 383.697,376.360 383.117,376.800 382.800 C 377.240 382.483,377.600 381.903,377.600 381.512 C 377.600 381.120,377.780 380.800,378.000 380.800 C 378.220 380.800,378.400 380.440,378.400 380.000 C 378.400 379.560,378.580 379.200,378.800 379.200 C 379.020 379.200,379.200 378.660,379.200 378.000 C 379.200 377.340,379.380 376.800,379.600 376.800 C 379.820 376.800,380.000 376.260,380.000 375.600 C 380.000 374.940,380.180 374.400,380.400 374.400 C 380.620 374.400,380.800 373.781,380.800 373.024 C 380.800 372.267,380.980 371.536,381.200 371.400 C 381.755 371.057,381.755 154.400,381.200 154.400 C 380.980 154.400,380.800 154.040,380.800 153.600 C 380.800 153.160,380.620 152.800,380.400 152.800 C 380.180 152.800,380.000 152.518,380.000 152.174 C 380.000 150.180,373.555 145.600,370.748 145.600 C 369.923 145.600,369.136 145.420,369.000 145.200 C 368.844 144.948,364.329 144.800,356.776 144.800 L 344.800 144.800 344.800 142.200 C 344.800 140.733,344.626 139.600,344.400 139.600 C 344.180 139.600,344.000 139.366,344.000 139.080 C 344.000 138.344,343.059 136.407,342.700 136.403 C 342.535 136.401,342.400 136.122,342.400 135.782 C 342.400 135.086,340.660 133.200,340.018 133.200 C 339.788 133.200,339.600 133.053,339.600 132.874 C 339.600 132.695,338.863 132.155,337.962 131.674 L 336.324 130.800 309.090 130.800 L 281.856 130.800 280.096 132.690 C 278.213 134.712,278.153 135.095,279.262 138.018 C 281.109 142.885,279.237 142.569,307.600 142.800 L 332.200 143.000 332.400 179.871 C 332.598 216.329,332.609 216.754,333.425 217.846 C 335.536 220.673,339.011 221.443,341.538 219.644 C 344.117 217.808,344.000 219.346,344.000 187.263 C 344.000 161.026,344.064 158.061,344.633 157.843 C 346.435 157.151,368.270 157.594,368.942 158.336 C 370.003 159.508,369.759 366.610,368.692 370.150 C 365.897 379.429,358.990 385.830,349.600 387.843 C 345.723 388.674,54.305 388.678,50.400 387.847 C 40.249 385.688,32.921 378.285,30.949 368.200 C 29.972 363.206,30.150 159.150,31.131 158.262 C 31.925 157.544,55.206 157.235,56.297 157.928 C 56.690 158.178,56.815 179.542,56.897 260.422 L 57.000 362.600 58.127 364.896 C 60.265 369.249,64.260 372.290,68.990 373.164 C 72.178 373.754,328.518 373.783,331.645 373.194 C 336.401 372.299,340.588 369.139,342.692 364.855 L 343.800 362.600 343.905 300.490 C 344.021 232.083,344.200 237.051,341.550 235.165 C 339.021 233.363,334.742 234.453,333.105 237.316 C 332.710 238.007,332.556 247.588,332.400 281.200 L 332.200 324.200 282.000 324.432 C 248.247 324.588,231.131 324.806,229.759 325.099 C 221.729 326.808,213.861 330.816,208.210 336.076 C 207.105 337.105,206.527 337.410,206.316 337.078 C 206.149 336.815,206.009 319.410,206.005 298.400 C 205.997 261.224,205.976 260.166,205.216 258.919 C 203.100 255.449,197.265 255.594,195.419 259.162 C 194.874 260.218,194.797 264.864,194.772 298.280 C 194.741 339.299,194.796 338.133,192.997 336.491 C 181.986 326.430,174.935 324.419,150.635 324.407 L 135.470 324.400 133.820 325.367 C 129.938 327.642,130.047 333.356,134.012 335.406 C 134.969 335.901,137.714 336.000,150.480 336.000 C 169.663 336.000,172.414 336.435,179.345 340.565 C 186.326 344.724,192.179 352.723,193.788 360.300 L 194.064 361.600 132.061 361.600 L 70.058 361.600 69.223 360.538 C 68.414 359.510,68.391 359.117,68.494 347.838 L 68.600 336.200 91.000 336.000 C 108.008 335.848,113.613 335.678,114.284 335.295 C 117.205 333.624,118.141 329.509,116.184 326.943 C 114.335 324.520,115.300 324.617,91.000 324.400 L 68.600 324.200 68.600 233.600 L 68.600 143.000 93.200 142.800 C 111.818 142.649,118.012 142.479,118.672 142.101 C 119.855 141.424,121.041 139.674,121.381 138.105 C 121.535 137.392,121.828 136.706,122.031 136.581 C 122.880 136.056,122.313 134.417,120.672 132.656 L 118.944 130.800 91.572 130.828 C 64.797 130.856,64.169 130.875,62.800 131.671 M209.354 134.726 C 209.465 134.906,209.033 143.951,208.394 154.826 C 207.754 165.702,207.024 178.200,206.771 182.600 C 206.517 187.000,206.195 192.130,206.055 194.000 L 205.800 197.400 200.000 197.400 L 194.200 197.400 193.940 193.600 C 192.788 176.781,190.452 135.039,190.646 134.726 C 190.909 134.300,209.091 134.300,209.354 134.726 M83.000 198.084 C 78.576 199.634,77.815 206.035,81.768 208.446 C 83.744 209.651,143.522 209.610,145.504 208.402 C 149.507 205.961,149.193 200.413,144.938 198.413 C 142.943 197.475,85.605 197.171,83.000 198.084 M255.769 198.408 C 251.609 200.467,251.347 205.994,255.296 208.402 C 256.567 209.177,257.371 209.197,286.946 209.199 L 317.291 209.200 318.831 208.334 C 322.775 206.118,322.458 200.277,318.292 198.386 C 315.588 197.158,258.253 197.178,255.769 198.408 M211.828 211.009 C 212.834 216.369,211.498 222.094,208.819 223.899 C 206.784 225.270,194.208 225.281,192.262 223.913 C 189.448 221.936,189.166 221.181,188.904 214.948 L 188.680 209.600 200.122 209.600 L 211.564 209.600 211.828 211.009 M92.887 228.265 C 88.728 230.315,88.703 236.310,92.845 238.423 C 94.634 239.336,159.920 239.665,162.274 238.773 C 167.099 236.945,167.567 230.611,163.038 228.419 C 160.683 227.278,95.180 227.135,92.887 228.265 M238.592 227.940 C 233.716 229.509,233.180 236.163,237.750 238.376 C 240.113 239.520,304.771 239.685,307.597 238.555 C 312.027 236.782,312.184 230.307,307.847 228.249 C 306.432 227.577,240.631 227.283,238.592 227.940 M91.901 257.621 C 89.179 259.865,89.051 263.758,91.620 266.219 L 92.852 267.400 127.326 267.503 C 166.560 267.620,163.780 267.854,165.548 264.287 C 166.790 261.785,166.258 259.400,164.052 257.582 L 162.618 256.400 128.000 256.400 L 93.382 256.400 91.901 257.621 M236.766 257.568 C 233.052 260.628,234.351 266.579,238.912 267.400 C 239.620 267.528,255.476 267.580,274.146 267.516 L 308.092 267.400 309.395 265.892 C 311.720 263.203,311.513 259.775,308.895 257.618 L 307.418 256.400 272.800 256.400 L 238.182 256.400 236.766 257.568 M93.683 285.084 C 88.303 286.115,88.773 295.230,94.253 296.136 C 96.656 296.533,160.004 296.426,161.745 296.023 C 167.414 294.707,167.593 286.179,161.974 285.055 C 160.571 284.774,95.156 284.803,93.683 285.084 M238.617 285.092 C 233.149 286.481,233.439 294.728,239.000 296.012 C 240.796 296.426,303.204 296.549,306.161 296.143 C 312.164 295.321,312.684 286.237,306.796 285.059 C 305.302 284.760,239.798 284.792,238.617 285.092 M332.400 347.746 C 332.400 359.024,332.367 359.534,331.571 360.546 L 330.742 361.600 268.771 361.600 C 232.588 361.600,206.800 361.451,206.800 361.242 C 206.800 353.723,216.651 341.990,226.114 338.239 C 231.646 336.046,230.324 336.097,283.300 336.047 L 332.400 336.000 332.400 347.746 " stroke="none" fill="#050606" fill-rule="evenodd"></path><path id="path1" d="M137.674 141.895 C 140.807 146.666,142.900 149.578,141.776 147.600 C 140.747 145.788,134.740 136.810,134.428 136.617 C 134.226 136.492,135.686 138.867,137.674 141.895 M265.930 137.100 C 265.604 137.485,263.989 139.870,262.343 142.400 C 260.696 144.930,259.025 147.495,258.629 148.100 C 258.206 148.745,258.093 149.200,258.354 149.200 C 258.599 149.200,258.800 149.024,258.800 148.808 C 258.800 148.593,260.586 145.713,262.768 142.408 C 264.951 139.104,266.689 136.400,266.630 136.400 C 266.572 136.400,266.257 136.715,265.930 137.100 M121.429 137.829 C 121.281 138.415,121.251 138.984,121.361 139.094 C 121.471 139.204,121.681 138.815,121.829 138.229 C 121.976 137.642,122.006 137.073,121.896 136.963 C 121.786 136.853,121.576 137.242,121.429 137.829 M278.812 137.600 C 278.812 137.930,278.987 138.470,279.200 138.800 C 279.545 139.333,279.588 139.333,279.588 138.800 C 279.588 138.470,279.413 137.930,279.200 137.600 C 278.855 137.067,278.812 137.067,278.812 137.600 M120.254 140.573 C 118.905 142.632,119.463 142.586,93.200 142.800 L 68.600 143.000 68.499 233.512 C 68.419 305.715,68.500 324.062,68.899 324.209 C 69.761 324.526,113.534 324.616,113.338 324.300 C 113.236 324.135,103.173 324.000,90.976 324.000 L 68.800 324.000 68.800 233.600 L 68.800 143.200 93.020 143.200 C 113.041 143.200,117.427 143.103,118.320 142.638 C 119.582 141.981,121.433 140.100,121.122 139.789 C 121.005 139.671,120.614 140.024,120.254 140.573 M279.613 139.825 C 279.597 140.342,281.471 142.133,282.674 142.751 C 283.291 143.068,290.650 143.200,307.774 143.200 L 332.000 143.200 332.006 179.500 C 332.009 199.465,332.144 216.008,332.306 216.262 C 332.618 216.752,332.520 144.153,332.208 143.300 C 332.064 142.908,326.814 142.800,307.793 142.800 C 281.378 142.800,282.214 142.870,280.454 140.511 C 279.998 139.900,279.620 139.591,279.613 139.825 M142.800 149.815 C 142.800 150.105,147.596 157.295,148.127 157.800 C 148.582 158.233,148.294 157.750,145.177 152.840 C 143.281 149.853,142.800 149.241,142.800 149.815 M255.633 152.824 C 252.505 157.752,252.218 158.233,252.673 157.800 C 253.460 157.050,258.067 149.933,257.883 149.750 C 257.783 149.650,256.770 151.033,255.633 152.824 M31.062 158.331 C 30.142 159.348,30.032 363.512,30.949 368.200 C 32.921 378.285,40.249 385.688,50.400 387.847 C 54.305 388.678,345.723 388.674,349.600 387.843 C 358.990 385.830,365.897 379.429,368.692 370.150 C 369.759 366.610,370.003 159.508,368.942 158.336 C 368.270 157.594,346.435 157.151,344.633 157.843 C 344.064 158.061,344.000 161.026,344.000 187.263 C 344.000 219.346,344.117 217.808,341.538 219.644 C 340.610 220.305,339.714 220.548,338.232 220.542 C 336.399 220.533,336.308 220.573,337.300 220.943 L 338.400 221.354 338.400 227.444 L 338.400 233.533 337.300 233.924 C 336.331 234.269,336.444 234.312,338.244 234.291 C 339.750 234.273,340.621 234.503,341.550 235.165 C 344.200 237.051,344.021 232.083,343.905 300.490 L 343.800 362.600 342.692 364.855 C 340.588 369.139,336.401 372.299,331.645 373.194 C 328.518 373.783,72.178 373.754,68.990 373.164 C 64.260 372.290,60.265 369.249,58.127 364.896 L 57.000 362.600 56.897 260.422 C 56.815 179.542,56.690 158.178,56.297 157.928 C 55.115 157.177,31.769 157.551,31.062 158.331 M46.800 258.927 C 46.800 328.154,46.933 360.599,47.223 362.227 C 48.971 372.028,55.763 379.506,65.600 382.460 C 67.096 382.909,89.876 383.000,200.600 383.000 L 333.800 383.000 336.400 382.047 C 345.931 378.552,351.599 372.089,353.452 362.600 C 353.906 360.277,353.999 342.595,354.000 258.900 L 354.000 158.000 361.192 158.000 C 368.319 158.000,368.387 158.008,368.605 158.900 C 369.111 160.974,368.613 369.547,368.100 370.060 C 367.825 370.335,367.600 370.860,367.600 371.226 C 367.600 373.582,362.699 380.409,359.000 383.207 C 357.673 384.211,353.179 386.400,352.446 386.400 C 352.068 386.400,351.589 386.562,351.380 386.759 C 350.444 387.643,339.414 387.726,201.400 387.882 C 53.863 388.048,52.923 388.041,48.200 386.684 C 41.269 384.693,32.400 376.017,32.400 371.226 C 32.400 370.860,32.175 370.335,31.900 370.060 C 31.387 369.547,30.889 160.974,31.395 158.900 C 31.614 158.006,31.666 158.000,39.208 158.000 L 46.800 158.000 46.800 258.927 M149.247 159.900 C 151.227 163.156,159.300 175.424,159.711 175.800 C 160.217 176.264,159.587 175.227,156.193 170.000 C 154.835 167.910,152.593 164.445,151.209 162.300 C 148.791 158.550,147.366 156.807,149.247 159.900 M249.926 161.700 C 247.587 165.217,246.663 166.800,246.947 166.800 C 247.044 166.800,248.071 165.315,249.229 163.500 C 250.387 161.685,251.595 159.795,251.913 159.300 C 252.232 158.805,252.408 158.400,252.306 158.400 C 252.204 158.400,251.133 159.885,249.926 161.700 M244.329 170.500 C 241.463 174.818,240.558 176.290,241.073 175.800 C 241.829 175.080,246.970 167.200,246.684 167.200 C 246.594 167.200,245.534 168.685,244.329 170.500 M160.000 176.618 C 160.000 176.895,163.973 182.865,164.513 183.400 C 165.075 183.956,164.638 183.189,162.294 179.500 C 160.475 176.639,160.000 176.042,160.000 176.618 M238.382 179.683 C 235.471 184.244,234.987 185.064,235.473 184.600 C 236.262 183.848,240.866 176.733,240.682 176.549 C 240.582 176.448,239.546 177.858,238.382 179.683 M166.431 186.700 C 167.448 188.400,168.000 189.094,168.000 188.671 C 168.000 188.306,165.955 185.200,165.714 185.200 C 165.616 185.200,165.938 185.875,166.431 186.700 M233.414 187.435 C 233.041 188.004,232.805 188.538,232.889 188.622 C 232.973 188.707,233.358 188.241,233.744 187.588 C 234.606 186.128,234.348 186.009,233.414 187.435 M168.177 193.800 C 168.327 200.464,170.178 204.270,174.637 207.087 L 176.399 208.200 176.447 213.600 C 176.473 216.570,176.632 219.540,176.800 220.200 C 176.983 220.921,177.124 218.916,177.153 215.176 C 177.205 208.361,177.250 208.515,174.600 206.595 C 170.287 203.471,168.829 200.468,168.387 193.800 L 168.068 189.000 168.177 193.800 M232.479 192.400 C 232.431 194.270,232.304 196.520,232.197 197.400 L 232.003 199.000 232.416 197.687 C 232.644 196.965,232.770 194.715,232.698 192.687 L 232.566 189.000 232.479 192.400 M82.200 198.000 C 81.908 198.473,82.299 198.473,83.400 198.000 C 84.171 197.669,84.169 197.655,83.324 197.628 C 82.842 197.613,82.336 197.780,82.200 198.000 M145.048 198.440 C 146.041 198.922,146.987 199.781,147.430 200.604 C 147.834 201.354,148.231 201.902,148.312 201.821 C 149.064 201.069,145.478 197.576,144.000 197.621 C 143.670 197.632,144.141 198.000,145.048 198.440 M254.919 198.384 C 253.778 199.080,252.108 201.441,252.488 201.821 C 252.569 201.902,252.967 201.352,253.373 200.599 C 253.813 199.782,254.774 198.900,255.755 198.415 C 256.660 197.967,257.130 197.601,256.800 197.602 C 256.470 197.602,255.624 197.954,254.919 198.384 M318.292 198.386 C 320.661 199.461,321.687 201.223,321.491 203.881 C 321.406 205.026,321.486 205.870,321.669 205.758 C 323.744 204.475,320.099 197.577,317.362 197.609 C 316.924 197.614,317.318 197.944,318.292 198.386 M80.520 199.300 C 78.585 201.424,78.210 204.428,79.596 206.700 C 80.684 208.486,80.985 208.342,80.001 206.506 C 78.657 203.998,78.985 201.424,80.920 199.300 C 81.371 198.805,81.649 198.400,81.539 198.400 C 81.429 198.400,80.971 198.805,80.520 199.300 M230.902 201.106 C 230.438 202.148,229.577 203.507,228.989 204.126 C 228.400 204.746,227.997 205.331,228.093 205.426 C 228.383 205.717,230.805 202.486,231.446 200.953 C 232.349 198.790,231.873 198.924,230.902 201.106 M252.093 203.600 C 252.093 204.370,252.175 204.685,252.276 204.300 C 252.376 203.915,252.376 203.285,252.276 202.900 C 252.175 202.515,252.093 202.830,252.093 203.600 M147.516 206.417 C 145.820 209.373,147.839 209.215,113.338 209.101 C 96.364 209.046,82.560 209.135,82.662 209.300 C 82.764 209.465,96.670 209.600,113.564 209.600 L 144.282 209.600 145.604 208.700 C 146.976 207.766,148.682 205.748,148.366 205.432 C 148.266 205.333,147.884 205.776,147.516 206.417 M252.401 205.338 C 252.398 206.212,253.874 208.007,255.218 208.762 C 256.695 209.592,256.993 209.600,287.160 209.600 C 318.421 209.600,318.274 209.607,319.913 208.100 C 320.715 207.363,320.198 207.491,318.710 208.399 C 317.431 209.178,316.677 209.197,287.000 209.197 C 252.929 209.197,255.074 209.381,253.198 206.304 C 252.761 205.587,252.402 205.152,252.401 205.338 M225.810 206.850 C 223.566 208.536,223.609 208.375,223.646 215.000 C 223.666 218.619,223.807 220.603,224.000 220.000 C 224.176 219.450,224.338 216.567,224.360 213.594 L 224.400 208.189 226.000 207.200 C 226.880 206.656,227.600 206.074,227.600 205.906 C 227.600 205.498,227.629 205.483,225.810 206.850 M188.904 214.948 C 189.166 221.181,189.448 221.936,192.262 223.913 C 194.208 225.281,206.784 225.270,208.819 223.899 C 211.498 222.094,212.834 216.369,211.828 211.009 L 211.564 209.600 200.122 209.600 L 188.680 209.600 188.904 214.948 M332.800 217.470 C 332.800 218.003,335.203 220.400,335.736 220.400 C 335.979 220.400,335.789 220.128,335.314 219.795 C 334.839 219.462,334.079 218.718,333.625 218.141 C 333.171 217.564,332.800 217.262,332.800 217.470 M177.246 222.400 C 177.227 222.950,177.387 223.670,177.600 224.000 C 178.094 224.764,178.094 223.942,177.600 222.400 L 177.280 221.400 177.246 222.400 M223.245 222.200 C 223.210 222.640,222.755 224.035,222.235 225.300 C 221.715 226.565,221.369 227.600,221.467 227.600 C 221.900 227.600,223.624 223.000,223.475 222.243 C 223.318 221.447,223.305 221.445,223.245 222.200 M178.000 224.953 C 178.000 225.382,179.190 227.600,179.421 227.600 C 179.531 227.600,179.323 227.015,178.959 226.300 C 178.217 224.840,178.000 224.536,178.000 224.953 M93.462 227.500 C 93.360 227.665,108.586 227.752,127.298 227.693 C 166.124 227.572,163.827 227.378,165.544 230.918 C 165.993 231.843,166.369 232.366,166.380 232.080 C 166.436 230.634,164.731 228.616,162.681 227.700 C 161.423 227.138,93.806 226.943,93.462 227.500 M238.538 227.506 C 238.284 227.668,253.702 227.800,272.800 227.800 C 291.898 227.800,307.316 227.668,307.062 227.506 C 306.808 227.344,291.390 227.212,272.800 227.212 C 254.210 227.212,238.792 227.344,238.538 227.506 M90.865 229.448 C 89.784 230.759,88.869 233.402,89.334 233.868 C 89.437 233.970,89.646 233.310,89.800 232.401 C 89.988 231.290,90.530 230.297,91.453 229.374 C 92.208 228.618,92.654 228.000,92.442 228.000 C 92.231 228.000,91.521 228.652,90.865 229.448 M179.604 228.286 C 179.599 228.920,185.080 234.401,185.714 234.396 C 185.981 234.393,185.593 233.913,184.850 233.328 C 183.143 231.983,182.017 230.857,180.672 229.150 C 180.087 228.407,179.607 228.019,179.604 228.286 M220.303 228.888 C 219.517 230.072,217.741 231.907,215.992 233.341 C 214.400 234.645,215.163 234.335,217.075 232.900 C 218.534 231.805,221.385 228.451,221.099 228.166 C 220.994 228.061,220.636 228.386,220.303 228.888 M236.120 228.900 C 235.130 229.986,234.394 231.357,234.416 232.074 C 234.424 232.363,234.675 232.040,234.973 231.356 C 235.271 230.672,236.027 229.637,236.653 229.056 C 237.279 228.475,237.600 228.000,237.366 228.000 C 237.131 228.000,236.571 228.405,236.120 228.900 M309.387 229.413 C 310.799 230.826,311.040 231.639,310.848 234.350 C 310.715 236.231,309.712 237.587,307.817 238.448 C 306.593 239.004,306.419 239.185,307.100 239.191 C 309.425 239.214,311.793 235.240,311.305 232.134 C 311.105 230.857,309.068 228.000,308.358 228.000 C 308.146 228.000,308.609 228.636,309.387 229.413 M89.646 235.100 C 89.591 236.173,92.457 239.209,93.500 239.182 C 93.925 239.172,93.635 238.866,92.760 238.403 C 91.290 237.627,90.247 236.383,89.892 234.983 C 89.716 234.290,89.687 234.303,89.646 235.100 M165.817 235.200 C 165.399 236.553,164.054 237.989,162.600 238.635 C 161.829 238.978,161.655 239.174,162.114 239.184 C 163.700 239.219,166.729 235.970,166.296 234.699 C 166.202 234.425,165.986 234.650,165.817 235.200 M234.400 234.753 C 234.399 236.349,237.147 239.200,238.686 239.200 C 239.079 239.200,238.648 238.827,237.728 238.372 C 236.555 237.791,235.809 237.045,235.228 235.872 C 234.773 234.952,234.400 234.449,234.400 234.753 M334.076 235.647 C 333.374 236.334,332.805 237.099,332.812 237.347 C 332.819 237.596,333.002 237.496,333.219 237.124 C 333.436 236.752,334.195 235.989,334.906 235.428 C 335.618 234.868,336.009 234.407,335.776 234.404 C 335.543 234.402,334.778 234.961,334.076 235.647 M190.000 236.400 C 190.330 236.613,191.050 236.773,191.600 236.754 L 192.600 236.720 191.600 236.400 C 190.058 235.906,189.236 235.906,190.000 236.400 M209.200 236.400 C 208.376 236.664,208.341 236.726,209.000 236.754 C 209.440 236.773,210.070 236.613,210.400 236.400 C 211.101 235.947,210.614 235.947,209.200 236.400 M196.700 237.098 C 198.735 237.171,202.065 237.171,204.100 237.098 C 206.135 237.025,204.470 236.966,200.400 236.966 C 196.330 236.966,194.665 237.025,196.700 237.098 M332.252 238.900 C 332.119 239.395,332.008 258.745,332.005 281.900 L 332.000 324.000 282.700 324.040 C 255.585 324.062,232.984 324.197,232.475 324.340 C 231.967 324.483,254.103 324.550,281.666 324.489 C 309.229 324.429,331.916 324.244,332.080 324.080 C 332.311 323.849,332.776 238.000,332.547 238.000 C 332.517 238.000,332.385 238.405,332.252 238.900 M111.500 239.500 C 120.575 239.560,135.425 239.560,144.500 239.500 C 153.575 239.440,146.150 239.391,128.000 239.391 C 109.850 239.391,102.425 239.440,111.500 239.500 M256.300 239.500 C 265.375 239.560,280.225 239.560,289.300 239.500 C 298.375 239.440,290.950 239.391,272.800 239.391 C 254.650 239.391,247.225 239.440,256.300 239.500 M92.318 256.656 C 88.913 258.452,88.365 263.571,91.294 266.219 L 92.600 267.400 91.485 266.162 C 89.054 263.464,89.232 259.821,91.901 257.621 L 93.382 256.400 128.000 256.400 L 162.618 256.400 164.209 257.634 L 165.800 258.869 164.233 257.434 L 162.667 256.000 128.033 256.042 C 98.865 256.078,93.229 256.175,92.318 256.656 M196.189 257.789 L 194.400 259.579 194.496 298.089 L 194.592 336.600 194.796 298.200 C 195.018 256.431,194.880 258.671,197.326 257.180 C 199.843 255.645,203.928 256.518,205.274 258.879 C 205.695 259.615,205.841 267.549,206.004 298.400 L 206.208 337.000 206.304 298.680 C 206.410 256.377,206.569 259.085,203.863 257.021 C 201.503 255.221,198.452 255.527,196.189 257.789 M236.207 257.731 C 235.213 258.684,234.415 259.809,234.433 260.231 C 234.456 260.779,234.625 260.635,235.022 259.728 C 235.329 259.029,236.186 257.994,236.927 257.428 L 238.276 256.400 272.847 256.400 L 307.418 256.400 308.895 257.618 C 311.486 259.753,311.711 262.878,309.485 265.800 L 308.266 267.400 309.539 266.219 C 312.349 263.613,311.976 259.150,308.772 257.029 L 307.217 256.000 272.616 256.000 L 238.014 256.000 236.207 257.731 M165.628 259.476 C 165.718 260.515,166.344 261.396,166.372 260.524 C 166.387 260.042,166.220 259.536,166.000 259.400 C 165.780 259.264,165.613 259.298,165.628 259.476 M165.400 264.560 C 163.816 267.807,166.244 267.619,127.338 267.503 C 108.384 267.446,93.084 267.532,93.338 267.694 C 93.592 267.856,109.208 267.991,128.041 267.994 L 162.282 268.000 163.619 267.099 C 164.965 266.192,166.585 263.904,166.335 263.264 C 166.261 263.074,165.840 263.658,165.400 264.560 M234.635 264.000 C 234.951 265.231,236.244 266.691,237.680 267.438 C 238.861 268.053,306.508 268.301,307.462 267.694 C 307.716 267.532,292.204 267.400,272.991 267.400 C 233.626 267.400,236.803 267.654,235.089 264.365 C 234.572 263.372,234.449 263.272,234.635 264.000 M92.952 284.975 C 91.269 285.707,89.715 287.849,89.451 289.800 L 89.234 291.400 89.686 289.645 C 91.005 284.512,89.144 284.735,129.462 284.880 C 147.756 284.946,162.516 284.868,162.262 284.706 C 161.336 284.117,94.325 284.377,92.952 284.975 M237.594 285.141 C 236.241 285.859,234.398 288.065,234.402 288.959 C 234.403 289.202,234.812 288.725,235.312 287.901 C 237.208 284.768,234.266 285.014,271.400 284.880 C 289.660 284.815,305.371 284.872,306.313 285.007 C 310.886 285.664,312.604 291.310,309.254 294.671 C 308.338 295.590,308.123 295.958,308.672 295.665 C 312.627 293.562,312.046 286.748,307.760 284.958 C 305.406 283.974,239.465 284.146,237.594 285.141 M164.118 286.142 C 164.734 286.722,165.492 287.782,165.803 288.498 C 166.114 289.214,166.375 289.530,166.383 289.200 C 166.405 288.262,164.940 286.102,163.921 285.570 C 163.130 285.156,163.158 285.237,164.118 286.142 M89.654 292.300 C 89.554 293.958,92.393 296.294,94.867 296.588 C 100.324 297.239,162.151 296.627,163.461 295.910 C 164.760 295.199,166.425 292.932,166.367 291.953 C 166.349 291.649,166.096 291.940,165.804 292.600 C 165.043 294.323,163.512 295.612,161.739 296.024 C 160.003 296.427,96.651 296.532,94.253 296.136 C 92.512 295.848,90.168 293.799,89.884 292.317 L 89.709 291.400 89.654 292.300 M234.416 291.953 C 234.387 292.952,236.053 295.206,237.339 295.910 C 238.700 296.655,303.673 297.218,306.413 296.509 C 307.070 296.339,292.890 296.256,274.903 296.323 C 235.325 296.473,236.696 296.600,234.963 292.620 C 234.670 291.949,234.424 291.649,234.416 291.953 M134.358 324.532 C 132.983 325.150,132.054 325.947,131.522 326.967 C 131.191 327.604,131.324 327.550,132.089 326.739 C 134.393 324.296,134.058 324.333,152.460 324.473 C 161.698 324.543,168.838 324.483,168.328 324.340 C 166.579 323.850,135.487 324.026,134.358 324.532 M114.476 325.219 C 114.848 325.436,115.611 326.195,116.172 326.906 C 116.732 327.618,117.193 328.009,117.196 327.776 C 117.202 327.199,114.816 324.797,114.253 324.812 C 114.004 324.819,114.104 325.002,114.476 325.219 M169.633 324.945 C 169.725 325.025,170.601 325.192,171.579 325.318 C 172.730 325.465,173.154 325.416,172.779 325.179 C 172.245 324.840,169.258 324.619,169.633 324.945 M228.021 325.179 C 227.646 325.416,228.070 325.465,229.221 325.318 C 230.199 325.192,231.075 325.025,231.167 324.945 C 231.542 324.619,228.555 324.840,228.021 325.179 M175.784 326.404 C 177.095 326.823,178.246 327.087,178.341 326.992 C 178.437 326.897,178.174 326.710,177.757 326.577 C 177.341 326.444,176.587 326.170,176.081 325.967 C 175.576 325.765,174.766 325.610,174.281 325.622 C 173.797 325.633,174.473 325.986,175.784 326.404 M224.600 325.994 C 224.160 326.180,223.459 326.442,223.043 326.576 C 222.626 326.710,222.363 326.897,222.459 326.992 C 222.554 327.087,223.705 326.823,225.016 326.404 C 226.376 325.970,226.970 325.645,226.400 325.649 C 225.850 325.652,225.040 325.807,224.600 325.994 M130.643 328.633 C 130.307 329.509,130.349 331.301,130.720 331.885 C 130.890 332.152,131.029 331.387,131.029 330.185 C 131.029 327.800,131.002 327.695,130.643 328.633 M180.833 328.149 C 181.245 328.517,183.600 329.600,183.600 329.421 C 183.600 329.190,181.382 328.000,180.953 328.000 C 180.796 328.000,180.742 328.067,180.833 328.149 M117.314 330.200 C 117.317 331.300,117.395 331.703,117.487 331.095 C 117.579 330.486,117.577 329.586,117.482 329.095 C 117.387 328.603,117.311 329.100,117.314 330.200 M216.100 329.826 C 213.771 331.222,213.942 331.496,216.300 330.146 C 218.572 328.845,218.635 328.799,218.167 328.804 C 217.965 328.806,217.035 329.266,216.100 329.826 M184.220 329.936 C 184.848 330.492,187.600 332.079,187.600 331.886 C 187.600 331.645,184.494 329.600,184.129 329.600 C 183.970 329.600,184.011 329.751,184.220 329.936 M189.000 333.009 C 192.548 336.207,194.716 337.848,192.335 335.533 C 191.279 334.506,189.827 333.274,189.108 332.796 L 187.800 331.927 189.000 333.009 M211.185 333.232 L 209.800 334.463 211.088 333.613 C 212.230 332.859,213.093 332.000,212.708 332.000 C 212.632 332.000,211.947 332.554,211.185 333.232 M116.224 333.419 C 115.857 333.980,114.981 334.789,114.278 335.218 C 113.445 335.726,113.239 335.998,113.687 335.999 C 114.410 336.000,117.200 333.449,117.200 332.787 C 117.200 332.162,116.935 332.334,116.224 333.419 M131.200 333.130 C 131.200 333.312,131.679 333.897,132.263 334.430 L 133.327 335.400 132.388 334.100 C 131.412 332.748,131.200 332.575,131.200 333.130 M207.774 336.107 L 206.200 337.799 207.796 336.399 C 208.673 335.630,209.468 334.955,209.562 334.900 C 209.656 334.845,209.647 334.713,209.541 334.607 C 209.435 334.501,208.640 335.176,207.774 336.107 M68.581 336.505 C 68.474 336.783,68.438 342.138,68.500 348.405 L 68.613 359.800 68.706 348.103 L 68.800 336.407 90.700 336.300 L 112.600 336.193 90.687 336.097 C 73.337 336.020,68.735 336.105,68.581 336.505 M137.200 336.264 C 140.943 336.512,168.914 336.589,167.784 336.347 C 167.133 336.208,159.580 336.106,151.000 336.119 C 142.420 336.133,136.210 336.198,137.200 336.264 M233.021 336.347 C 232.372 336.486,254.375 336.550,281.915 336.488 L 331.988 336.376 332.100 348.088 L 332.213 359.800 332.306 347.900 L 332.400 336.000 283.300 336.047 C 256.295 336.073,233.669 336.208,233.021 336.347 M170.200 337.200 C 170.640 337.389,171.360 337.544,171.800 337.544 L 172.600 337.544 171.800 337.200 C 171.360 337.011,170.640 336.856,170.200 336.856 L 169.400 336.856 170.200 337.200 M229.000 337.200 L 228.200 337.544 229.000 337.544 C 229.440 337.544,230.160 337.389,230.600 337.200 L 231.400 336.856 230.600 336.856 C 230.160 336.856,229.440 337.011,229.000 337.200 M172.974 337.957 C 173.124 338.201,173.515 338.400,173.843 338.400 C 174.171 338.400,175.181 338.759,176.089 339.197 C 176.996 339.636,177.805 339.929,177.885 339.849 C 178.051 339.683,175.087 338.256,173.650 337.809 C 172.997 337.607,172.786 337.653,172.974 337.957 M225.800 338.378 C 224.920 338.795,224.380 339.136,224.600 339.138 C 225.146 339.142,228.302 337.664,227.800 337.640 C 227.580 337.630,226.680 337.962,225.800 338.378 M178.400 340.120 C 178.400 340.212,179.384 340.940,180.586 341.738 C 184.635 344.427,188.977 349.447,190.959 353.732 C 191.349 354.575,191.756 355.177,191.864 355.070 C 192.371 354.562,188.384 348.322,185.853 345.663 C 184.021 343.738,178.400 339.557,178.400 340.120 M219.363 341.958 C 214.288 345.556,206.767 355.700,208.150 357.083 C 208.277 357.210,208.492 356.974,208.628 356.557 C 210.321 351.357,215.280 345.014,220.215 341.738 C 222.172 340.438,222.688 340.000,222.263 340.000 C 222.187 340.000,220.882 340.881,219.363 341.958 M192.834 358.200 C 192.822 358.640,192.987 359.270,193.200 359.600 C 193.714 360.395,193.714 359.396,193.200 358.200 L 192.856 357.400 192.834 358.200 M207.429 358.629 C 207.281 359.215,207.251 359.784,207.361 359.894 C 207.471 360.004,207.681 359.615,207.829 359.029 C 207.976 358.442,208.006 357.873,207.896 357.763 C 207.786 357.653,207.576 358.042,207.429 358.629 M69.458 360.819 C 69.930 361.301,70.511 361.628,70.749 361.547 C 70.987 361.466,70.601 361.073,69.891 360.672 L 68.600 359.945 69.458 360.819 M330.600 360.827 C 329.865 361.298,329.647 361.597,330.038 361.598 C 330.389 361.599,331.002 361.240,331.400 360.800 C 332.279 359.828,332.153 359.833,330.600 360.827 " stroke="none" fill="#86cedd" fill-rule="evenodd"></path><path id="path2" d="M122.177 137.500 C 121.782 139.316,121.078 140.530,119.624 141.900 L 118.244 143.200 93.765 143.200 C 71.812 143.200,69.261 143.265,69.043 143.833 C 68.909 144.181,68.800 184.861,68.800 234.233 L 68.800 324.000 91.400 324.000 C 104.211 324.000,114.000 324.153,114.000 324.353 C 114.000 324.548,114.333 324.794,114.739 324.900 C 118.724 325.942,118.805 333.239,114.859 335.693 L 113.400 336.600 91.294 336.716 L 69.188 336.832 69.294 348.504 L 69.400 360.177 70.400 360.682 C 71.827 361.404,194.002 361.442,193.280 360.720 C 193.016 360.456,192.800 359.747,192.800 359.144 C 192.800 358.541,192.620 357.936,192.400 357.800 C 192.180 357.664,192.000 357.113,192.000 356.576 C 192.000 356.039,191.820 355.600,191.600 355.600 C 191.380 355.600,191.200 355.335,191.200 355.012 C 191.200 352.087,181.057 340.800,178.428 340.800 C 178.193 340.800,178.000 340.664,178.000 340.498 C 178.000 340.331,177.415 339.956,176.700 339.664 C 175.985 339.372,175.040 338.976,174.600 338.785 C 170.836 337.145,169.813 337.056,152.200 336.825 C 135.788 336.610,134.936 336.562,133.601 335.778 C 129.131 333.152,129.299 327.147,133.917 324.500 C 135.029 323.863,169.409 323.767,169.800 324.400 C 169.936 324.620,170.746 324.800,171.600 324.800 C 172.454 324.800,173.264 324.980,173.400 325.200 C 173.536 325.420,174.179 325.600,174.829 325.600 C 175.479 325.600,176.323 325.759,176.705 325.953 C 177.087 326.148,177.850 326.488,178.400 326.710 C 184.008 328.971,189.042 331.976,191.948 334.796 C 192.857 335.678,193.781 336.400,194.000 336.400 C 194.264 336.400,194.400 323.237,194.400 297.800 L 194.400 259.200 195.950 257.650 C 198.498 255.102,202.301 255.101,204.848 257.648 L 206.396 259.196 206.498 298.053 L 206.600 336.910 208.600 335.020 C 212.055 331.755,221.229 326.400,223.368 326.400 C 223.690 326.400,224.064 326.220,224.200 326.000 C 224.336 325.780,225.067 325.600,225.824 325.600 C 226.581 325.600,227.200 325.420,227.200 325.200 C 227.200 324.980,227.999 324.800,228.976 324.800 C 229.953 324.800,230.864 324.620,231.000 324.400 C 231.163 324.137,248.471 324.000,281.624 324.000 L 332.000 324.000 332.000 281.387 C 332.000 246.093,332.095 238.553,332.551 237.487 C 333.290 235.759,335.111 234.145,336.700 233.810 L 338.000 233.536 338.000 227.418 L 338.000 221.300 336.856 221.071 C 335.322 220.764,333.217 218.938,332.546 217.332 C 332.099 216.262,332.000 209.560,332.000 180.246 C 332.000 160.566,331.891 144.181,331.757 143.833 C 331.539 143.265,328.989 143.200,307.048 143.200 L 282.582 143.200 281.147 142.017 C 279.744 140.861,279.111 139.726,278.625 137.500 L 278.385 136.400 272.692 136.410 L 267.000 136.420 263.300 142.008 C 261.265 145.081,259.600 147.777,259.600 147.998 C 259.600 148.219,259.420 148.400,259.200 148.400 C 258.980 148.400,258.800 148.670,258.800 149.000 C 258.800 149.330,258.620 149.600,258.400 149.600 C 258.180 149.600,258.000 149.870,258.000 150.200 C 258.000 150.530,257.820 150.800,257.600 150.800 C 257.380 150.800,257.200 150.971,257.200 151.180 C 257.200 151.389,255.829 153.684,254.152 156.280 C 252.476 158.876,250.768 161.540,250.356 162.200 C 249.945 162.860,247.986 165.879,246.004 168.909 C 244.022 171.938,242.400 174.511,242.400 174.625 C 242.400 174.740,242.040 175.220,241.600 175.692 C 241.160 176.164,240.800 176.787,240.800 177.075 C 240.800 177.364,240.620 177.600,240.400 177.600 C 240.180 177.600,240.000 177.771,240.000 177.979 C 240.000 178.188,238.470 180.707,236.600 183.577 L 233.200 188.795 233.200 192.378 C 233.200 199.545,230.209 205.624,225.701 207.619 L 224.435 208.180 224.282 214.790 C 224.024 225.960,221.348 231.251,213.970 235.184 C 207.483 238.641,193.243 238.592,186.644 235.090 C 179.493 231.295,176.801 225.892,176.528 214.790 L 176.365 208.180 175.099 207.619 C 170.704 205.674,167.600 199.492,167.600 192.685 L 167.600 188.826 164.200 183.600 C 162.330 180.726,160.800 178.200,160.800 177.987 C 160.800 177.774,160.642 177.600,160.449 177.600 C 160.255 177.600,159.873 177.060,159.600 176.400 C 159.327 175.740,158.945 175.200,158.751 175.200 C 158.558 175.200,158.400 175.015,158.400 174.789 C 158.400 174.564,156.780 171.958,154.800 169.000 C 152.820 166.042,151.200 163.519,151.200 163.394 C 151.200 163.270,150.859 162.680,150.442 162.084 C 148.302 159.024,142.800 150.309,142.800 149.979 C 142.800 149.771,142.620 149.600,142.400 149.600 C 142.180 149.600,142.000 149.330,142.000 149.000 C 142.000 148.670,141.820 148.400,141.600 148.400 C 141.380 148.400,141.200 148.130,141.200 147.800 C 141.200 147.470,141.020 147.200,140.800 147.200 C 140.580 147.200,140.400 147.013,140.400 146.785 C 140.400 146.556,139.320 144.763,138.000 142.800 C 136.680 140.837,135.600 139.044,135.600 138.815 C 135.600 138.587,135.450 138.400,135.268 138.400 C 135.085 138.400,134.694 137.950,134.400 137.400 C 133.867 136.405,133.837 136.400,128.140 136.400 L 122.415 136.400 122.177 137.500 M145.546 198.019 C 149.340 200.154,150.033 204.788,147.011 207.811 L 145.221 209.600 113.611 209.600 C 92.804 209.600,82.000 209.463,82.000 209.200 C 82.000 208.980,81.799 208.800,81.553 208.800 C 79.006 208.800,77.806 202.378,79.852 199.697 C 81.809 197.131,80.412 197.233,113.746 197.216 C 143.595 197.200,144.115 197.213,145.546 198.019 M318.662 197.856 C 322.918 199.876,323.307 206.128,319.339 208.730 L 318.011 209.600 286.795 209.600 L 255.579 209.600 253.789 207.811 C 250.787 204.808,251.451 200.206,255.200 198.031 C 257.170 196.888,316.278 196.725,318.662 197.856 M163.290 227.700 C 166.620 229.594,167.706 233.385,165.833 236.580 C 164.859 238.242,164.185 238.711,161.572 239.545 C 159.437 240.225,96.704 240.185,94.147 239.501 C 92.106 238.955,89.600 236.796,89.600 235.584 C 89.600 235.179,89.420 234.736,89.200 234.600 C 88.980 234.464,88.800 233.924,88.800 233.400 C 88.800 232.876,88.980 232.336,89.200 232.200 C 89.420 232.064,89.600 231.676,89.600 231.338 C 89.600 230.415,91.093 228.502,92.318 227.856 C 93.824 227.061,161.904 226.912,163.290 227.700 M308.329 227.824 C 313.446 230.377,312.359 237.976,306.659 239.500 C 304.169 240.166,241.236 240.228,239.160 239.567 C 236.775 238.808,236.050 238.314,235.013 236.748 C 232.963 233.651,233.982 229.835,237.424 227.724 C 238.752 226.908,306.686 227.005,308.329 227.824 M164.132 256.921 C 168.034 259.898,167.671 265.062,163.388 267.487 L 161.800 268.387 128.087 268.393 C 91.439 268.401,92.826 268.484,90.793 266.154 C 87.428 262.299,89.179 257.008,94.200 255.862 C 94.640 255.762,110.224 255.707,128.831 255.740 L 162.663 255.800 164.132 256.921 M308.396 256.400 C 310.693 257.784,312.722 261.838,311.652 262.908 C 311.404 263.156,311.200 263.686,311.200 264.083 C 311.200 265.094,309.251 267.201,307.713 267.854 C 305.769 268.678,239.920 268.661,237.949 267.835 C 232.364 265.495,232.970 256.976,238.800 255.885 C 241.765 255.330,307.427 255.816,308.396 256.400 M163.037 284.859 C 168.546 287.449,167.922 294.563,162.000 296.686 C 159.848 297.458,96.043 297.410,93.800 296.635 C 91.929 295.989,89.600 293.856,89.600 292.790 C 89.600 292.381,89.420 291.936,89.200 291.800 C 88.980 291.664,88.800 291.124,88.800 290.600 C 88.800 290.076,88.980 289.536,89.200 289.400 C 89.420 289.264,89.600 288.826,89.600 288.427 C 89.600 287.495,92.055 284.800,92.905 284.800 C 93.261 284.800,93.664 284.620,93.800 284.400 C 94.383 283.456,160.992 283.898,163.037 284.859 M307.833 284.857 C 313.297 287.426,312.787 294.637,307.000 296.635 C 304.885 297.366,240.719 297.474,238.919 296.750 C 236.467 295.764,235.988 295.420,235.013 293.948 C 232.784 290.580,233.979 286.738,237.859 284.801 C 240.409 283.528,305.116 283.580,307.833 284.857 M232.400 337.076 C 230.972 337.314,227.144 338.368,226.200 338.782 C 225.760 338.975,224.815 339.372,224.100 339.664 C 223.385 339.956,222.800 340.331,222.800 340.498 C 222.800 340.664,222.607 340.800,222.372 340.800 C 219.714 340.800,209.600 352.054,209.600 355.012 C 209.600 355.335,209.420 355.600,209.200 355.600 C 208.980 355.600,208.800 356.039,208.800 356.576 C 208.800 357.113,208.620 357.664,208.400 357.800 C 208.180 357.936,208.000 358.577,208.000 359.224 C 208.000 359.871,207.820 360.400,207.600 360.400 C 207.380 360.400,207.200 360.580,207.200 360.800 C 207.200 361.448,329.117 361.331,330.400 360.682 L 331.400 360.177 331.506 348.488 L 331.612 336.800 282.506 336.854 C 255.498 336.884,232.950 336.984,232.400 337.076 " stroke="none" fill="#faf2f0" fill-rule="evenodd"></path><path id="path3" d="M194.200 12.025 C 160.725 15.361,133.780 40.477,129.213 72.600 C 128.191 79.791,127.369 81.232,123.768 82.149 L 121.800 82.651 121.686 86.725 C 121.616 89.211,121.726 90.800,121.966 90.800 C 122.183 90.800,122.414 91.833,122.480 93.096 L 122.600 95.392 124.791 95.706 C 127.379 96.076,129.240 97.606,129.922 99.924 C 131.080 103.854,132.860 109.485,133.171 110.200 C 135.272 115.028,138.187 120.467,141.029 124.861 C 142.929 127.797,144.883 130.830,145.371 131.600 C 145.860 132.370,147.890 135.520,149.883 138.600 C 151.876 141.680,155.978 148.070,159.000 152.800 C 162.022 157.530,166.072 163.830,168.001 166.800 C 180.755 186.440,180.000 184.923,180.000 190.898 C 180.000 194.345,180.148 195.634,180.623 196.311 C 182.425 198.883,182.415 197.437,180.408 165.000 C 179.723 153.922,179.158 144.518,178.870 139.400 L 178.600 134.600 173.600 134.365 C 166.594 134.037,162.680 132.420,158.984 128.329 C 151.641 120.202,154.215 105.471,163.783 100.861 C 167.183 99.223,168.205 99.000,172.200 99.021 C 182.123 99.074,188.704 105.876,189.401 116.800 C 189.534 118.890,189.727 121.005,189.829 121.500 L 190.015 122.400 200.000 122.400 L 209.985 122.400 210.171 121.500 C 210.273 121.005,210.466 118.890,210.599 116.800 C 211.150 108.158,214.939 102.659,222.400 99.672 C 224.291 98.914,231.358 98.829,233.200 99.541 C 249.859 105.981,249.470 128.153,232.600 133.707 C 231.940 133.925,229.150 134.214,226.400 134.351 L 221.400 134.600 221.138 139.400 C 220.994 142.040,220.673 147.530,220.424 151.600 C 220.176 155.670,219.798 161.970,219.585 165.600 C 219.372 169.230,219.020 175.080,218.803 178.600 C 218.037 191.014,217.861 197.600,218.296 197.600 C 220.106 197.600,220.595 196.222,220.801 190.536 L 221.003 185.000 224.360 179.800 C 226.206 176.940,229.287 172.170,231.207 169.200 C 233.127 166.230,237.172 159.930,240.196 155.200 C 243.220 150.470,247.090 144.440,248.796 141.800 C 250.502 139.160,254.373 133.166,257.399 128.479 C 271.936 105.961,276.130 84.801,269.979 65.000 C 268.738 61.006,268.351 59.889,267.204 57.000 C 255.700 28.024,224.784 8.978,194.200 12.025 M169.021 111.583 C 163.239 115.394,166.685 122.529,174.200 122.306 L 177.800 122.200 177.669 119.200 C 177.355 112.020,173.503 108.628,169.021 111.583 M224.393 112.313 C 222.808 113.898,222.564 114.817,222.299 120.200 L 222.200 122.200 225.800 122.306 C 229.898 122.428,231.381 121.834,232.802 119.504 C 236.151 114.012,228.896 107.810,224.393 112.313 M190.774 134.559 C 190.584 134.749,190.870 141.288,191.571 152.800 C 192.373 165.976,192.764 172.779,193.410 184.800 C 193.758 191.290,194.120 196.830,194.213 197.111 C 194.343 197.501,195.736 197.596,200.091 197.511 L 205.799 197.400 206.660 182.600 C 207.134 174.460,207.728 164.200,207.981 159.800 C 208.234 155.400,208.605 149.460,208.806 146.600 C 209.008 143.740,209.206 139.870,209.248 138.000 L 209.324 134.600 200.136 134.493 C 195.082 134.434,190.869 134.464,190.774 134.559 " stroke="none" fill="#fbe985" fill-rule="evenodd"></path><path id="path4" d="M265.693 137.900 C 264.657 139.396,264.321 140.000,264.523 140.000 C 264.617 140.000,265.170 139.280,265.753 138.400 C 266.936 136.612,266.884 136.179,265.693 137.900 M31.395 158.900 C 30.889 160.974,31.387 369.547,31.900 370.060 C 32.175 370.335,32.400 370.860,32.400 371.226 C 32.400 376.017,41.269 384.693,48.200 386.684 C 52.923 388.041,53.863 388.048,201.400 387.882 C 339.414 387.726,350.444 387.643,351.380 386.759 C 351.589 386.562,352.068 386.400,352.446 386.400 C 353.179 386.400,357.673 384.211,359.000 383.207 C 362.699 380.409,367.600 373.582,367.600 371.226 C 367.600 370.860,367.825 370.335,368.100 370.060 C 368.613 369.547,369.111 160.974,368.605 158.900 C 368.387 158.008,368.319 158.000,361.192 158.000 L 354.000 158.000 354.000 258.900 C 353.999 342.595,353.906 360.277,353.452 362.600 C 351.599 372.089,345.931 378.552,336.400 382.047 L 333.800 383.000 200.600 383.000 C 89.876 383.000,67.096 382.909,65.600 382.460 C 55.763 379.506,48.971 372.028,47.223 362.227 C 46.933 360.599,46.800 328.154,46.800 258.927 L 46.800 158.000 39.208 158.000 C 31.666 158.000,31.614 158.006,31.395 158.900 M151.200 163.320 C 151.200 163.704,153.245 166.800,153.499 166.800 C 153.678 166.800,153.041 165.719,151.739 163.811 C 151.442 163.377,151.200 163.156,151.200 163.320 M248.246 165.000 C 247.891 165.550,247.309 166.495,246.953 167.100 L 246.305 168.200 247.110 167.226 C 248.060 166.076,249.321 164.000,249.069 164.000 C 248.971 164.000,248.601 164.450,248.246 165.000 M164.349 183.800 C 164.565 184.240,165.034 184.960,165.393 185.400 L 166.044 186.200 165.651 185.400 C 165.435 184.960,164.966 184.240,164.607 183.800 L 163.956 183.000 164.349 183.800 M235.353 184.900 C 233.976 187.236,233.886 187.435,234.587 186.600 C 235.400 185.632,236.100 184.400,235.838 184.400 C 235.733 184.400,235.515 184.625,235.353 184.900 M167.666 192.800 C 167.636 195.110,167.744 197.208,167.906 197.463 C 168.068 197.717,168.149 196.277,168.087 194.263 C 167.916 188.746,167.726 188.088,167.666 192.800 M232.948 192.800 C 232.948 195.110,233.014 196.055,233.095 194.900 C 233.176 193.745,233.176 191.855,233.095 190.700 C 233.014 189.545,232.948 190.490,232.948 192.800 M98.530 197.500 C 107.071 197.560,120.931 197.560,129.330 197.500 C 137.728 197.440,130.740 197.390,113.800 197.390 C 96.860 197.390,89.988 197.440,98.530 197.500 M271.730 197.500 C 280.271 197.560,294.131 197.560,302.530 197.500 C 310.928 197.440,303.940 197.390,287.000 197.390 C 270.060 197.390,263.188 197.440,271.730 197.500 M80.887 198.700 C 79.930 199.635,79.914 199.681,80.781 199.006 C 82.488 197.676,82.569 197.600,82.286 197.600 C 82.136 197.600,81.506 198.095,80.887 198.700 M176.406 220.033 C 176.409 220.565,176.589 221.270,176.806 221.600 C 177.082 222.022,177.123 221.785,176.942 220.800 C 176.625 219.075,176.398 218.749,176.406 220.033 M224.049 219.600 C 224.016 219.930,223.889 220.650,223.767 221.200 C 223.575 222.064,223.607 222.103,223.999 221.488 C 224.248 221.097,224.375 220.377,224.281 219.888 C 224.186 219.400,224.082 219.270,224.049 219.600 M338.162 227.400 C 338.162 230.920,338.224 232.306,338.298 230.481 C 338.372 228.656,338.372 225.776,338.297 224.081 C 338.222 222.386,338.161 223.880,338.162 227.400 M234.267 231.067 C 233.900 231.434,233.929 235.509,234.300 235.738 C 234.465 235.840,234.600 234.771,234.600 233.362 C 234.600 231.953,234.585 230.800,234.567 230.800 C 234.548 230.800,234.413 230.920,234.267 231.067 M166.514 233.400 C 166.517 234.500,166.595 234.903,166.687 234.295 C 166.779 233.686,166.777 232.786,166.682 232.295 C 166.587 231.803,166.511 232.300,166.514 233.400 M89.067 232.267 C 88.689 232.644,88.735 234.313,89.129 234.556 C 89.310 234.668,89.445 234.139,89.429 233.381 C 89.413 232.623,89.385 232.002,89.367 232.001 C 89.348 232.001,89.213 232.120,89.067 232.267 M311.360 233.447 C 311.360 234.652,311.424 234.766,311.723 234.095 C 311.940 233.609,311.940 233.022,311.723 232.634 C 311.454 232.153,311.360 232.362,311.360 233.447 M334.562 234.900 C 333.806 235.792,333.807 235.794,334.600 235.152 C 335.040 234.796,335.670 234.405,336.000 234.284 C 336.509 234.097,336.504 234.058,335.962 234.032 C 335.611 234.014,334.981 234.405,334.562 234.900 M196.900 237.498 C 198.825 237.571,201.975 237.571,203.900 237.498 C 205.825 237.425,204.250 237.365,200.400 237.365 C 196.550 237.365,194.975 237.425,196.900 237.498 M94.715 239.672 C 95.647 240.042,160.481 240.063,161.062 239.694 C 161.316 239.532,146.337 239.400,127.777 239.400 C 109.216 239.400,94.338 239.522,94.715 239.672 M239.515 239.672 C 239.892 239.821,254.870 239.944,272.800 239.944 C 290.730 239.944,305.708 239.821,306.085 239.672 C 306.462 239.522,291.484 239.400,272.800 239.400 C 254.116 239.400,239.138 239.522,239.515 239.672 M111.330 255.900 C 120.531 255.960,135.471 255.960,144.530 255.900 C 153.588 255.840,146.060 255.791,127.800 255.791 C 109.540 255.791,102.128 255.840,111.330 255.900 M256.100 255.900 C 265.285 255.960,280.315 255.960,289.500 255.900 C 298.685 255.840,291.170 255.791,272.800 255.791 C 254.430 255.791,246.915 255.840,256.100 255.900 M164.794 257.803 C 166.387 259.721,166.521 259.845,166.086 258.996 C 165.859 258.553,165.252 257.834,164.737 257.398 C 163.833 256.634,163.835 256.648,164.794 257.803 M166.470 261.726 C 166.395 263.791,165.995 264.817,164.650 266.400 L 163.800 267.400 164.868 266.460 C 166.311 265.191,166.882 263.658,166.696 261.555 L 166.540 259.800 166.470 261.726 M234.038 261.800 C 234.024 262.900,234.165 264.040,234.351 264.334 C 234.549 264.646,234.616 263.982,234.513 262.734 C 234.271 259.803,234.068 259.405,234.038 261.800 M88.972 261.371 C 88.837 261.905,88.883 262.620,89.073 262.959 C 89.312 263.386,89.418 263.088,89.418 261.988 C 89.418 260.155,89.313 260.010,88.972 261.371 M311.370 261.749 C 311.386 262.503,311.535 263.038,311.700 262.937 C 312.094 262.695,312.073 261.535,311.663 260.889 C 311.464 260.574,311.351 260.904,311.370 261.749 M235.887 266.409 C 236.595 267.151,237.242 267.678,237.325 267.579 C 237.408 267.481,236.829 266.873,236.038 266.229 L 234.600 265.058 235.887 266.409 M91.687 266.900 C 92.306 267.505,93.035 267.995,93.306 267.988 C 93.578 267.981,93.440 267.777,93.000 267.533 C 92.560 267.290,91.831 266.800,91.381 266.445 C 90.930 266.090,91.068 266.295,91.687 266.900 M309.780 266.032 C 309.633 266.270,308.947 266.810,308.256 267.231 C 307.565 267.652,307.222 267.998,307.494 267.999 C 308.006 268.000,310.813 265.632,310.324 265.612 C 310.172 265.605,309.927 265.795,309.780 266.032 M110.900 268.300 C 120.305 268.360,135.695 268.360,145.100 268.300 C 154.505 268.240,146.810 268.191,128.000 268.191 C 109.190 268.191,101.495 268.240,110.900 268.300 M255.700 268.300 C 265.105 268.360,280.495 268.360,289.900 268.300 C 299.305 268.240,291.610 268.191,272.800 268.191 C 253.990 268.191,246.295 268.240,255.700 268.300 M93.862 284.300 C 93.694 284.572,117.699 284.569,149.600 284.293 C 156.310 284.235,146.556 284.146,127.924 284.094 C 109.292 284.042,93.964 284.135,93.862 284.300 M255.900 284.300 C 265.195 284.360,280.405 284.360,289.700 284.300 C 298.995 284.240,291.390 284.191,272.800 284.191 C 254.210 284.191,246.605 284.240,255.900 284.300 M166.394 290.319 L 166.587 292.600 166.718 290.644 C 166.790 289.569,166.703 288.542,166.524 288.363 C 166.346 288.184,166.287 289.064,166.394 290.319 M234.267 288.267 C 233.900 288.634,233.929 292.709,234.300 292.938 C 234.465 293.040,234.600 291.971,234.600 290.562 C 234.600 289.153,234.585 288.000,234.567 288.000 C 234.548 288.000,234.413 288.120,234.267 288.267 M89.067 289.467 C 88.689 289.844,88.735 291.513,89.129 291.756 C 89.310 291.868,89.445 291.339,89.429 290.581 C 89.413 289.823,89.385 289.202,89.367 289.201 C 89.348 289.201,89.213 289.320,89.067 289.467 M311.360 290.647 C 311.360 291.852,311.424 291.966,311.723 291.295 C 311.940 290.809,311.940 290.222,311.723 289.834 C 311.454 289.353,311.360 289.562,311.360 290.647 M94.538 296.894 C 94.792 297.056,109.850 297.188,128.000 297.188 C 146.150 297.188,161.208 297.056,161.462 296.894 C 161.716 296.732,146.658 296.600,128.000 296.600 C 109.342 296.600,94.284 296.732,94.538 296.894 M239.338 296.894 C 239.592 297.056,254.650 297.188,272.800 297.188 C 290.950 297.188,306.008 297.056,306.262 296.894 C 306.516 296.732,291.458 296.600,272.800 296.600 C 254.142 296.600,239.084 296.732,239.338 296.894 M167.633 324.144 C 168.105 324.550,170.043 324.793,169.810 324.416 C 169.668 324.187,169.083 324.000,168.510 324.000 C 167.936 324.000,167.542 324.065,167.633 324.144 M230.990 324.416 C 230.821 324.689,231.123 324.738,231.866 324.560 C 233.399 324.192,233.544 324.000,232.290 324.000 C 231.717 324.000,231.132 324.187,230.990 324.416 M117.701 330.200 C 117.705 331.080,117.787 331.393,117.883 330.895 C 117.979 330.398,117.975 329.678,117.875 329.295 C 117.775 328.913,117.696 329.320,117.701 330.200 M186.000 330.524 C 186.000 330.617,186.765 331.198,187.700 331.815 C 188.635 332.432,189.189 332.680,188.931 332.368 C 188.434 331.767,186.000 330.236,186.000 330.524 M213.093 331.414 C 212.272 331.972,211.600 332.515,211.600 332.620 C 211.600 332.725,212.320 332.335,213.200 331.753 C 214.597 330.828,215.070 330.400,214.693 330.400 C 214.634 330.400,213.914 330.856,213.093 331.414 M117.200 332.438 C 117.200 332.679,116.825 333.444,116.367 334.138 L 115.534 335.400 116.565 334.200 C 117.495 333.117,117.919 332.000,117.400 332.000 C 117.290 332.000,117.200 332.197,117.200 332.438 M131.798 334.337 C 132.234 334.852,132.953 335.459,133.396 335.686 C 134.245 336.121,134.121 335.987,132.203 334.394 C 131.048 333.435,131.034 333.433,131.798 334.337 M68.800 348.151 C 68.800 358.874,68.861 359.948,69.500 360.432 C 70.096 360.882,70.125 360.878,69.700 360.401 C 69.325 359.980,69.200 356.971,69.200 348.323 L 69.200 336.807 90.700 336.700 L 112.200 336.593 90.500 336.496 L 68.800 336.400 68.800 348.151 M143.526 336.700 C 147.776 336.764,154.616 336.764,158.726 336.699 C 162.837 336.634,159.360 336.581,151.000 336.581 C 142.640 336.582,139.277 336.635,143.526 336.700 M283.100 336.700 L 331.600 336.803 331.600 348.322 C 331.600 356.971,331.475 359.980,331.100 360.401 C 330.675 360.878,330.704 360.882,331.300 360.432 C 331.939 359.948,332.000 358.874,332.000 348.151 L 332.000 336.400 283.300 336.498 L 234.600 336.597 283.100 336.700 M214.400 346.800 C 213.479 347.900,212.816 348.800,212.926 348.800 C 213.036 348.800,213.879 347.900,214.800 346.800 C 215.721 345.700,216.384 344.800,216.274 344.800 C 216.164 344.800,215.321 345.700,214.400 346.800 M185.600 346.525 C 185.600 346.594,186.173 347.179,186.874 347.825 L 188.149 349.000 187.174 347.722 C 186.347 346.637,185.600 346.069,185.600 346.525 M70.938 361.294 C 71.192 361.456,98.940 361.547,132.600 361.498 C 166.260 361.449,185.970 361.362,176.400 361.305 C 131.363 361.036,70.523 361.030,70.938 361.294 M268.400 361.200 L 207.000 361.404 268.200 361.496 C 307.194 361.554,329.618 361.447,330.000 361.200 C 330.330 360.987,330.420 360.854,330.200 360.904 C 329.980 360.955,302.170 361.088,268.400 361.200 " stroke="none" fill="#b4e2e9" fill-rule="evenodd"></path></g></svg>