<?xml version="1.0" encoding="UTF-8"?>
<svg version="1.1" xmlns="http://www.w3.org/2000/svg" width="512" height="512">
<path d="M0 0 C1.40739451 -0.01658245 2.81470401 -0.04390359 4.22167969 -0.08203125 C6.2576838 -0.13685866 8.29172599 -0.15867384 10.32836914 -0.17333984 C11.54516357 -0.19315918 12.76195801 -0.21297852 14.015625 -0.23339844 C17.17602539 0.35009766 17.17602539 0.35009766 19.60400391 2.7578125 C21.17602539 5.35009766 21.17602539 5.35009766 21.17602539 7.35009766 C25.79602539 7.35009766 30.41602539 7.35009766 35.17602539 7.35009766 C35.50602539 5.70009766 35.83602539 4.05009766 36.17602539 2.35009766 C41.0834451 -0.92151548 46.88879378 -0.02177694 52.63476562 -0.02050781 C54.8387744 -0.02485354 57.04073396 -0.06109732 59.24438477 -0.09912109 C69.44832783 -0.18055829 76.36798299 1.19272546 84.17602539 8.35009766 C85.54970884 9.98366716 86.89540054 11.64259786 88.17602539 13.35009766 C89.16602539 13.02009766 90.15602539 12.69009766 91.17602539 12.35009766 C92.54966806 12.24512936 93.92765458 12.19174682 95.30517578 12.1730957 C96.13356461 12.16026047 96.96195343 12.14742523 97.81544495 12.13420105 C98.70916306 12.12681412 99.60288116 12.11942719 100.52368164 12.11181641 C101.91338417 12.09970879 101.91338417 12.09970879 103.3311615 12.08735657 C105.29562514 12.07352137 107.26011276 12.06279669 109.22460938 12.05493164 C111.22142645 12.04344731 113.2182137 12.02305221 115.21484375 11.9934082 C118.10966728 11.95043123 121.00357739 11.93451764 123.89868164 11.92431641 C125.21800438 11.89805428 125.21800438 11.89805428 126.5639801 11.8712616 C132.32354059 11.89107453 136.70682267 13.02374427 141.95921326 15.39241028 C144.0709556 16.30470634 145.90030034 17.01429393 148.17602539 17.35009766 C150.65703195 16.25238612 152.9381984 15.09909355 155.30102539 13.78759766 C163.96958639 9.23440401 172.76581315 6.01495565 182.17602539 3.35009766 C183.35422852 3.00849609 184.53243164 2.66689453 185.74633789 2.31494141 C206.04444001 -2.48076404 230.2115184 -1.26639485 250.17602539 4.35009766 C252.0593457 4.84123047 252.0593457 4.84123047 253.98071289 5.34228516 C270.5454518 10.22264909 286.13979131 19.09964906 299.17602539 30.35009766 C300.13766602 31.16220703 301.09930664 31.97431641 302.09008789 32.81103516 C326.28047673 53.93597527 342.48645709 85.26615067 345.17602539 117.35009766 C346.50470189 142.13280283 344.88938863 171.14722271 330.17602539 192.35009766 C327.17602539 194.35009766 327.17602539 194.35009766 323.86352539 194.41259766 C319.0313621 195.64111375 317.71111543 197.59381396 315.17211914 201.74853516 C314.0289985 204.7340973 314.16536887 206.30117653 314.73852539 209.41259766 C315.48034597 213.7893391 315.48034597 213.7893391 314.05883789 216.40869141 C312.20614451 218.53032415 310.23584647 220.42905885 308.17602539 222.35009766 C307.44899414 223.13126953 306.72196289 223.91244141 305.97290039 224.71728516 C285.88609374 246.0678313 255.11455687 260.23844631 225.82641602 261.49365234 C212.55357075 261.84773512 200.3660381 261.37933038 187.17602539 259.35009766 C187.17602539 274.86009766 187.17602539 290.37009766 187.17602539 306.35009766 C188.82602539 306.68009766 190.47602539 307.01009766 192.17602539 307.35009766 C194.09008789 308.44384766 194.09008789 308.44384766 195.80102539 309.85009766 C196.37079102 310.29353516 196.94055664 310.73697266 197.52758789 311.19384766 C202.64897102 317.89290806 202.57216152 325.82928505 202.36352539 333.91259766 C202.34999023 334.92128906 202.33645508 335.92998047 202.32250977 336.96923828 C202.28752116 339.43010386 202.23843697 341.889801 202.17602539 344.35009766 C203.30508301 344.36468018 204.43414062 344.3792627 205.59741211 344.39428711 C209.82834901 344.45271886 214.0587784 344.5299449 218.28930664 344.61254883 C220.11246438 344.64558873 221.93571927 344.67368425 223.7590332 344.6965332 C240.87030502 344.91674946 254.1145624 347.03899858 267.10180664 359.11962891 C276.5916036 369.32428816 278.69830507 381.09700751 278.61352539 394.60009766 C278.63350586 395.74478516 278.65348633 396.88947266 278.67407227 398.06884766 C278.67036268 404.44932775 278.53916587 408.54091122 274.17602539 413.35009766 C270.54139745 416.54416463 267.49194859 417.47703302 262.70458984 417.46362305 C261.35352898 417.46350975 261.35352898 417.46350975 259.97517395 417.46339417 C259.00633774 417.45823288 258.03750153 417.45307159 257.03930664 417.44775391 C255.54744087 417.44563148 255.54744087 417.44563148 254.0254364 417.44346619 C250.84643557 417.43786526 247.66750497 417.42531261 244.48852539 417.41259766 C242.33422953 417.40758278 240.17993257 417.40301985 238.02563477 417.39892578 C232.74240765 417.38789554 227.45922154 417.37115652 222.17602539 417.35009766 C222.18601814 419.00594124 222.18601814 419.00594124 222.19621277 420.69523621 C222.25702553 431.09796165 222.30199887 441.50065104 222.33146191 451.90351391 C222.34711835 457.25175065 222.36835643 462.59984389 222.40234375 467.94799805 C222.43493766 473.10918399 222.45287856 478.27023191 222.46065712 483.43151283 C222.46620055 485.40070074 222.47702547 487.36988109 222.49321556 489.33901024 C222.51499014 492.09702257 222.51799229 494.85446438 222.51660156 497.61254883 C222.5327803 498.83390785 222.5327803 498.83390785 222.54928589 500.0799408 C222.52163852 505.14639675 221.83102691 508.69509613 218.17602539 512.35009766 C210.98862062 512.9392292 210.98862062 512.9392292 207.67602539 510.53759766 C206.17602539 508.35009766 206.17602539 508.35009766 206.17602539 505.35009766 C203.73485914 505.38312697 201.30284028 505.45023927 198.86352539 505.53759766 C197.82808594 505.54629883 197.82808594 505.54629883 196.77172852 505.55517578 C194.47439279 505.60400224 194.47439279 505.60400224 191.17602539 506.35009766 C189.18695087 508.71850354 189.18695087 508.71850354 188.17602539 511.35009766 C186.59704706 512.92907599 184.98239967 512.59553275 182.80102539 512.66259766 C182.00954102 512.69998047 181.21805664 512.73736328 180.40258789 512.77587891 C178.17602539 512.35009766 178.17602539 512.35009766 176.55815125 510.8739624 C174.54244786 507.1931379 174.78273178 503.63118303 174.83544922 499.54248047 C174.83501114 498.65432144 174.83457306 497.76616241 174.8341217 496.85108948 C174.83621012 493.91824284 174.85954379 490.98596931 174.88305664 488.05322266 C174.8886524 486.01870028 174.89292259 483.98417386 174.8959198 481.949646 C174.90737009 476.59674912 174.93683901 471.24409672 174.97003174 465.89129639 C175.00072855 460.42837837 175.01442432 454.96542082 175.02954102 449.50244141 C175.06170841 438.78488612 175.11290713 428.06751222 175.17602539 417.35009766 C174.38180585 417.35378483 173.58758631 417.357472 172.76929951 417.3612709 C153.44844413 417.44958992 134.12762901 417.51579167 114.80661488 417.55734634 C105.46312526 417.57797577 96.11977035 417.60610363 86.77636719 417.65185547 C78.63310252 417.6917116 70.48993541 417.7175277 62.34657592 417.72645164 C58.03427568 417.73166848 53.72225454 417.74393772 49.41004372 417.77301788 C45.3511877 417.80016774 41.29272574 417.8085436 37.23378754 417.80252838 C35.74425045 417.80362882 34.25470019 417.81158556 32.76524162 417.82691956 C30.73082389 417.84683656 28.69619472 417.83964847 26.66169739 417.83111572 C25.52328305 417.83480289 24.38486872 417.83849007 23.21195698 417.84228897 C19.45679714 417.23349493 17.81031746 416.06106953 15.17602539 413.35009766 C14.84602539 412.03009766 14.51602539 410.71009766 14.17602539 409.35009766 C9.55602539 409.35009766 4.93602539 409.35009766 0.17602539 409.35009766 C-0.15397461 411.00009766 -0.48397461 412.65009766 -0.82397461 414.35009766 C-2.99406967 416.619503 -4.31577084 417.27977093 -7.43096924 417.71086121 C-8.41692078 417.70419937 -9.40287231 417.69753754 -10.41870117 417.69067383 C-11.53956116 417.69044724 -12.66042114 417.69022064 -13.81524658 417.68998718 C-15.01953308 417.67450333 -16.22381958 417.65901947 -17.46459961 417.64306641 C-18.70191833 417.63882156 -19.93923706 417.63457672 -21.21405029 417.63020325 C-24.49560001 417.6162602 -27.77670517 417.58932851 -31.05810547 417.55609131 C-34.40970768 417.5253436 -37.761329 417.51194369 -41.11303711 417.49658203 C-47.68352338 417.46349762 -54.25371263 417.41328611 -60.82397461 417.35009766 C-60.81953339 418.4414653 -60.81509216 419.53283295 -60.81051636 420.65727234 C-60.76997328 430.9422872 -60.73999163 441.22728584 -60.72035027 451.51236248 C-60.70991301 456.80002358 -60.69575476 462.08762017 -60.6730957 467.37524414 C-60.65136541 472.47806749 -60.63940555 477.58082879 -60.63422012 482.68369484 C-60.63052472 484.63054188 -60.62330855 486.57738553 -60.6125145 488.52420616 C-60.5979972 491.25099402 -60.59599678 493.97752542 -60.59692383 496.7043457 C-60.58973328 497.50923431 -60.58254272 498.31412292 -60.57513428 499.1434021 C-60.59492936 504.52407429 -60.93735266 508.46347571 -64.82397461 512.35009766 C-66.88256836 512.65087891 -66.88256836 512.65087891 -69.26147461 512.66259766 C-70.04393555 512.67935547 -70.82639648 512.69611328 -71.63256836 512.71337891 C-73.82397461 512.35009766 -73.82397461 512.35009766 -75.60913086 511.08056641 C-76.82397461 509.35009766 -76.82397461 509.35009766 -76.82397461 505.35009766 C-82.10397461 505.35009766 -87.38397461 505.35009766 -92.82397461 505.35009766 C-93.15397461 507.00009766 -93.48397461 508.65009766 -93.82397461 510.35009766 C-97.61645147 512.87841557 -100.37347173 512.96331935 -104.82397461 512.35009766 C-107.4982895 510.53846499 -107.7831782 509.47248689 -108.82397461 506.35009766 C-108.91546927 503.50489361 -108.94995235 500.6846482 -108.9375 497.83959961 C-108.93764603 496.97109375 -108.93779205 496.10258789 -108.9379425 495.20776367 C-108.93724536 492.33461009 -108.92946222 489.46152118 -108.92163086 486.58837891 C-108.91976598 484.59726497 -108.9183424 482.60615057 -108.91734314 480.61503601 C-108.91352351 475.37237279 -108.90369793 470.12973724 -108.89263916 464.88708496 C-108.88241315 459.53817113 -108.87784296 454.18925282 -108.87280273 448.84033203 C-108.86207519 438.34357508 -108.84500538 427.84683867 -108.82397461 417.35009766 C-109.73156178 417.35778907 -109.73156178 417.35778907 -110.65748405 417.36563587 C-111.5051893 417.37281981 -112.35289455 417.38000376 -113.22628784 417.3874054 C-114.62877116 417.39933693 -114.62877116 417.39933693 -116.05958748 417.41150951 C-118.1008795 417.42874627 -120.14217364 417.44573294 -122.18346977 417.46247578 C-126.39660536 417.49728108 -130.60958689 417.53354682 -134.8225708 417.58383179 C-137.67994411 417.61772073 -140.53674723 417.63323993 -143.39428711 417.64306641 C-144.8056897 417.66608826 -144.8056897 417.66608826 -146.24560547 417.6895752 C-151.53868269 417.69167729 -155.26385867 417.35369998 -159.82397461 414.35009766 C-165.46906657 408.09472549 -165.03679671 403.50135171 -165.07397461 395.35009766 C-165.09459961 394.25052734 -165.11522461 393.15095703 -165.13647461 392.01806641 C-165.2006097 378.50159568 -161.02030428 367.22060308 -151.83959961 357.20166016 C-142.22640387 348.37093384 -130.52168314 345.17309944 -117.80444336 345.25244141 C-116.51658684 345.25456383 -116.51658684 345.25456383 -115.20271301 345.25672913 C-112.47226412 345.26230708 -109.74189854 345.27485552 -107.01147461 345.28759766 C-105.15535601 345.29261551 -103.29923611 345.29717791 -101.44311523 345.30126953 C-96.90336981 345.3122693 -92.36368631 345.32951873 -87.82397461 345.35009766 C-88.15397461 344.69009766 -88.48397461 344.03009766 -88.82397461 343.35009766 C-89.06426017 340.14763632 -89.00917813 336.93557377 -89.01147461 333.72509766 C-89.0237207 332.84724609 -89.0359668 331.96939453 -89.04858398 331.06494141 C-89.06384705 324.21691406 -88.92332449 316.92772177 -84.13647461 311.53759766 C-83.67885742 310.99490234 -83.22124023 310.45220703 -82.74975586 309.89306641 C-80.0459764 307.72675223 -77.00860404 306.67267474 -73.82397461 305.35009766 C-73.82766178 304.66263993 -73.83134895 303.97518221 -73.83514786 303.26689243 C-73.92360767 286.51495143 -73.98973698 269.76308472 -74.0312233 253.01096439 C-74.05182068 244.90964923 -74.07988697 236.80849027 -74.12573242 228.70727539 C-74.16568702 221.64363018 -74.19142795 214.58009814 -74.20032859 207.51634306 C-74.20552883 203.77845871 -74.21769159 200.04089804 -74.24689484 196.30311775 C-74.27928397 192.12340251 -74.27992851 187.94424474 -74.27807617 183.7644043 C-74.29245728 182.53441208 -74.30683838 181.30441986 -74.32165527 180.03715515 C-74.28363717 172.09784726 -73.37437238 165.32507908 -67.92944336 159.22900391 C-66.98004883 158.57738281 -66.98004883 158.57738281 -66.01147461 157.91259766 C-65.3862793 157.46013672 -64.76108398 157.00767578 -64.11694336 156.54150391 C-58.83902161 153.79914252 -53.67840572 153.10250271 -47.79663086 153.15478516 C-46.63655518 153.15978027 -45.47647949 153.16477539 -44.28125 153.16992188 C-42.83097412 153.18812988 -41.38069824 153.20633789 -39.88647461 153.22509766 C-35.24584961 153.26634766 -30.60522461 153.30759766 -25.82397461 153.35009766 C-25.82397461 142.46009766 -25.82397461 131.57009766 -25.82397461 120.35009766 C-28.46397461 120.02009766 -31.10397461 119.69009766 -33.82397461 119.35009766 C-38.44327758 117.22440072 -41.68827847 113.9774393 -43.82397461 109.35009766 C-44.96363861 105.81054635 -44.9636898 102.45598397 -44.98510742 98.75244141 C-44.99255478 97.77098396 -44.99255478 97.77098396 -45.00015259 96.7696991 C-45.01473116 94.60898777 -45.02157208 92.44835006 -45.02709961 90.28759766 C-45.03134068 89.17369659 -45.03134068 89.17369659 -45.03566742 88.03729248 C-45.05064956 84.10070441 -45.05988275 80.16415282 -45.06420898 76.22753906 C-45.06966522 72.1908345 -45.09363507 68.15447211 -45.12218094 64.11787415 C-45.14095951 60.98971643 -45.14602112 57.86163824 -45.14754486 54.73342896 C-45.15054217 53.24730578 -45.15846987 51.761183 -45.17173004 50.27511597 C-45.2964826 35.20783249 -43.29034779 22.81883215 -32.97631836 11.28369141 C-23.51569961 2.28930439 -12.55663188 0.10846163 0 0 Z " fill="#010101" transform="translate(165.823974609375,-0.35009765625)"/>
<path d="M0 0 C0.91122761 -0.00623996 1.82245522 -0.01247993 2.7612958 -0.01890898 C5.82155338 -0.03489251 8.88102037 -0.02221364 11.94128418 -0.00964355 C14.13240525 -0.01506228 16.32352268 -0.02218353 18.51463318 -0.03088379 C24.47117702 -0.04914961 30.42744435 -0.04203604 36.38399315 -0.02936745 C42.61082085 -0.01925671 48.83762451 -0.02862776 55.06445312 -0.03491211 C66.19259984 -0.04266087 77.32063755 -0.03021213 88.44876271 -0.00987476 C98.53991957 0.00799648 108.63089237 0.00489243 118.7220459 -0.0135498 C130.43870546 -0.03495271 142.15525759 -0.04292566 153.87193441 -0.03110075 C160.07486994 -0.02485713 166.27767865 -0.0240541 172.48060608 -0.0372467 C178.31159174 -0.04878146 184.14222903 -0.04082267 189.97317696 -0.01766968 C192.11619551 -0.01236991 194.25924326 -0.0139179 196.40225029 -0.02272034 C199.32186987 -0.03360919 202.2403647 -0.01999266 205.15991211 0 C206.01321373 -0.00892289 206.86651536 -0.01784577 207.74567461 -0.02703905 C211.30200197 0.02038044 213.61852228 0.1972941 216.60529232 2.20800877 C218.37982648 4.97562067 218.58477381 6.5393861 218.59461975 9.81468201 C218.60734421 10.88996658 218.62006866 11.96525116 218.63317871 13.07312012 C218.62665283 14.24777832 218.62012695 15.42243652 218.61340332 16.63269043 C218.62201889 17.8737001 218.63063446 19.11470978 218.63951111 20.39332581 C218.65832721 23.79447481 218.65906478 27.19465001 218.65018964 30.59577632 C218.64507845 33.43626804 218.65237339 36.27667241 218.65966171 39.11715513 C218.67666247 45.81902583 218.67309358 52.52066886 218.65637207 59.22253418 C218.63945167 66.13349267 218.65528305 73.0438195 218.68759495 79.95470899 C218.71429802 85.8911719 218.72156496 91.82743825 218.71307987 97.76395518 C218.70815245 101.30826844 218.71035545 104.85220169 218.73086739 108.39646721 C218.75264791 112.34915743 218.73381755 116.30108735 218.71105957 120.25378418 C218.72859787 122.01273514 218.72859787 122.01273514 218.74649048 123.80722046 C218.73383652 124.88532486 218.72118256 125.96342926 218.70814514 127.07420349 C218.70755883 128.00831527 218.70697252 128.94242704 218.70636845 129.90484524 C217.77640134 133.76937202 216.27815179 135.17850023 213.07995605 137.50793457 C210.08725132 138.21628975 207.18682794 138.18345069 204.12231445 138.14285278 C202.7675004 138.15455271 202.7675004 138.15455271 201.38531637 138.16648901 C198.3579848 138.18643706 195.33190639 138.17063323 192.30456543 138.15490723 C190.13462082 138.16168208 187.96468197 138.17058446 185.79475403 138.18145752 C179.90013119 138.2042729 174.00594536 138.195405 168.11131477 138.17956209 C161.94634944 138.16691485 155.78142186 138.17863994 149.61645508 138.18649292 C139.26291171 138.19559288 128.90954659 138.18359235 118.55603027 138.15979004 C106.58102289 138.13257814 94.60664649 138.14139201 82.6316371 138.16892207 C72.35549762 138.19160213 62.07948636 138.19481856 51.80332994 138.18172872 C45.66350864 138.17392821 39.52388748 138.17290929 33.38407898 138.18941116 C27.61209854 138.20384043 21.84066756 138.19386179 16.06874657 138.16493988 C13.94872641 138.1583209 11.82866011 138.16024051 9.70865822 138.1712532 C6.81767764 138.18488781 3.9284651 138.16781779 1.03759766 138.14285278 C0.19567289 138.15400639 -0.64625188 138.16516 -1.51368952 138.1766516 C-5.69591646 138.10644328 -7.46161634 137.8418344 -10.94063473 135.30786037 C-13.13219922 132.20783541 -13.54588186 130.82010302 -13.54823303 127.07420349 C-13.56721397 125.45704689 -13.56721397 125.45704689 -13.58657837 123.80722046 C-13.57488617 122.63458649 -13.56319397 121.46195251 -13.55114746 120.25378418 C-13.55830276 119.01102219 -13.56545807 117.76826019 -13.5728302 116.48783875 C-13.58682923 113.08659902 -13.57842337 109.68688256 -13.5587399 106.28576732 C-13.54233581 102.72419898 -13.55116856 99.1626797 -13.55625916 95.60108948 C-13.5607776 89.62158684 -13.54492465 83.64239728 -13.51696777 77.66296387 C-13.484902 70.75145546 -13.48493786 63.84051119 -13.50218254 56.92896265 C-13.51804856 50.27658579 -13.51131466 43.62441562 -13.49424553 36.97204781 C-13.48737585 34.14234472 -13.48840646 31.31280736 -13.49579048 28.48310661 C-13.50487715 24.5327492 -13.48091559 20.58297124 -13.45349121 16.63269043 C-13.46001709 15.45803223 -13.46654297 14.28337402 -13.4732666 13.07312012 C-13.46054214 11.99783554 -13.44781769 10.92255096 -13.43470764 9.81468201 C-13.43190072 8.88094726 -13.4290938 7.94721251 -13.42620182 6.98518276 C-11.94305552 -0.27366211 -6.2908963 -0.06578325 0 0 Z " fill="#534E56" transform="translate(119.9200439453125,168.4920654296875)"/>
<path d="M0 0 C4.26499591 3.39176329 8.14745746 7.15292982 12 11 C12.7425 11.73089844 13.485 12.46179688 14.25 13.21484375 C28.57975948 28.24429852 35.37955631 48.3965854 35.25 68.8125 C35.25773438 70.01970703 35.26546875 71.22691406 35.2734375 72.47070312 C35.24961916 83.48073141 33.85709267 93.17642463 29.5 103.3125 C29.15106689 104.1271875 28.80213379 104.941875 28.44262695 105.78125 C19.26251161 126.34922881 2.65332081 142.05924894 -18 150.94140625 C-24.19699945 153.12810788 -30.59031114 154.5818042 -37 156 C-37.81339844 156.19464844 -38.62679687 156.38929688 -39.46484375 156.58984375 C-43.03633399 157.16766575 -46.57881363 157.2650589 -50.1875 157.3125 C-50.87263672 157.34150391 -51.55777344 157.37050781 -52.26367188 157.40039062 C-61.03483623 157.5008533 -69.52841867 155.03743978 -78 153 C-78.00410889 151.74453369 -78.00821777 150.48906738 -78.01245117 149.19555664 C-78.03434605 144.50423023 -78.08874262 139.81373023 -78.15258789 135.12280273 C-78.17567788 133.09879522 -78.19014233 131.07466909 -78.19555664 129.05053711 C-78.20491222 126.12799932 -78.24604626 123.20730417 -78.29296875 120.28515625 C-78.2890361 119.39103531 -78.28510345 118.49691437 -78.28105164 117.57569885 C-78.42965628 111.06798885 -80.08763944 106.24705737 -84 101 C-89.71088396 95.63832196 -94.84926542 94.86891075 -102.390625 94.68359375 C-103.68000977 94.64548584 -104.96939453 94.60737793 -106.29785156 94.56811523 C-107.93206055 94.52501221 -109.56626953 94.48190918 -111.25 94.4375 C-116.4475 94.293125 -121.645 94.14875 -127 94 C-127 82.45 -127 70.9 -127 59 C-123.7 57.35 -120.4 55.7 -117 54 C-114.64825639 51.60626097 -112.80173435 49.72086234 -111 47 C-110.64454102 46.47623779 -110.28908203 45.95247559 -109.92285156 45.4128418 C-108.56070461 41.85144012 -108.9225819 38.39284488 -109.078125 34.6484375 C-109.10656397 32.97531921 -109.13117962 31.30213238 -109.15234375 29.62890625 C-109.19101634 27.0055341 -109.24924947 24.39082637 -109.37353516 21.77001953 C-110.00204342 7.64596776 -110.00204342 7.64596776 -106.66537476 3.2361145 C-102.91670017 -0.31040153 -98.58843368 -2.71055423 -94 -5 C-92.34254761 -5.90105469 -92.34254761 -5.90105469 -90.65161133 -6.8203125 C-61.43511756 -22.17599312 -26.88114214 -18.52431039 0 0 Z " fill="#F2F9FD" transform="translate(431,60)"/>
<path d="M0 0 C1.2627864 -0.00384115 2.52557281 -0.00768229 3.82662547 -0.01163983 C5.23071716 -0.01085959 6.6348088 -0.0099808 8.03890038 -0.00901413 C9.52840418 -0.01159776 11.0179073 -0.01461092 12.50740945 -0.01801753 C16.60643912 -0.02609117 20.70545127 -0.02787731 24.80448794 -0.028615 C29.2231962 -0.03046495 33.64189537 -0.03801205 38.06059837 -0.04475021 C47.72601271 -0.05833718 57.39142289 -0.06435897 67.05684519 -0.06876087 C73.09198564 -0.07152298 79.1271245 -0.0757603 85.16226387 -0.08026505 C101.87133305 -0.09245875 118.58040095 -0.1027575 135.28947449 -0.10614014 C136.35909366 -0.1063597 137.42871282 -0.10657927 138.53074469 -0.10680549 C139.60292887 -0.10702377 140.67511305 -0.10724204 141.77978766 -0.10746694 C143.9524521 -0.1079104 146.12511655 -0.10835697 148.29778099 -0.10880661 C149.37549843 -0.10902804 150.45321586 -0.10924947 151.56359141 -0.10947761 C169.02268871 -0.11342479 186.48174425 -0.13087594 203.94082542 -0.15416613 C221.8652587 -0.17788408 239.78967104 -0.19034221 257.71412027 -0.19150805 C267.77819999 -0.19242463 277.84222532 -0.19817234 287.90629005 -0.21632767 C296.47713239 -0.23173469 305.04790353 -0.23684559 313.61875708 -0.22858956 C317.99060265 -0.22468505 322.36230487 -0.22560291 326.73413277 -0.23964691 C330.74012897 -0.25239782 334.74587428 -0.25117793 338.7518702 -0.2390562 C340.19741264 -0.23710125 341.64297293 -0.24016831 343.08849032 -0.24890056 C354.58324328 -0.31391631 363.89558227 0.62492206 372.90569115 8.17049026 C378.45750346 13.67841474 381.95652565 20.53563443 382.07756615 28.43611526 C382.064432 29.95967643 382.04081674 31.48317971 382.00725365 33.00642776 C381.99823021 33.79017776 381.98920677 34.57392776 381.9799099 35.38142776 C381.95653428 37.29822831 381.92067018 39.21486967 381.88225365 41.13142776 C380.00924898 41.13362761 380.00924898 41.13362761 378.09840584 41.13587189 C348.47094134 41.17155831 318.84359366 41.22777686 289.21622328 41.30934872 C285.57120907 41.31936642 281.9261944 41.32921051 278.28117943 41.3389473 C277.55550928 41.34088867 276.82983913 41.34283004 276.08217898 41.34483024 C264.32550746 41.37586845 252.56885547 41.39283596 240.81215069 41.40462199 C228.75258322 41.41702414 216.69311841 41.44450428 204.63361573 41.48604083 C197.8583081 41.50894285 191.0831332 41.52482677 184.30778313 41.52331161 C177.93513077 41.52256881 171.56280345 41.54036646 165.19023514 41.5725956 C162.84727204 41.58113837 160.50427267 41.5828151 158.16130066 41.57723045 C154.96997982 41.57063496 151.7797067 41.58840485 148.58849144 41.61244583 C147.18771783 41.60080521 147.18771783 41.60080521 145.75864577 41.58892941 C140.70091414 41.62250071 140.70091414 41.62250071 136.33811378 43.97636414 C134.72429043 46.15694483 134.72429043 46.15694483 133.88225365 49.13142776 C128.93225365 49.13142776 123.98225365 49.13142776 118.88225365 49.13142776 C117.89225365 46.16142776 117.89225365 46.16142776 116.88225365 43.13142776 C113.8442373 41.6344062 110.3181977 41.99375374 106.97240257 41.97320938 C105.76367989 41.96342056 104.5549572 41.95363174 103.30960655 41.9435463 C101.97347108 41.93764257 100.6373352 41.9318321 99.30119896 41.9261055 C97.89175697 41.9165235 96.48231784 41.90651322 95.0728817 41.89610672 C91.24887863 41.86908649 87.42486326 41.84806134 83.60081768 41.82810473 C79.60360348 41.8062274 75.60642708 41.77884726 71.60924339 41.75204849 C64.04100509 41.70214524 56.47274577 41.65719763 48.90446639 41.61402613 C40.28782582 41.56463352 31.67122318 41.5097229 23.05461931 41.45434654 C5.33053265 41.34056283 -12.39358981 41.23371593 -30.11774635 41.13142776 C-30.2353535 37.9650814 -30.30545659 34.79930703 -30.36774635 31.63142776 C-30.41801979 30.30111526 -30.41801979 30.30111526 -30.46930885 28.94392776 C-30.58779889 20.88660496 -28.16719704 14.69662152 -22.80524635 8.58064651 C-16.09620917 2.81895023 -8.7073545 0.00993264 0 0 Z " fill="#A97F7F" transform="translate(47.117746353149414,359.8685722351074)"/>
<path d="M0 0 C4.95 0 9.9 0 15 0 C15.99 1.98 16.98 3.96 18 6 C20.6451866 7.3225933 22.71251035 7.16098848 25.671875 7.2109375 C26.81140625 7.23929688 27.9509375 7.26765625 29.125 7.296875 C31.52589225 7.34861837 33.92695567 7.39298841 36.328125 7.4296875 C47.30622513 7.72639291 47.30622513 7.72639291 52 11 C55.1621091 14.70730033 55.40146591 18.21912587 55.59375 22.9140625 C56.10538426 25.54110765 56.86449643 26.41669758 59 28 C63.09042151 28.68558125 63.09042151 28.68558125 67 28 C68.90855256 26.35872832 70.3002808 24.66581287 71.7734375 22.62890625 C73 21 73 21 75 20 C77.53250047 19.86469692 80.03617798 19.78735614 82.5703125 19.76171875 C83.70289993 19.74961113 83.70289993 19.74961113 84.85836792 19.73725891 C86.46056828 19.72341534 88.06279817 19.7126944 89.66503906 19.70483398 C92.09498694 19.68771149 94.52354148 19.64384203 96.953125 19.59960938 C111.93958153 19.4433512 111.93958153 19.4433512 118 24 C123.47190738 29.74803547 122.57791877 36.44195775 122.53125 44.0078125 C122.53394749 45.37971267 122.53783204 46.75161098 122.54284668 48.12350464 C122.54872587 50.98991206 122.54022818 53.85581897 122.52148438 56.72216797 C122.49865135 60.39216822 122.51185363 64.06100109 122.53577423 67.73095894 C122.55023888 70.56034116 122.54562417 73.38944714 122.53526306 76.21883774 C122.53130767 78.22851066 122.54342811 80.23819443 122.55578613 82.24783325 C122.53687317 84.08026077 122.53687317 84.08026077 122.51757812 85.94970703 C122.51439575 87.0241507 122.51121338 88.09859436 122.50793457 89.20559692 C121.88509146 92.63216958 120.64449177 93.82025072 118 96 C117.9906543 95.31897217 117.98130859 94.63794434 117.97167969 93.9362793 C117.91801869 90.85261353 117.83436449 87.77047206 117.75 84.6875 C117.73582031 83.61564453 117.72164062 82.54378906 117.70703125 81.43945312 C117.67480469 80.41142578 117.64257812 79.38339844 117.609375 78.32421875 C117.58842773 77.37635498 117.56748047 76.42849121 117.54589844 75.4519043 C117.20678841 72.85895028 117.20678841 72.85895028 115.08789062 71.171875 C112.57009979 69.75870896 111.56294126 69.82564478 108.75 70.3125 C96.50818493 71.90610906 84.64989243 72.73460272 74.34765625 65.01171875 C69.62714855 60.99824744 65.88645327 56.99548693 62.9375 51.53125 C62.0730543 49.81598586 62.0730543 49.81598586 60 49 C56.42377132 48.60426978 54.68167056 48.46699163 51.796875 50.72265625 C51.12140625 51.49480469 50.4459375 52.26695313 49.75 53.0625 C38.56812069 64.97241485 24.64554256 71.06845258 9 75 C8.38366699 75.176521 7.76733398 75.35304199 7.13232422 75.53491211 C-4.58422726 78.09044572 -18.63802896 76.63820316 -30.13671875 73.67578125 C-34.24802588 72.70544546 -37.79666609 72.64972217 -42 73 C-44.56136221 75.56136221 -44.29666857 76.66561331 -44.4140625 80.2265625 C-44.45273438 81.2578125 -44.49140625 82.2890625 -44.53125 83.3515625 C-44.57765625 84.97191406 -44.57765625 84.97191406 -44.625 86.625 C-44.66367188 87.71296875 -44.70234375 88.8009375 -44.7421875 89.921875 C-44.83666247 92.61441165 -44.92222431 95.30693757 -45 98 C-46.32 97.34 -47.64 96.68 -49 96 C-49.11632158 87.17633585 -49.20493018 78.35293935 -49.25906086 69.52867317 C-49.28505314 65.43029647 -49.32025821 61.33244786 -49.37719727 57.234375 C-49.43189176 53.27264154 -49.46149834 49.31141305 -49.47438622 45.3493309 C-49.48355958 43.84474625 -49.50147193 42.34018637 -49.52865028 40.83581924 C-49.70524501 30.64727846 -48.95675717 22.29626108 -41.71875 14.5625 C-40.62046875 13.7890625 -40.62046875 13.7890625 -39.5 13 C-38.7678125 12.46375 -38.035625 11.9275 -37.28125 11.375 C-32.89903659 8.73366589 -29.29832291 7.75472477 -24.18359375 7.69140625 C-23.08982422 7.66626953 -21.99605469 7.64113281 -20.86914062 7.61523438 C-18.57753146 7.58001898 -16.28585778 7.5487822 -13.99414062 7.52148438 C-12.35541992 7.4818457 -12.35541992 7.4818457 -10.68359375 7.44140625 C-9.68900146 7.42795166 -8.69440918 7.41449707 -7.66967773 7.40063477 C-4.56417046 6.93459568 -3.2021113 6.22163524 -1 4 C-0.67 2.68 -0.34 1.36 0 0 Z " fill="#534E56" transform="translate(186,7)"/>
<path d="M0 0 C3.76300503 1.25433501 5.19169424 3.19169424 8 6 C20.27651683 16.31227413 31.61739496 17.08985528 48 18 C48 38.13 48 58.26 48 79 C4.11 79 -39.78 79 -85 79 C-85 59.86 -85 40.72 -85 21 C-81.7 21.33 -78.4 21.66 -75 22 C-48.53022256 23.3295322 -22.53210605 19.10776094 -1.875 1.22265625 C-1.25625 0.81917969 -0.6375 0.41570312 0 0 Z " fill="#F0CFA4" transform="translate(241,75)"/>
<path d="M0 0 C1.34491052 -0.00391162 1.34491052 -0.00391162 2.71699095 -0.00790226 C3.7133697 -0.00567154 4.70974845 -0.00344082 5.7363205 -0.0011425 C6.78594231 -0.00270249 7.83556413 -0.00426248 8.91699266 -0.00586975 C12.46318717 -0.00988469 16.00933948 -0.00668819 19.55553436 -0.00355339 C22.08604711 -0.00490721 24.61655966 -0.00668704 27.14707184 -0.00886345 C33.32423409 -0.01296393 39.5013805 -0.01234443 45.67854297 -0.00945081 C50.69662824 -0.007197 55.71471009 -0.00688416 60.73279572 -0.00797462 C61.44563934 -0.00812786 62.15848297 -0.00828109 62.89292791 -0.00843897 C64.34082965 -0.00875868 65.78873139 -0.00908289 67.23663312 -0.00941156 C80.82955175 -0.01226652 94.42246364 -0.00897908 108.01538116 -0.00361119 C119.69136659 0.00085686 131.36734208 0.00008093 143.04332733 -0.00452995 C156.58595109 -0.00987544 170.12856894 -0.01199182 183.6711936 -0.00891769 C185.11391799 -0.00859912 186.55664237 -0.00828475 187.99936676 -0.00797462 C188.7093074 -0.00782035 189.41924804 -0.00766607 190.15070203 -0.00750712 C195.16565755 -0.00664189 200.18060933 -0.00810498 205.19556427 -0.01045418 C211.93908238 -0.01354351 218.68257873 -0.01135981 225.42609596 -0.00555992 C227.9090147 -0.00423156 230.39193501 -0.00462771 232.87485313 -0.00682259 C236.24853792 -0.00953113 239.62216118 -0.0061566 242.99584198 -0.0011425 C243.99222073 -0.00337322 244.98859948 -0.00560395 246.01517153 -0.00790226 C246.91177854 -0.00529452 247.80838555 -0.00268677 248.73216248 0 C249.90183728 0.00024353 249.90183728 0.00024353 251.09514189 0.00049198 C252.86608124 0.12584114 252.86608124 0.12584114 253.86608124 1.12584114 C253.96524694 2.74841658 253.996879 4.37523945 253.99889374 6.00084114 C254.0001828 6.98568489 254.00147186 7.97052864 254.00279999 8.98521614 C253.9989328 10.02162239 253.99506561 11.05802864 253.99108124 12.12584114 C253.99494843 13.16224739 253.99881561 14.19865364 254.00279999 15.26646614 C254.00086639 16.74373177 254.00086639 16.74373177 253.99889374 18.25084114 C253.99776581 19.16091927 253.99663788 20.07099739 253.99547577 21.00865364 C253.86608124 23.12584114 253.86608124 23.12584114 252.86608124 24.12584114 C251.49091049 24.22317734 250.11077368 24.25139525 248.73216248 24.25168228 C247.38725196 24.2555939 247.38725196 24.2555939 246.01517153 24.25958455 C245.01879278 24.25735382 244.02241403 24.2551231 242.99584198 24.25282478 C241.94622016 24.25438477 240.89659835 24.25594476 239.81516981 24.25755203 C236.26897531 24.26156698 232.722823 24.25837047 229.17662811 24.25523567 C226.64611536 24.25658949 224.11560281 24.25836932 221.58509064 24.26054573 C215.40792839 24.26464621 209.23078198 24.26402671 203.0536195 24.26113309 C198.03553424 24.25887928 193.01745238 24.25856644 187.99936676 24.25965691 C187.28652313 24.25981014 186.57367951 24.25996337 185.83923456 24.26012125 C184.39133282 24.26044096 182.94343109 24.26076517 181.49552935 24.26109384 C167.90261073 24.2639488 154.30969884 24.26066136 140.71678132 24.25529347 C129.04079589 24.25082542 117.3648204 24.25160135 105.68883514 24.25621223 C92.14621139 24.26155772 78.60359354 24.26367411 65.06096888 24.26059997 C63.61824449 24.2602814 62.1755201 24.25996703 60.73279572 24.25965691 C60.02285508 24.25950263 59.31291444 24.25934836 58.58146045 24.2591894 C53.56650493 24.25832417 48.55155314 24.25978726 43.53659821 24.26213646 C36.79308009 24.26522579 30.04958374 24.26304209 23.30606651 24.2572422 C20.82314778 24.25591384 18.34022746 24.25630999 15.85730934 24.25850487 C12.48362455 24.26121341 9.1100013 24.25783888 5.7363205 24.25282478 C4.73994174 24.25505551 3.74356299 24.25728623 2.71699095 24.25958455 C1.82038393 24.2569768 0.92377692 24.25436905 0 24.25168228 C-1.16967481 24.25143875 -1.16967481 24.25143875 -2.36297941 24.2511903 C-4.13391876 24.12584114 -4.13391876 24.12584114 -5.13391876 23.12584114 C-5.23308447 21.5032657 -5.26471653 19.87644283 -5.26673126 18.25084114 C-5.26802032 17.26599739 -5.26930939 16.28115364 -5.27063751 15.26646614 C-5.26677032 14.23005989 -5.26290314 13.19365364 -5.25891876 12.12584114 C-5.26471954 10.57123177 -5.26471954 10.57123177 -5.27063751 8.98521614 C-5.26934845 8.00037239 -5.26805939 7.01552864 -5.26673126 6.00084114 C-5.26560333 5.09076302 -5.2644754 4.18068489 -5.26331329 3.24302864 C-5.03268733 -0.53053423 -3.33794957 0.00069497 0 0 Z " fill="#534E56" transform="translate(98.13391876220703,320.87415885925293)"/>
<path d="M0 0 C1.05960937 0.50660156 2.11921875 1.01320313 3.2109375 1.53515625 C29.9997655 15.31336435 49.61657554 40.66222663 59.04296875 68.94140625 C59.51669922 70.45541016 59.51669922 70.45541016 60 72 C60.22300781 72.68964844 60.44601562 73.37929687 60.67578125 74.08984375 C68.10815714 100.01805584 64.52600068 130.51825602 52.26953125 154.3671875 C50.65897182 157.70723997 50.96297343 159.49006391 52 163 C52.66 163.66 53.32 164.32 54 165 C54 168.61761516 52.43607322 171.31372133 50.5625 174.3125 C50.13066406 175.00988281 49.69882812 175.70726562 49.25390625 176.42578125 C46.49193819 178.3548508 45.52161283 178.03647506 42.234375 177.796875 C39.23531749 177.68885752 37.56158239 177.65130684 34.99194336 179.24682617 C33.10051802 181.05943139 31.38971661 182.94631231 29.6875 184.9375 C28.39698717 186.33005869 27.0987227 187.71547219 25.79296875 189.09375 C25.15536621 189.76792969 24.51776367 190.44210938 23.86083984 191.13671875 C19.46001622 195.54331622 14.31763673 198.79173461 9 202 C8.4337793 202.34611328 7.86755859 202.69222656 7.28417969 203.04882812 C-19.39048347 219.11576334 -48.95709423 221.54029437 -79 216 C-79 211.05 -79 206.1 -79 201 C-67.33143168 202.92339038 -67.33143168 202.92339038 -64.6171875 203.55078125 C-46.16146207 206.71855502 -26.87555246 202.35459482 -10 195 C-8.94167969 194.54753906 -7.88335937 194.09507812 -6.79296875 193.62890625 C17.4689513 182.40419094 34.62164794 160.44274593 43.875 135.8125 C52.24895999 112.53523359 50.51711136 83.98718309 40.24365234 61.6652832 C36.30112554 53.57002609 31.40731704 46.18603975 26 39 C25.49984375 38.32582031 24.9996875 37.65164062 24.484375 36.95703125 C13.34330268 22.96666169 -3.46496426 13.89179434 -20 8 C-20.83273437 7.68289062 -21.66546875 7.36578125 -22.5234375 7.0390625 C-43.44259823 -0.58850152 -69.68752289 1.30517909 -90 10 C-93.84608123 11.90940203 -97.63266227 13.92494422 -101.39038086 16.00244141 C-106.81790188 19 -106.81790188 19 -109 19 C-109.33 14.05 -109.66 9.1 -110 4 C-77.67432406 -18.43006086 -34.15042404 -16.39518901 0 0 Z " fill="#6DC2F3" transform="translate(432,27)"/>
<path d="M0 0 C5.37056774 -0.48823343 5.37056774 -0.48823343 8.17095852 1.68395329 C10.3771579 4.47758092 10.50407562 5.78457527 10.5146637 9.30674744 C10.52738815 10.38203201 10.54011261 11.45731659 10.55322266 12.56518555 C10.54669678 13.73984375 10.5401709 14.91450195 10.53344727 16.12475586 C10.54206284 17.36576553 10.55067841 18.60677521 10.55955505 19.88539124 C10.57837116 23.28654024 10.57910873 26.68671544 10.57023358 30.08784175 C10.56512239 32.92833347 10.57241734 35.76873784 10.57970566 38.60922056 C10.59670641 45.31109126 10.59313752 52.01273429 10.57641602 58.71459961 C10.55949561 65.6255581 10.57532699 72.53588493 10.6076389 79.44677442 C10.63434197 85.38323733 10.64160891 91.31950368 10.63312382 97.25602061 C10.62819639 100.80033387 10.6303994 104.34426712 10.65091133 107.88853264 C10.67269185 111.84122286 10.65386149 115.79315278 10.63110352 119.74584961 C10.64864182 121.50480057 10.64864182 121.50480057 10.66653442 123.29928589 C10.65388046 124.37739029 10.6412265 125.45549469 10.62818909 126.56626892 C10.62760278 127.5003807 10.62701647 128.43449247 10.62641239 129.39691067 C9.69644528 133.26143745 8.19819573 134.67056566 5 137 C2.00729526 137.70835518 -0.89312811 137.67551612 -3.9576416 137.63491821 C-5.31245565 137.64661814 -5.31245565 137.64661814 -6.69463968 137.65855443 C-9.72197125 137.67850249 -12.74804967 137.66269866 -15.77539062 137.64697266 C-17.94533523 137.65374751 -20.11527409 137.66264989 -22.28520203 137.67352295 C-28.17982487 137.69633833 -34.07401069 137.68747043 -39.96864128 137.67162752 C-46.13360661 137.65898028 -52.2985342 137.67070537 -58.46350098 137.67855835 C-68.81704435 137.68765831 -79.17040947 137.67565778 -89.52392578 137.65185547 C-101.49893316 137.62464357 -113.47330957 137.63345744 -125.44831896 137.6609875 C-135.72445844 137.68366756 -146.00046969 137.68688399 -156.27662611 137.67379415 C-162.41644742 137.66599364 -168.55606858 137.66497472 -174.69587708 137.68147659 C-180.46785751 137.69590586 -186.2392885 137.68592722 -192.01120949 137.65700531 C-194.13122965 137.65038633 -196.25129595 137.65230594 -198.37129784 137.66331863 C-201.26227841 137.67695324 -204.15149095 137.65988322 -207.0423584 137.63491821 C-207.88428317 137.64607182 -208.72620793 137.65722543 -209.59364557 137.66871703 C-213.77514182 137.59852097 -215.54241648 137.33284481 -219.02227306 134.80160809 C-221.22108747 131.68681195 -221.6197334 130.3016671 -221.60127258 126.53935242 C-221.6081459 125.45546738 -221.61501923 124.37158234 -221.62210083 123.25485229 C-221.60412445 122.07593414 -221.58614807 120.89701599 -221.56762695 119.68237305 C-221.56835709 118.43318588 -221.56908722 117.18399872 -221.56983948 115.8969574 C-221.56695627 112.47941187 -221.54191442 109.06338351 -221.50696969 105.64610648 C-221.47567563 102.07204408 -221.47277308 98.49796062 -221.46684265 94.92378235 C-221.45131303 88.15930476 -221.41029698 81.39523206 -221.3600952 74.63093263 C-221.30417391 66.92848123 -221.27670831 59.22601031 -221.25161803 51.52340639 C-221.19937995 35.68203658 -221.11145538 19.84107054 -221 4 C-220.67 4 -220.34 4 -220 4 C-220 44.59 -220 85.18 -220 127 C-182.64445924 126.93863304 -182.64445924 126.93863304 -145.2890625 126.83984375 C-130.05989712 126.79125098 -114.83079912 126.74682813 -99.6015625 126.72900391 C-88.51113203 126.71600488 -77.42083809 126.6890849 -66.33048451 126.64538693 C-60.45718933 126.62273289 -54.58406281 126.60709169 -48.71072006 126.60811615 C-43.18344027 126.60886042 -37.65653387 126.59100305 -32.12935066 126.55883217 C-30.10006602 126.55030806 -28.07073961 126.5486002 -26.04144478 126.55419731 C-23.27115957 126.56082086 -20.50206808 126.54295604 -17.73190308 126.51898193 C-16.52663351 126.53062256 -16.52663351 126.53062256 -15.29701507 126.54249835 C-10.09533178 126.46277774 -7.12203768 125.44411461 -3 122 C-0.84042766 118.7606415 -0.7451772 117.86219444 -0.7215271 114.12153625 C-0.71036362 113.11612793 -0.69920013 112.1107196 -0.68769836 111.07484436 C-0.68445808 109.42191628 -0.68445808 109.42191628 -0.68115234 107.7355957 C-0.67110672 106.57448273 -0.6610611 105.41336975 -0.65071106 104.21707153 C-0.61976097 100.36997992 -0.60281091 96.52295827 -0.5859375 92.67578125 C-0.56723536 90.01204905 -0.54775984 87.34833381 -0.5272522 84.68461609 C-0.48044772 78.38424946 -0.44371175 72.08386581 -0.41057932 65.78341407 C-0.37236968 58.61051092 -0.32295652 51.43769871 -0.27259517 44.26487219 C-0.16925056 29.50998508 -0.07999839 14.7550326 0 0 Z " fill="#423D42" transform="translate(328,169)"/>
<path d="M0 0 C5.12745607 2.223557 7.49244197 6.07669358 10.5 10.5625 C11.54698354 12.08675801 12.59520625 13.61016544 13.64453125 15.1328125 C14.45978271 16.32245605 14.45978271 16.32245605 15.29150391 17.53613281 C18.74253663 22.51295794 22.33189646 27.39107602 25.8984375 32.28540039 C26.68154297 33.36422485 26.68154297 33.36422485 27.48046875 34.46484375 C27.94348389 35.100271 28.40649902 35.73569824 28.88354492 36.39038086 C31.17948075 39.70048471 31.29599406 41.98434732 31 46 C27.1908876 54.34249266 20.47761097 61.8308902 14.9453125 69.1015625 C11.73935589 73.32036163 8.66678155 77.62492605 5.62109375 81.9609375 C3.68967402 84.39033774 2.02338307 85.81793747 -1.0859375 86.37109375 C-1.84132812 86.39300781 -2.59671875 86.41492188 -3.375 86.4375 C-4.12523437 86.47746094 -4.87546875 86.51742187 -5.6484375 86.55859375 C-13.06397673 84.79709523 -19.0175696 73.15450016 -23.33447266 67.25097656 C-25.01086764 64.98531227 -26.72637778 62.75391432 -28.44921875 60.5234375 C-29.55049979 59.05805815 -30.65079037 57.5919338 -31.75 56.125 C-32.27537354 55.46081055 -32.80074707 54.79662109 -33.34204102 54.11230469 C-36.60188051 49.67686609 -37.89367389 46.04944929 -37.56933594 40.50390625 C-36.5073679 35.83343273 -33.74063494 32.57822232 -30.75 28.9375 C-29.46547343 27.29320724 -28.18296268 25.64733796 -26.90234375 24 C-26.25120605 23.175 -25.60006836 22.35 -24.92919922 21.5 C-21.3697877 16.88744951 -18.10789767 12.06445955 -14.82128906 7.25561523 C-14.36077148 6.59247314 -13.90025391 5.92933105 -13.42578125 5.24609375 C-13.02786377 4.66529053 -12.62994629 4.0844873 -12.2199707 3.48608398 C-8.93320994 -0.51762079 -4.81807679 -0.82066143 0 0 Z " fill="#020202" transform="translate(226,194)"/>
<path d="M0 0 C3.76300503 1.25433501 5.19169424 3.19169424 8 6 C20.27651683 16.31227413 31.61739496 17.08985528 48 18 C48 38.13 48 58.26 48 79 C4.11 79 -39.78 79 -85 79 C-85 75.7 -85 72.4 -85 69 C-82.77040024 68.99120064 -82.77040024 68.99120064 -80.49575806 68.98222351 C-66.51593595 68.92511265 -52.5362602 68.85259137 -38.55660439 68.76428509 C-31.36880583 68.71927937 -24.18105736 68.67987592 -16.99316406 68.65356445 C-10.72971461 68.63062283 -4.46642301 68.59726828 1.79690135 68.55129844 C5.11471187 68.52731388 8.43233114 68.51017247 11.75022507 68.50238609 C15.45009631 68.49282041 19.14939028 68.46485146 22.84912109 68.43237305 C23.95466843 68.43380814 25.06021576 68.43524323 26.19926453 68.4367218 C27.20329819 68.42418365 28.20733185 68.41164551 29.24179077 68.39872742 C30.11749411 68.39411845 30.99319744 68.38950949 31.89543724 68.38476086 C32.93719581 68.19430423 32.93719581 68.19430423 34 68 C37.14425021 63.28362468 36.33389522 58.26256144 36.31567383 52.71313477 C36.31252771 50.70518568 36.33680685 48.69725494 36.36132812 46.68945312 C36.36229492 44.77616211 36.36229492 44.77616211 36.36328125 42.82421875 C36.36626221 41.65979248 36.36924316 40.49536621 36.37231445 39.2956543 C35.95284512 35.58259428 34.92479084 33.18520157 33 30 C29.59206158 27.38247419 26.35422569 26.44171735 22.1875 25.5625 C15.97940581 24.10580959 10.7670418 22.03887291 5.625 18.25 C1.37882666 16.2280127 -2.40254142 16.07261565 -7 17 C-9.86363644 18.51454549 -12.43202181 20.27071139 -15.08984375 22.12109375 C-20.05736987 25.32831531 -25.40166336 27.17837199 -31 29 C-31.94746094 29.32097656 -32.89492187 29.64195313 -33.87109375 29.97265625 C-47.57236247 33.88470509 -71.84919042 35.57540479 -85 29 C-85 26.36 -85 23.72 -85 21 C-84.13036621 21.10393066 -84.13036621 21.10393066 -83.24316406 21.20996094 C-56.7445543 24.14496659 -28.35526006 21.84787073 -6.43359375 5.03125 C-4.89419029 3.78588989 -3.37195411 2.51873233 -1.875 1.22265625 C-1.25625 0.81917969 -0.6375 0.41570312 0 0 Z " fill="#EDB684" transform="translate(241,75)"/>
<path d="M0 0 C4.98095048 0.54240412 8.90333681 2.18528747 13.25 4.5625 C13.90895264 4.92037598 14.56790527 5.27825195 15.24682617 5.64697266 C21.01626972 8.86388305 26.09933909 12.55980387 31 17 C31.83015625 17.73734375 32.6603125 18.4746875 33.515625 19.234375 C43.20567966 28.32994778 50.25677925 39.60136047 55 52 C55.5878125 53.39025391 55.5878125 53.39025391 56.1875 54.80859375 C62.66702983 72.8297861 61.01605643 96.82760349 53.5 114.3125 C53.15106689 115.1271875 52.80213379 115.941875 52.44262695 116.78125 C42.99081127 137.95797136 26.16343496 152.97257369 5.109375 162.22265625 C3 163 3 163 1 163 C1 162.34 1 161.68 1 161 C2.93199438 159.59491318 4.86919958 158.29158862 6.875 157 C27.79028329 142.94629739 39.05072045 121.7057681 44.53051758 97.67333984 C48.80417048 73.33818681 43.2226542 47.94633987 29.12890625 27.80859375 C21.01018498 17.09784037 11.57762981 7.86081767 0 1 C0 0.67 0 0.34 0 0 Z " fill="#E1F2FB" transform="translate(407,49)"/>
<path d="M0 0 C-0.51623073 6.22305538 -1.97200924 11.2792307 -4.4375 17 C-4.79094482 17.8237915 -5.14438965 18.64758301 -5.50854492 19.49633789 C-11.55698841 33.15491852 -19.4743107 44.44197371 -30 55 C-31.24910156 56.26263672 -31.24910156 56.26263672 -32.5234375 57.55078125 C-49.15629984 74 -49.15629984 74 -55 74 C-55.495 75.485 -55.495 75.485 -56 77 C-58.53594638 78.0066124 -60.94963826 78.81965052 -63.5625 79.5625 C-64.25408203 79.77068359 -64.94566406 79.97886719 -65.65820312 80.19335938 C-86.14340383 86.28355418 -105.14670725 85.84561271 -126 82 C-126 77.05 -126 72.1 -126 67 C-114.33143168 68.92339038 -114.33143168 68.92339038 -111.6171875 69.55078125 C-93.16146207 72.71855502 -73.87555246 68.35459482 -57 61 C-55.41251953 60.32130859 -55.41251953 60.32130859 -53.79296875 59.62890625 C-31.23853432 49.1941548 -14.1817267 29.07714496 -4.8984375 6.296875 C-4.51558594 5.22179687 -4.51558594 5.22179687 -4.125 4.125 C-2.64 0 -2.64 0 0 0 Z " fill="#72CAF4" transform="translate(479,161)"/>
<path d="M0 0 C5.28 0 10.56 0 16 0 C16 29.37 16 58.74 16 89 C10.72 89 5.44 89 0 89 C0 59.63 0 30.26 0 0 Z " fill="#8A5D5D" transform="translate(356,416)"/>
<path d="M0 0 C5.28 0 10.56 0 16 0 C16 29.37 16 58.74 16 89 C10.72 89 5.44 89 0 89 C0 59.63 0 30.26 0 0 Z " fill="#8A5D5D" transform="translate(73,416)"/>
<path d="M0 0 C4.14559887 0.76143653 5.43126186 2.31311065 8.0625 5.5625 C8.72192383 8.8840332 8.72192383 8.8840332 8.76953125 12.61328125 C8.78465256 13.27208786 8.79977386 13.93089447 8.81535339 14.60966492 C8.85808566 16.698462 8.86705265 18.7858102 8.875 20.875 C8.89815614 22.29756417 8.92352383 23.72009417 8.95117188 25.14257812 C9.01387616 28.61585804 9.04632784 32.08865613 9.0625 35.5625 C9.59721924 34.99950195 10.13193848 34.43650391 10.68286133 33.85644531 C11.3920874 33.12522461 12.10131348 32.39400391 12.83203125 31.640625 C13.53175049 30.91262695 14.23146973 30.18462891 14.95239258 29.43457031 C17.0625 27.5625 17.0625 27.5625 20.75 26.3125 C24.0625 26.5625 24.0625 26.5625 27 28.125 C29.0625 30.5625 29.0625 30.5625 29.8125 33.3125 C29.02264339 36.73521196 28.35871519 37.64792523 26.07421875 40.171875 C25.44016113 40.87344727 24.80610352 41.57501953 24.15283203 42.29785156 C23.46302246 43.04518555 22.77321289 43.79251953 22.0625 44.5625 C21.35851074 45.33303711 20.65452148 46.10357422 19.92919922 46.89746094 C17.69071904 49.31575265 15.41319825 51.69127008 13.125 54.0625 C12.36509766 54.88492188 11.60519531 55.70734375 10.82226562 56.5546875 C4.46593179 63.09014945 4.46593179 63.09014945 -0.31640625 63.34375 C-3.9375 62.5625 -3.9375 62.5625 -5.63856506 60.84790039 C-7.20315329 58.0950985 -7.32338252 56.37053476 -7.34155273 53.21484375 C-7.35423691 52.14693604 -7.36692108 51.07902832 -7.37998962 49.97875977 C-7.37705399 48.83076904 -7.37411835 47.68277832 -7.37109375 46.5 C-7.3763356 45.31656006 -7.38157745 44.13312012 -7.38697815 42.91381836 C-7.39340023 40.41228012 -7.392059 37.91071168 -7.38354492 35.40917969 C-7.37503205 31.57692871 -7.40380135 27.7461663 -7.43554688 23.9140625 C-7.43715884 21.48437545 -7.43658144 19.05468575 -7.43359375 16.625 C-7.44482773 15.47700928 -7.45606171 14.32901855 -7.46763611 13.14624023 C-7.45825516 12.07833252 -7.44887421 11.0104248 -7.43920898 9.91015625 C-7.43904282 8.97179932 -7.43887665 8.03344238 -7.43870544 7.06665039 C-6.57326543 2.74269107 -4.23838581 0.81160579 0 0 Z " fill="#040404" transform="translate(375.9375,71.4375)"/>
<path d="M0 0 C45.94643093 -0.0686716 91.89285642 -0.12153158 137.83932855 -0.15319599 C143.26414229 -0.15694809 148.68895594 -0.16083106 154.11376953 -0.16479492 C155.7337387 -0.16597532 155.7337387 -0.16597532 157.38643451 -0.16717956 C174.87164864 -0.18023228 192.35683317 -0.20388541 209.84202974 -0.23145839 C227.78441307 -0.25951628 245.72678091 -0.27617708 263.66918528 -0.28226548 C274.73995497 -0.28638112 285.81064099 -0.29937857 296.88138492 -0.3237494 C304.47374946 -0.3396113 312.06607075 -0.34439932 319.65845065 -0.34050413 C324.0383732 -0.33858331 328.41814957 -0.34152105 332.79804611 -0.35761642 C336.81159739 -0.37225757 340.82490472 -0.37292514 344.83846743 -0.36269668 C346.28682374 -0.36143324 347.73519551 -0.36520306 349.18352155 -0.37464955 C360.68859708 -0.44529774 370.00487922 0.48641829 379.0234375 8.0390625 C384.58982678 13.5614487 388.05935702 20.39069308 388.1953125 28.3046875 C388.18404291 29.8282636 388.1583 31.35174617 388.125 32.875 C388.08375 35.55625 388.0425 38.2375 388 41 C381.07 41 374.14 41 367 41 C366.896875 38.56625 366.79375 36.1325 366.6875 33.625 C366.12314805 23.67993159 364.27000099 15.01166794 358 7 C357.43334783 6.14927068 356.86669565 5.29854136 356.2828722 4.42203236 C351.80904673 0.0564218 344.81404358 1.31326101 338.9974823 1.36076355 C337.53710174 1.35445223 336.07672929 1.34594959 334.61637288 1.33544332 C330.60272868 1.31291624 326.58965871 1.32151032 322.57599652 1.3351289 C318.24811303 1.3443816 313.92034901 1.32485492 309.59249878 1.30880737 C302.09401819 1.28494973 294.59570199 1.27936306 287.09718895 1.28615379 C276.25560953 1.29594568 265.41421264 1.27823258 254.57266275 1.25378648 C236.98341503 1.21487317 219.39421944 1.19823254 201.80493164 1.19555664 C184.71766485 1.19290951 167.63045899 1.17979884 150.54321289 1.15258789 C149.49011707 1.15091451 148.43702125 1.14924113 147.35201343 1.14751705 C142.06898916 1.13905763 136.78596525 1.13039221 131.50294149 1.12162435 C87.66863833 1.04914226 43.83435848 1.01278885 0 1 C0 0.67 0 0.34 0 0 Z " fill="#865D5D" transform="translate(41,360)"/>
<path d="M0 0 C4.72185182 4.33875818 8.24773327 9.29413583 11.875 14.5625 C12.48085937 15.41263672 13.08671875 16.26277344 13.7109375 17.13867188 C14.56171875 18.37133789 14.56171875 18.37133789 15.4296875 19.62890625 C16.20675049 20.7437439 16.20675049 20.7437439 16.99951172 21.88110352 C18 24 18 24 17.7902832 26.07495117 C16.47102387 29.28853161 14.36280585 31.9729094 12.3125 34.75 C11.86277832 35.36891113 11.41305664 35.98782227 10.94970703 36.62548828 C7.67773424 41.11696116 4.36237764 45.57581889 1 50 C-3.40463675 45.89716244 -6.80280542 41.35904619 -10.25 36.4375 C-11.06210938 35.30538086 -11.06210938 35.30538086 -11.890625 34.15039062 C-12.40625 33.41884766 -12.921875 32.68730469 -13.453125 31.93359375 C-14.15163574 30.9444397 -14.15163574 30.9444397 -14.86425781 29.93530273 C-16.08040349 27.86299258 -16.76722335 26.39636815 -17 24 C-16.09130859 22.09643555 -16.09130859 22.09643555 -14.6484375 20.13671875 C-14.12636719 19.41419922 -13.60429687 18.69167969 -13.06640625 17.94726562 C-12.50824219 17.20154297 -11.95007813 16.45582031 -11.375 15.6875 C-10.84003906 14.95337891 -10.30507812 14.21925781 -9.75390625 13.46289062 C-8.69219235 12.00723178 -7.62552943 10.55516845 -6.55371094 9.10693359 C-4.33355932 6.09626288 -2.16699075 3.04909293 0 0 Z " fill="#F1F8FC" transform="translate(222,212)"/>
<path d="M0 0 C4.83799361 -0.09951569 9.67538025 -0.17177037 14.51416016 -0.21972656 C16.1571695 -0.23973571 17.80010859 -0.26695213 19.44287109 -0.30175781 C21.81625788 -0.35075305 24.18869649 -0.37307504 26.5625 -0.390625 C27.64893799 -0.42159271 27.64893799 -0.42159271 28.75732422 -0.45318604 C35.58858248 -0.45613393 40.54061893 1.63262666 45.46679688 6.37451172 C47.90409091 12.13785827 47.56944826 17.81518112 47.53125 24.0078125 C47.53394749 25.37971267 47.53783204 26.75161098 47.54284668 28.12350464 C47.54872587 30.98991206 47.54022818 33.85581897 47.52148438 36.72216797 C47.49865135 40.39216822 47.51185363 44.06100109 47.53577423 47.73095894 C47.55023888 50.56034116 47.54562417 53.38944714 47.53526306 56.21883774 C47.53130767 58.22851066 47.54342811 60.23819443 47.55578613 62.24783325 C47.54317749 63.4694516 47.53056885 64.69106995 47.51757812 65.94970703 C47.51280457 67.56137253 47.51280457 67.56137253 47.50793457 69.20559692 C46.88509146 72.63216958 45.64449177 73.82025072 43 76 C42.98598145 74.97845825 42.98598145 74.97845825 42.97167969 73.9362793 C42.91801869 70.85261353 42.83436449 67.77047206 42.75 64.6875 C42.73582031 63.61564453 42.72164063 62.54378906 42.70703125 61.43945312 C42.67480469 60.41142578 42.64257812 59.38339844 42.609375 58.32421875 C42.58842773 57.37635498 42.56748047 56.42849121 42.54589844 55.4519043 C42.20268609 52.89761767 42.20268609 52.89761767 40.27441406 51.22973633 C37.82863759 49.90734731 35.74292277 49.3809615 33 49 C32.98541748 47.89076172 32.97083496 46.78152344 32.95581055 45.63867188 C32.89750664 41.49349957 32.82027763 37.34885237 32.73754883 33.20410156 C32.70444965 31.41577729 32.67637174 29.62735232 32.65356445 27.83886719 C32.61974044 25.25672801 32.56741377 22.67549924 32.51171875 20.09375 C32.50532883 19.30383667 32.4989389 18.51392334 32.49235535 17.70007324 C32.35835957 12.55403541 31.85097393 5.85097393 28 2 C25.9291528 1.8415735 23.85321971 1.74875578 21.77734375 1.68359375 C19.88725586 1.62075195 19.88725586 1.62075195 17.95898438 1.55664062 C16.61849264 1.51682404 15.2779978 1.47711186 13.9375 1.4375 C12.59308477 1.39431958 11.2486834 1.35070544 9.90429688 1.30664062 C6.6029766 1.20014642 3.30157764 1.0981354 0 1 C0 0.67 0 0.34 0 0 Z " fill="#433E43" transform="translate(261,27)"/>
<path d="M0 0 C4.72185182 4.33875818 8.24773327 9.29413583 11.875 14.5625 C12.48085937 15.41263672 13.08671875 16.26277344 13.7109375 17.13867188 C14.56171875 18.37133789 14.56171875 18.37133789 15.4296875 19.62890625 C15.94772949 20.37213135 16.46577148 21.11535645 16.99951172 21.88110352 C18 24 18 24 17.7902832 26.07495117 C16.47102387 29.28853161 14.36280585 31.9729094 12.3125 34.75 C11.86277832 35.36891113 11.41305664 35.98782227 10.94970703 36.62548828 C7.67773424 41.11696116 4.36237764 45.57581889 1 50 C-0.65 48.35 -2.3 46.7 -4 45 C-3.01 44.505 -3.01 44.505 -2 44 C-1.72542969 43.278125 -1.45085937 42.55625 -1.16796875 41.8125 C0.73138077 37.23881553 4.07818125 33.74293298 7.19921875 29.9375 C9.19035804 27.23010258 9.19035804 27.23010258 9.0859375 24.58203125 C7.53517925 20.89479671 5.32652814 17.87834777 2.9375 14.6875 C2.46505859 14.04232422 1.99261719 13.39714844 1.50585938 12.73242188 C0.34490296 11.14929949 -0.82652336 9.57386431 -2 8 C-3.98 8.99 -3.98 8.99 -6 10 C-4.34832443 6.4213696 -2.21713508 3.25179812 0 0 Z " fill="#DEEFF7" transform="translate(222,212)"/>
<path d="M0 0 C5.28 0 10.56 0 16 0 C16 4.29 16 8.58 16 13 C11.05 13 6.1 13 1 13 C1 38.08 1 63.16 1 89 C0.67 89 0.34 89 0 89 C0 59.63 0 30.26 0 0 Z " fill="#775151" transform="translate(356,416)"/>
<path d="M0 0 C2.8125 1.8125 2.8125 1.8125 5 5 C5.89599618 10.15197801 5.74933212 14.47136247 3.4375 19.1875 C1 21 1 21 -2.5 21.5625 C-6.58962944 20.90523813 -7.52121121 20.23575225 -10 17 C-10.56640625 13.90625 -10.56640625 13.90625 -10.5625 10.5 C-10.58441406 9.3759375 -10.60632813 8.251875 -10.62890625 7.09375 C-10 4 -10 4 -7.62109375 1.62890625 C-4.63038505 -0.22970109 -3.43534657 -0.77295298 0 0 Z " fill="#070605" transform="translate(254,113)"/>
<path d="M0 0 C4.45812544 1.32092606 4.45812544 1.32092606 6.375 4 C6.80859375 6.99609375 6.80859375 6.99609375 6.8125 10.4375 C6.83183594 11.57058594 6.85117188 12.70367187 6.87109375 13.87109375 C6.27850933 17.60857502 5.38292658 18.76952325 2.375 21 C-1.125 21.5625 -1.125 21.5625 -4.625 21 C-7.60628659 18.78314587 -8.45897965 17.04467522 -9.0390625 13.39453125 C-9.28321181 8.63361962 -9.15442993 5.83425322 -6.5625 1.75 C-3.625 0 -3.625 0 0 0 Z " fill="#080705" transform="translate(194.625,113)"/>
<path d="M0 0 C5.28 0 10.56 0 16 0 C16 4.29 16 8.58 16 13 C10.72 13 5.44 13 0 13 C0 8.71 0 4.42 0 0 Z " fill="#755050" transform="translate(73,416)"/>
<path d="M0 0 C2.31 0 4.62 0 7 0 C8.65394117 1.65394117 8.12999683 3.60315413 8.1328125 5.875 C8.13474609 7.35226562 8.13474609 7.35226562 8.13671875 8.859375 C8.13285156 9.89578125 8.12898438 10.9321875 8.125 12 C8.12886719 13.03640625 8.13273437 14.0728125 8.13671875 15.140625 C8.13542969 16.12546875 8.13414062 17.1103125 8.1328125 18.125 C8.13168457 19.03507812 8.13055664 19.94515625 8.12939453 20.8828125 C8 23 8 23 7 24 C4.69 24 2.38 24 0 24 C0 16.08 0 8.16 0 0 Z " fill="#443F44" transform="translate(344,321)"/>
<path d="M0 0 C0.33 0 0.66 0 1 0 C1.33 8.91 1.66 17.82 2 27 C1.01 27.33 0.02 27.66 -1 28 C-0.67 18.76 -0.34 9.52 0 0 Z " fill="#5A9EC0" transform="translate(481,121)"/>
</svg>
