<svg id="svg" version="1.1" xmlns="http://www.w3.org/2000/svg" xmlns:xlink="http://www.w3.org/1999/xlink" width="400" height="400" viewBox="0, 0, 400,400"><g id="svgg"><path id="path0" d="M159.800 214.800 C 159.664 215.020,159.113 215.200,158.576 215.200 C 158.039 215.200,157.600 215.359,157.600 215.553 C 157.600 215.748,157.285 216.007,156.900 216.129 C 154.797 216.796,146.400 224.570,146.400 225.851 C 146.400 226.179,146.247 226.353,146.060 226.237 C 145.873 226.122,145.483 226.471,145.193 227.014 C 144.902 227.556,144.540 228.000,144.387 228.000 C 144.234 228.000,143.589 228.761,142.954 229.691 C 142.319 230.621,141.305 231.908,140.700 232.550 C 140.095 233.193,139.600 233.872,139.600 234.059 C 139.600 234.246,138.880 235.141,138.000 236.048 C 137.120 236.955,136.400 237.873,136.400 238.088 C 136.400 238.303,135.860 238.983,135.200 239.600 C 134.540 240.217,134.000 240.919,134.000 241.160 C 134.000 241.402,133.820 241.600,133.600 241.600 C 133.380 241.600,133.198 241.825,133.196 242.100 C 133.194 242.375,132.654 243.025,131.996 243.545 C 131.338 244.065,130.800 244.675,130.800 244.902 C 130.800 245.128,130.262 245.828,129.604 246.457 C 128.946 247.086,128.541 247.605,128.704 247.612 C 128.867 247.619,128.685 247.808,128.300 248.032 C 127.915 248.256,127.600 248.635,127.600 248.873 C 127.600 249.111,127.212 249.642,126.739 250.053 C 126.265 250.464,126.008 250.800,126.167 250.800 C 126.327 250.800,126.190 251.067,125.863 251.394 C 125.370 251.888,123.266 252.006,113.428 252.094 L 101.586 252.200 101.597 298.473 C 101.606 343.104,101.716 349.600,102.457 349.600 C 102.646 349.600,102.800 349.950,102.800 350.377 C 102.800 351.056,104.173 353.842,104.783 354.400 C 104.903 354.510,105.235 355.054,105.520 355.610 C 105.805 356.165,106.557 356.968,107.191 357.394 C 107.825 357.820,108.311 358.281,108.272 358.419 C 108.143 358.869,112.388 362.800,113.002 362.800 C 113.331 362.800,113.600 362.944,113.600 363.120 C 113.600 363.518,117.006 365.200,117.811 365.200 C 118.135 365.200,118.400 365.380,118.400 365.600 C 118.400 365.820,118.940 366.000,119.600 366.000 C 120.260 366.000,120.800 366.180,120.800 366.400 C 120.800 366.620,121.509 366.800,122.376 366.800 C 123.243 366.800,124.064 366.980,124.200 367.200 C 124.648 367.925,170.327 367.730,171.057 367.000 C 171.570 366.487,173.915 366.400,187.180 366.400 C 200.489 366.400,202.773 366.486,203.200 367.000 C 203.804 367.728,232.000 367.924,232.000 367.200 C 232.000 366.980,232.630 366.800,233.400 366.800 C 234.170 366.800,234.800 366.620,234.800 366.400 C 234.800 366.180,235.078 366.000,235.418 366.000 C 235.758 366.000,236.490 365.546,237.044 364.992 C 237.598 364.438,238.490 363.697,239.026 363.346 C 239.562 362.995,240.000 362.487,240.000 362.216 C 240.000 361.945,240.360 361.398,240.800 361.000 C 241.243 360.599,241.600 359.768,241.600 359.138 C 241.600 358.512,241.762 358.000,241.960 358.000 C 242.315 358.000,242.826 355.142,242.819 353.200 C 242.810 351.062,242.305 348.000,241.961 348.000 C 241.763 348.000,241.600 347.550,241.600 347.000 C 241.600 346.450,241.420 346.000,241.200 346.000 C 240.980 346.000,240.845 345.844,240.900 345.653 C 241.035 345.183,238.467 342.000,237.953 342.000 C 237.488 342.000,236.226 340.838,236.452 340.619 C 236.534 340.540,237.140 340.386,237.800 340.278 C 238.460 340.169,239.476 339.894,240.059 339.666 C 240.641 339.438,241.226 339.360,241.359 339.492 C 241.491 339.625,241.600 339.523,241.600 339.267 C 241.600 339.010,241.778 338.800,241.995 338.800 C 242.213 338.800,242.774 338.485,243.242 338.100 C 244.843 336.784,248.054 333.600,247.781 333.600 C 247.631 333.600,247.799 333.156,248.154 332.614 C 248.509 332.072,248.800 331.262,248.800 330.814 C 248.800 330.366,248.980 330.000,249.200 330.000 C 249.712 330.000,249.735 322.641,249.226 321.695 C 249.021 321.313,248.617 320.415,248.329 319.700 C 248.040 318.985,247.669 318.400,247.502 318.400 C 247.336 318.400,247.200 318.124,247.200 317.787 C 247.200 314.592,240.124 311.605,231.900 311.328 C 223.694 311.051,225.853 310.400,234.976 310.400 C 239.996 310.400,243.248 310.246,243.400 310.000 C 243.536 309.780,244.087 309.600,244.624 309.600 C 245.161 309.600,245.600 309.420,245.600 309.200 C 245.600 308.980,245.876 308.800,246.214 308.800 C 247.156 308.800,251.200 305.021,251.200 304.141 C 251.200 303.843,251.380 303.600,251.600 303.600 C 251.820 303.600,252.000 303.251,252.000 302.824 C 252.000 302.397,252.180 301.936,252.400 301.800 C 252.620 301.664,252.800 300.854,252.800 300.000 C 252.800 299.146,252.962 298.347,253.160 298.225 C 253.358 298.102,253.520 297.371,253.520 296.600 C 253.520 295.829,253.358 295.098,253.160 294.975 C 252.962 294.853,252.800 293.953,252.800 292.976 C 252.800 291.999,252.620 291.200,252.400 291.200 C 252.180 291.200,252.000 290.840,252.000 290.400 C 252.000 289.960,251.820 289.600,251.600 289.600 C 251.380 289.600,251.200 289.318,251.200 288.974 C 251.200 288.215,247.522 284.556,246.402 284.200 C 245.961 284.061,245.600 283.778,245.600 283.573 C 245.600 283.368,245.161 283.200,244.624 283.200 C 244.087 283.200,243.536 283.020,243.400 282.800 C 243.248 282.554,239.996 282.400,234.976 282.400 C 227.067 282.400,226.800 282.374,226.800 281.600 C 226.800 280.818,227.067 280.800,238.376 280.800 C 245.663 280.800,250.044 280.652,250.200 280.400 C 250.336 280.180,250.987 280.000,251.647 280.000 C 252.345 280.000,252.744 279.833,252.600 279.600 C 252.464 279.380,252.723 279.200,253.176 279.200 C 253.629 279.200,254.000 279.020,254.000 278.800 C 254.000 278.580,254.235 278.400,254.522 278.400 C 255.247 278.400,258.000 275.815,258.000 275.134 C 258.000 274.828,258.360 274.317,258.800 274.000 C 259.240 273.683,259.600 273.024,259.600 272.535 C 259.600 272.047,259.780 271.536,260.000 271.400 C 260.220 271.264,260.400 270.343,260.400 269.353 C 260.400 268.363,260.556 267.649,260.747 267.767 C 261.168 268.027,261.124 265.390,260.700 264.966 C 260.535 264.802,260.400 263.887,260.400 262.933 C 260.400 261.980,260.220 261.200,260.000 261.200 C 259.780 261.200,259.600 260.885,259.600 260.500 C 259.599 260.115,259.158 259.260,258.619 258.600 C 256.340 255.808,254.969 254.412,254.500 254.406 C 254.225 254.403,254.000 254.220,254.000 254.000 C 254.000 253.780,253.651 253.600,253.224 253.600 C 252.797 253.600,252.336 253.420,252.200 253.200 C 252.064 252.980,251.423 252.800,250.776 252.800 C 250.129 252.800,249.600 252.620,249.600 252.400 C 249.600 251.668,203.806 251.870,203.196 252.605 C 202.761 253.129,200.607 253.195,187.047 253.105 L 171.400 253.000 171.186 233.800 C 171.069 223.240,170.934 214.555,170.886 214.500 C 170.607 214.177,160.008 214.464,159.800 214.800 " stroke="none" fill="#f4ccbc" fill-rule="evenodd"></path><path id="path1" d="M203.062 28.331 C 201.983 29.524,202.051 122.360,203.131 123.338 C 203.797 123.940,206.319 124.000,231.131 124.000 L 258.400 124.000 258.400 147.401 L 258.400 170.803 315.662 170.701 C 369.847 170.605,372.929 170.562,373.026 169.900 C 373.083 169.515,372.977 169.200,372.792 169.200 C 372.606 169.200,372.338 168.834,372.196 168.387 C 372.054 167.940,371.502 167.138,370.969 166.605 C 370.436 166.072,370.000 165.493,369.999 165.318 C 369.999 165.143,369.459 164.370,368.800 163.600 C 368.141 162.830,367.601 162.018,367.601 161.796 C 367.600 161.574,367.240 161.168,366.800 160.893 C 366.360 160.618,366.000 160.164,366.000 159.885 C 366.000 159.605,365.640 159.117,365.200 158.800 C 364.760 158.483,364.400 158.020,364.400 157.771 C 364.400 157.522,363.860 156.754,363.200 156.063 C 362.540 155.372,362.000 154.575,362.000 154.292 C 362.000 154.009,361.640 153.517,361.200 153.200 C 360.760 152.883,360.400 152.420,360.400 152.171 C 360.400 151.922,359.860 151.154,359.200 150.463 C 358.540 149.772,358.000 149.072,358.000 148.907 C 358.000 148.512,355.087 144.239,354.700 144.067 C 354.535 143.993,354.400 143.718,354.400 143.455 C 354.400 143.192,354.040 142.717,353.600 142.400 C 353.160 142.083,352.800 141.620,352.800 141.371 C 352.800 141.122,352.260 140.354,351.600 139.663 C 350.940 138.972,350.400 138.175,350.400 137.892 C 350.400 137.609,350.040 137.117,349.600 136.800 C 349.160 136.483,348.800 136.020,348.800 135.771 C 348.800 135.522,348.260 134.754,347.600 134.063 C 346.940 133.372,346.400 132.671,346.400 132.504 C 346.399 132.337,345.949 131.677,345.400 131.038 C 344.850 130.399,344.400 129.732,344.400 129.556 C 344.400 129.380,343.950 128.786,343.400 128.236 C 342.850 127.686,342.400 127.119,342.400 126.976 C 342.400 126.833,341.950 126.181,341.400 125.527 C 340.850 124.873,340.400 124.122,340.400 123.858 C 340.400 123.593,340.040 123.117,339.600 122.800 C 338.375 121.917,339.038 120.085,341.586 117.314 C 342.034 116.827,342.400 116.280,342.400 116.098 C 342.400 115.917,343.120 114.972,344.000 114.000 C 344.880 113.028,345.600 112.072,345.600 111.876 C 345.600 111.681,346.140 111.017,346.800 110.400 C 347.460 109.783,348.000 109.089,348.000 108.858 C 348.000 108.626,348.405 108.001,348.900 107.468 C 351.015 105.192,352.000 103.961,352.000 103.593 C 352.000 103.377,352.180 103.200,352.400 103.200 C 352.620 103.200,352.800 102.996,352.800 102.747 C 352.800 102.498,353.124 102.003,353.519 101.647 C 353.914 101.291,354.674 100.370,355.208 99.600 C 355.741 98.830,356.587 97.752,357.089 97.204 C 357.590 96.656,358.000 95.964,358.000 95.665 C 358.000 95.366,358.540 94.617,359.200 94.000 C 359.860 93.383,360.400 92.683,360.400 92.443 C 360.400 92.203,360.940 91.491,361.600 90.860 C 362.260 90.229,362.800 89.580,362.800 89.417 C 362.800 89.254,363.340 88.617,364.000 88.000 C 364.660 87.383,365.200 86.724,365.200 86.535 C 365.200 86.346,365.827 85.473,366.592 84.596 C 367.358 83.718,367.988 82.888,367.992 82.750 C 367.997 82.613,368.630 81.813,369.400 80.972 C 370.170 80.131,370.800 79.297,370.800 79.118 C 370.800 78.939,371.347 78.221,372.015 77.521 C 374.585 74.832,377.212 75.011,333.495 74.898 L 294.000 74.796 294.000 51.198 L 294.000 27.600 248.862 27.600 C 205.641 27.600,203.696 27.631,203.062 28.331 " stroke="none" fill="#fc646c" fill-rule="evenodd"></path><path id="path2" d="M181.600 6.400 C 181.600 6.620,181.240 6.800,180.800 6.800 C 180.360 6.800,180.000 6.980,180.000 7.200 C 180.000 7.420,179.640 7.600,179.200 7.600 C 178.760 7.600,178.400 7.780,178.400 8.000 C 178.400 8.220,178.085 8.398,177.700 8.395 C 176.940 8.390,173.224 12.284,173.209 13.100 C 173.204 13.375,173.020 13.600,172.800 13.600 C 172.580 13.600,172.400 13.949,172.400 14.376 C 172.400 14.803,172.220 15.264,172.000 15.400 C 171.780 15.536,171.600 16.076,171.600 16.600 C 171.600 17.124,171.420 17.664,171.200 17.800 C 170.650 18.140,170.646 214.486,171.196 215.036 C 171.443 215.283,171.631 222.431,171.696 234.016 L 171.800 252.600 187.153 252.705 C 198.153 252.780,202.661 252.681,203.053 252.356 C 203.918 251.639,203.865 123.918,203.000 123.200 C 202.089 122.444,202.089 29.156,203.000 28.400 C 203.709 27.811,203.889 19.026,203.200 18.600 C 202.980 18.464,202.800 17.733,202.800 16.976 C 202.800 16.219,202.620 15.600,202.400 15.600 C 202.180 15.600,202.000 15.190,202.000 14.688 C 202.000 14.187,201.640 13.517,201.200 13.200 C 200.760 12.883,200.400 12.393,200.400 12.111 C 200.400 11.364,197.127 8.400,196.302 8.400 C 195.916 8.400,195.600 8.220,195.600 8.000 C 195.600 7.780,195.240 7.600,194.800 7.600 C 194.360 7.600,194.000 7.420,194.000 7.200 C 194.000 6.980,193.640 6.800,193.200 6.800 C 192.760 6.800,192.400 6.620,192.400 6.400 C 192.400 6.153,190.333 6.000,187.000 6.000 C 183.667 6.000,181.600 6.153,181.600 6.400 M171.500 367.232 C 170.856 367.607,170.800 368.689,170.800 380.820 L 170.800 394.000 187.200 394.000 L 203.600 394.000 203.600 380.814 C 203.600 368.187,203.567 367.611,202.826 367.214 C 201.780 366.654,172.463 366.671,171.500 367.232 " stroke="none" fill="#847484" fill-rule="evenodd"></path><path id="path3" d="M171.200 233.920 L 171.400 253.000 187.047 253.105 C 201.585 253.202,202.734 253.159,203.247 252.505 C 203.739 251.878,203.729 251.856,203.153 252.305 C 202.653 252.695,199.036 252.786,187.153 252.705 L 171.800 252.600 171.696 234.016 C 171.639 223.795,171.459 215.299,171.296 215.136 C 171.133 214.973,171.090 223.426,171.200 233.920 M27.027 242.356 C 26.907 242.551,26.851 270.046,26.904 303.456 L 27.000 364.200 52.297 364.303 L 77.594 364.406 77.776 308.703 C 77.876 278.066,78.067 250.525,78.200 247.500 L 78.443 242.000 52.845 242.000 C 38.341 242.000,27.152 242.154,27.027 242.356 M171.149 367.065 C 170.653 367.667,170.684 367.686,171.474 367.265 C 172.637 366.646,201.651 366.606,202.926 367.222 C 203.770 367.630,203.774 367.623,203.024 367.022 C 201.806 366.047,171.956 366.088,171.149 367.065 " stroke="none" fill="#9cacbc" fill-rule="evenodd"></path><path id="path4" d="M78.014 252.774 C 77.734 253.296,77.600 271.532,77.600 308.974 L 77.600 364.400 89.839 364.400 L 102.077 364.400 101.847 350.900 C 101.721 343.475,101.610 318.185,101.602 294.700 L 101.586 252.000 90.007 252.000 C 78.969 252.000,78.409 252.036,78.014 252.774 " stroke="none" fill="#cccccc" fill-rule="evenodd"></path></g></svg>