<svg viewBox="0 0 2521 2911" xmlns="http://www.w3.org/2000/svg" xmlns:svg="http://www.w3.org/2000/svg">
  <g transform="matrix(0.10000000149011612, 0, 0, -0.10000000149011612, 0, 2911)" fill="#0089da" stroke="none">
    <path d="M11910 28699 c-382 -221 -3093 -1786 -6025 -3479 -2931 -1693 -5455&#10;-3149 -5607 -3236 l-277 -159 -1 -7277 0 -7276 248 -143 c136 -78 2556 -1475&#10;5377 -3104 7119 -4110 6975 -4027 6994 -4022 18 5 399 224 7489 4317 l5101&#10;2945 1 7280 0 7280 -263 151 c-144 83 -2474 1428 -5177 2989 -6141 3546 -7161&#10;4135 -7163 4135 -1 0 -315 -181 -697 -401z m893 -551 c105 -61 680 -393 1277&#10;-738 597 -345 1470 -849 1940 -1121 l855 -494 -935 -6 c-514 -3 -2445 -9&#10;-4290 -13 -2630 -5 -3351 -4 -3335 5 11 7 382 222 825 477 443 256 1280 740&#10;1860 1075 1580 913 1604 927 1607 927 2 0 90 -50 196 -112z m-2286 -6869 c254&#10;-34 383 -217 383 -542 0 -575 -478 -1632 -1289 -2852 -102 -154 -186 -289&#10;-186 -300 0 -35 32 -28 102 23 219 159 440 259 667 303 285 56 485 21 612&#10;-106 87 -86 127 -188 143 -358 14 -144 -1 -268 -55 -455 -305 -1057 -366&#10;-1281 -423 -1572 -82 -415 -82 -688 -1 -762 36 -34 65 -35 152 -8 170 52 371&#10;262 577 601 209 346 497 983 602 1331 111 372 277 815 394 1051 152 306 327&#10;495 525 563 66 23 103 28 315 40 326 18 399 18 415 -1 16 -19 7 -39 -50 -110&#10;-45 -56 -145 -246 -213 -405 -76 -179 -403 -1050 -451 -1202 -64 -202 -148&#10;-509 -184 -668 -54 -243 -67 -341 -66 -525 0 -152 2 -176 23 -227 40 -103 99&#10;-122 208 -68 68 34 225 162 303 247 197 215 290 373 617 1053 107 223 214 437&#10;237 475 69 111 71 118 129 370 162 701 205 1087 145 1292 -8 29 -9 46 -2 53&#10;12 12 393 40 555 40 185 0 270 -23 339 -92 59 -59 75 -109 73 -228 -1 -58 -6&#10;-127 -11 -154 -21 -107 3 -101 147 32 427 399 818 591 1238 609 220 9 338 -25&#10;439 -126 94 -94 140 -218 151 -411 11 -204 -23 -377 -200 -995 -279 -973 -368&#10;-1499 -281 -1666 16 -32 61 -59 97 -59 42 0 159 67 244 139 244 210 425 476&#10;689 1016 246 503 272 564 325 765 169 629 368 1057 614 1319 191 204 450 300&#10;928 346 77 8 110 -6 128 -51 16 -44 -6 -94 -87 -194 -119 -147 -206 -287 -318&#10;-510 -220 -440 -436 -1066 -531 -1535 -47 -236 -65 -389 -72 -605 -8 -263 22&#10;-417 89 -464 69 -49 222 16 378 161 206 190 502 639 749 1133 197 396 311 696&#10;471 1250 74 254 138 431 193 534 41 78 214 255 279 285 62 29 248 76 383 95&#10;134 19 556 49 579 40 33 -13 17 -51 -49 -114 -189 -182 -329 -485 -525 -1135&#10;-122 -408 -184 -639 -446 -1683 -204 -814 -242 -978 -231 -989 31 -31 528 316&#10;829 579 46 40 198 185 338 323 352 345 529 503 743 662 298 221 511 296 624&#10;221 50 -33 80 -92 95 -185 19 -121 -16 -541 -68 -833 -218 -1215 -892 -2257&#10;-1996 -3091 -1066 -804 -2491 -1367 -4078 -1613 -268 -42 -457 -63 -975 -111&#10;-1536 -142 -2418 -257 -3300 -431 -2482 -489 -4071 -1343 -4929 -2648 -203&#10;-309 -391 -709 -497 -1058 -44 -146 -69 -153 -134 -40 -67 115 -188 292 -290&#10;427 -652 862 -1598 1572 -2645 1987 -639 253 -1243 380 -1895 397 l-250 6 -3&#10;31 -3 31 228 108 c1816 860 3716 1328 6243 1540 855 71 1658 111 3360 165&#10;2624 84 3822 169 5210 371 512 74 718 114 960 183 1152 330 2036 769 2750&#10;1364 156 131 514 489 640 642 337 407 576 797 830 1354 82 180 100 236 100&#10;319 0 127 -74 171 -196 118 -95 -43 -345 -227 -704 -520 -539 -441 -790 -617&#10;-1063 -747 l-95 -44 -106 -213 c-429 -863 -1035 -1422 -1783 -1643 -760 -224&#10;-1570 20 -1698 512 -31 118 -12 244 56 374 244 469 1139 859 2444 1065 94 15&#10;175 32 181 39 11 10 326 1025 328 1055 1 7 -7 18 -18 25 -15 9 -21 7 -36 -14&#10;-352 -479 -567 -713 -795 -865 -128 -85 -319 -141 -520 -152 -162 -9 -273 26&#10;-382 122 -162 142 -248 382 -260 722 -6 174 -12 200 -44 188 -8 -3 -33 -43&#10;-57 -89 -176 -345 -412 -673 -677 -945 -288 -295 -501 -411 -754 -411 -283 0&#10;-459 143 -532 430 -27 107 -37 390 -20 566 45 465 197 1178 446 2089 88 322&#10;89 330 80 401 -17 136 -124 171 -344 113 -175 -47 -327 -153 -479 -334 -109&#10;-129 -151 -199 -298 -490 -259 -515 -351 -774 -518 -1470 -91 -377 -137 -595&#10;-211 -1000 -73 -397 -70 -385 -100 -385 -13 0 -225 -13 -472 -30 -246 -16&#10;-450 -30 -452 -30 -2 0 -1 39 2 88 7 102 47 300 117 570 28 105 50 195 50 199&#10;0 4 -37 -54 -81 -129 -257 -429 -615 -823 -886 -975 -157 -87 -335 -123 -474&#10;-94 -206 43 -342 202 -408 481 -27 113 -41 241 -49 455 -7 169 -8 180 -27 180&#10;-13 0 -30 -19 -54 -60 -312 -542 -508 -819 -742 -1054 -249 -248 -470 -361&#10;-705 -361 -113 0 -180 13 -259 50 -159 75 -262 248 -301 503 -20 130 -14 563&#10;10 737 63 455 182 960 356 1520 100 320 140 500 140 624 0 81 -25 147 -61 166&#10;-64 35 -228 -27 -434 -165 -354 -236 -618 -598 -805 -1100 -151 -405 -246&#10;-737 -340 -1180 -76 -362 -108 -503 -156 -695 -24 -96 -60 -251 -79 -345 -20&#10;-93 -39 -173 -43 -177 -4 -3 -209 -19 -457 -35 -483 -32 -491 -32 -489 18 1&#10;13 33 141 73 284 94 341 275 1065 451 1805 488 2045 791 3057 1195 3990 168&#10;388 349 691 592 995 304 379 613 561 990 584 12 0 57 -4 100 -10z m-4062 -814&#10;c497 -75 1026 -322 1230 -574 160 -198 173 -396 39 -603 -145 -225 -361 -446&#10;-512 -522 -104 -53 -166 -45 -232 30 -59 67 -77 131 -120 426 -47 322 -92 449&#10;-198 560 -150 157 -438 193 -708 89 -264 -102 -467 -353 -544 -672 -80 -336&#10;-26 -707 160 -1087 123 -252 267 -458 485 -693 38 -41 118 -134 176 -205 623&#10;-759 934 -1450 881 -1958 -19 -184 -101 -426 -229 -679 -293 -577 -752 -949&#10;-1386 -1122 -263 -71 -633 -105 -944 -86 -263 16 -498 51 -600 90 -271 105&#10;-524 348 -663 636 -149 308 -156 622 -21 900 97 198 319 474 422 523 160 77&#10;248 -50 315 -453 42 -260 55 -317 90 -425 73 -223 213 -461 364 -622 315 -337&#10;658 -402 980 -187 107 71 307 275 402 409 344 486 331 996 -39 1555 -95 143&#10;-233 322 -489 631 -352 426 -460 566 -607 789 -494 754 -546 1395 -172 2132&#10;344 675 849 1038 1570 1126 77 10 260 5 350 -8z m7135 -723 c125 -62 202 -278&#10;155 -437 -50 -172 -159 -286 -330 -345 -90 -31 -217 -46 -266 -31 -134 40&#10;-231 248 -200 432 21 129 97 235 230 324 149 98 288 118 411 57z m-950 -12326&#10;c0 -2 -7 -9 -15 -16 -13 -11 -14 -10 -9 4 5 14 24 23 24 12z"/>
    <path d="M10342 20949 c-135 -67 -324 -351 -503 -754 -229 -518 -564 -1484&#10;-828 -2385 -34 -117 -37 -137 -25 -150 23 -24 42 -4 142 151 566 877 1002&#10;1694 1182 2216 61 176 146 473 169 596 53 276 3 395 -137 326z"/>
    <path d="M19026 14334 c-709 -196 -1249 -428 -1413 -608 -33 -35 -54 -70 -63&#10;-100 -12 -44 -11 -49 16 -104 116 -227 555 -169 1019 136 278 181 508 419 635&#10;655 36 66 39 77 23 76 -10 0 -108 -25 -217 -55z"/>
  </g >
  <path d="M 1263.646 52.618 L 1759.066 350.518 L 768.225 350.518 L 1263.646 52.618 Z" style="stroke-miterlimit: 1; stroke-width: 500px; paint-order: markers stroke; vector-effect: non-scaling-stroke; fill:#0089da;" shape="triangle 768.225 52.618 990.841 297.9 0.5 0 1@9c1381a7"/>
</svg>